<svg width="21" height="25" viewBox="0 0 21 25" fill="none" xmlns="http://www.w3.org/2000/svg">
<path d="M7.9561 4.34597C7.85888 4.05753 7.76166 3.76908 7.76166 3.38448C7.76166 1.74994 9.02554 0.5 10.6783 0.5C12.3311 0.5 13.595 1.74994 13.595 3.38448C13.595 3.76908 13.4977 4.05753 13.4005 4.34597" stroke="white" stroke-miterlimit="10"/>
<path d="M2.90039 11.5572C2.90039 7.32661 6.40037 3.86523 10.6781 3.86523C14.9559 3.86523 18.4559 7.32661 18.4559 11.5572" stroke="white" stroke-miterlimit="10"/>
<path d="M2.90146 11.0781V15.8856C2.90146 17.0394 2.22091 18.097 1.15147 18.6739L0.957031 18.7701V19.7316H10.6792" stroke="white" stroke-miterlimit="10"/>
<path d="M6.79102 19.7305C6.79102 21.8458 8.54101 23.5764 10.6799 23.5764C12.8188 23.5764 14.5688 21.8458 14.5688 19.7305" stroke="white" stroke-miterlimit="10"/>
<path d="M18.4555 11.0781V15.8856C18.4555 17.0394 19.136 18.097 20.2055 18.6739L20.3999 18.7701V19.7316H10.6777" stroke="white" stroke-miterlimit="10"/>
</svg>
