<svg width="19" height="23" viewBox="0 0 19 23" fill="none" xmlns="http://www.w3.org/2000/svg">
<path d="M0.5 7.5H7.5V0.5" stroke="#CCCCCC" stroke-miterlimit="10"/>
<path d="M0.5 20.5C0.5 21.0304 0.710714 21.5391 1.08579 21.9142C1.46086 22.2893 1.96957 22.5 2.5 22.5H16.5C17.0304 22.5 17.5391 22.2893 17.9142 21.9142C18.2893 21.5391 18.5 21.0304 18.5 20.5V2.5C18.5 1.96957 18.2893 1.46086 17.9142 1.08579C17.5391 0.710714 17.0304 0.5 16.5 0.5H7.5L0.5 7.5V20.5Z" stroke="#CCCCCC" stroke-miterlimit="10"/>
<path d="M9 18H16" stroke="#CCCCCC" stroke-miterlimit="10"/>
<path d="M9 12H16" stroke="#CCCCCC" stroke-miterlimit="10"/>
<path d="M6.5 10.5H3.5V13.5H6.5V10.5Z" stroke="#CCCCCC" stroke-miterlimit="10"/>
<path d="M6.5 16.5H3.5V19.5H6.5V16.5Z" stroke="#CCCCCC" stroke-miterlimit="10"/>
</svg>
