<svg width="28" height="28" viewBox="0 0 28 28" fill="none" xmlns="http://www.w3.org/2000/svg">
<path d="M11.9562 6.34597C11.8589 6.05753 11.7617 5.76908 11.7617 5.38448C11.7617 3.74994 13.0256 2.5 14.6784 2.5C16.3311 2.5 17.595 3.74994 17.595 5.38448C17.595 5.76908 17.4978 6.05753 17.4006 6.34597" stroke="white" stroke-miterlimit="10"/>
<path d="M6.90039 13.5572C6.90039 9.32661 10.4004 5.86523 14.6781 5.86523C18.9559 5.86523 22.4559 9.32661 22.4559 13.5572" stroke="white" stroke-miterlimit="10"/>
<path d="M6.90146 13.0781V17.8856C6.90146 19.0394 6.22091 20.097 5.15147 20.6739L4.95703 20.7701V21.7316H14.6792" stroke="white" stroke-miterlimit="10"/>
<path d="M10.791 21.7305C10.791 23.8458 12.541 25.5764 14.6799 25.5764C16.8188 25.5764 18.5688 23.8458 18.5688 21.7305" stroke="white" stroke-miterlimit="10"/>
<path d="M22.4555 13.0781V17.8856C22.4555 19.0394 23.136 20.097 24.2055 20.6739L24.3999 20.7701V21.7316H14.6777" stroke="white" stroke-miterlimit="10"/>
</svg>
