<svg width="29" height="28" viewBox="0 0 29 28" fill="none" xmlns="http://www.w3.org/2000/svg">
<g clip-path="url(#clip0_1639_1755)">
<path fill-rule="evenodd" clip-rule="evenodd" d="M5.66296 4.24481C5.66296 3.53636 6.23643 2.96289 6.94488 2.96289H12.2528C12.9613 2.96289 13.5347 3.53636 13.5347 4.24481V4.51215H26.8695C27.5779 4.51215 28.1514 5.08562 28.1514 5.79407V19.1755C28.1514 19.884 27.5779 20.4575 26.8695 20.4575H23.0862V19.5301H26.8695C27.0657 19.5301 27.224 19.3718 27.224 19.1755V5.79407C27.224 5.5978 27.0657 5.43954 26.8695 5.43954H12.6073V4.24481C12.6073 4.04854 12.4491 3.89028 12.2528 3.89028H6.94488C6.74861 3.89028 6.59035 4.04854 6.59035 4.24481V8.4274H5.66296V4.24481Z" fill="#C4C4C4"/>
<path fill-rule="evenodd" clip-rule="evenodd" d="M7.94174 10.505V8.95571H2.85213V23.6681H22.5584V10.505H7.94174ZM8.86913 8.84654V9.57758H22.6676C23.1199 9.57758 23.4858 9.94345 23.4858 10.3958V23.7773C23.4858 24.2296 23.1199 24.5955 22.6676 24.5955H2.74297C2.29061 24.5955 1.92474 24.2296 1.92474 23.7773V8.84654C1.92474 8.39418 2.29061 8.02832 2.74297 8.02832H8.05091C8.50327 8.02832 8.86913 8.39418 8.86913 8.84654Z" fill="#C4C4C4"/>
</g>
<defs>
<clipPath id="clip0_1639_1755">
<rect width="28" height="28" fill="white" transform="translate(0.5)"/>
</clipPath>
</defs>
</svg>
