<svg width="40" height="41" viewBox="0 0 40 41" fill="none" xmlns="http://www.w3.org/2000/svg">
<path d="M13.7356 31.8236C13.9566 31.176 13.9566 31.176 14.3985 30.6903L14.5642 30.5283C15.0614 30.0426 15.2824 29.341 15.0614 28.6394V28.5315C14.9509 28.2616 14.8957 28.0458 14.8957 27.9378C14.8957 27.7759 14.9509 27.56 15.0614 27.2902V27.1822C15.2824 26.4806 15.0614 25.779 14.5642 25.2933L14.4538 25.1854C13.9566 24.6457 13.9566 24.6457 13.7356 23.998L13.6804 23.7822C13.5147 23.1345 13.0175 22.5948 12.3546 22.4329L12.1337 22.3789C11.4708 22.217 11.4708 22.217 10.9736 21.7313L10.8079 21.5694C10.3108 21.0837 9.59263 20.8678 8.92975 21.0837L8.76403 21.1377C8.04591 21.2996 8.04591 21.2996 7.38303 21.1377L7.21731 21.0837C6.55443 20.8678 5.8363 21.0837 5.33914 21.5694L5.17342 21.7313C4.67626 22.217 4.67626 22.217 4.01338 22.3789L3.84766 22.4329C3.12954 22.5948 2.63237 23.1345 2.46665 23.7822L2.41141 23.998C2.19045 24.6457 2.19045 24.6457 1.74853 25.1314L1.58281 25.2933C1.08565 25.779 0.86469 26.4806 1.08565 27.1822V27.2902C1.19613 27.614 1.25137 27.7759 1.25137 27.8838C1.25137 28.0458 1.19613 28.2077 1.08565 28.5315V28.6394C0.86469 29.341 1.08565 30.0426 1.58281 30.5283L1.69329 30.6363C2.19045 31.176 2.19045 31.176 2.41141 31.8236L2.46665 32.0395C2.63237 32.6871 3.12954 33.2268 3.84766 33.3887L4.01338 33.4427C4.28958 33.4967 4.40006 33.5506 4.56578 33.6046V39.5413C4.56578 39.7032 4.62102 39.8651 4.7315 39.919C4.84198 39.973 4.89722 39.973 5.0077 39.973C5.06294 39.973 5.11818 39.973 5.17342 39.919L8.10115 38.3539L10.9736 39.919C11.0841 40.027 11.2498 40.027 11.4156 39.919C11.526 39.8651 11.5813 39.7032 11.5813 39.5413L11.6365 33.6046C11.747 33.5506 11.8575 33.4967 12.1337 33.4427L12.3546 33.3887C13.0175 33.2268 13.5147 32.6871 13.6804 32.0395L13.7356 31.8236ZM10.6974 38.8397L8.26687 37.4904C8.10115 37.3825 7.93543 37.3825 7.82495 37.4904L5.39438 38.8397V34.3062C5.8363 34.738 6.55443 34.8999 7.16207 34.738L7.38303 34.684C8.04591 34.5221 8.04591 34.5221 8.70879 34.684L8.87451 34.738C9.04023 34.7919 9.20595 34.8459 9.37167 34.8459C9.86883 34.8459 10.3108 34.63 10.6974 34.3062V38.8397ZM12.907 31.6077L12.8518 31.8236C12.7413 32.1474 12.4651 32.4713 12.0784 32.5792L11.9127 32.6332C11.0289 32.849 10.9736 32.903 10.366 33.4967L10.2003 33.6586C9.92407 33.9284 9.53739 34.0364 9.15071 33.9284L8.98499 33.8745C8.54307 33.7665 8.32211 33.7126 8.10115 33.7126C7.82495 33.7126 7.60399 33.7665 7.16207 33.8745L6.99635 33.9284C6.60967 34.0364 6.22298 33.9284 5.94678 33.6586L5.8363 33.4967C5.17342 32.903 5.11818 32.849 4.23434 32.6332L4.06862 32.5792C3.68194 32.4713 3.40574 32.1474 3.29526 31.7696L3.24002 31.6077C3.01906 30.7442 2.96382 30.6903 2.35617 30.0426L2.19045 29.9347C1.91425 29.6648 1.80377 29.2331 1.91425 28.8553L1.96949 28.7474C2.07997 28.3696 2.13521 28.1537 2.13521 27.8838C2.13521 27.668 2.07997 27.4521 1.96949 27.0743L1.91425 26.9664C1.80377 26.5886 1.91425 26.1568 2.19045 25.887L2.35617 25.779C2.96382 25.1314 3.01906 25.0774 3.24002 24.2139L3.29526 23.998C3.40574 23.6742 3.68194 23.3504 4.06862 23.2425L4.23434 23.1885C5.11818 22.9726 5.17342 22.9186 5.78106 22.325L5.94678 22.1631C6.22298 21.8932 6.60967 21.7853 6.99635 21.8932L7.16207 21.9472C8.04591 22.1631 8.10115 22.1631 8.98499 21.9472L9.15071 21.8932C9.53739 21.7853 9.92407 21.8932 10.2003 22.1631L10.366 22.325C10.9736 22.9186 11.0289 22.9726 11.9127 23.1885L12.0784 23.2425C12.4651 23.3504 12.7413 23.6742 12.8518 23.998L12.907 24.2139C13.128 25.0774 13.1832 25.1314 13.7909 25.779L13.9566 25.887C14.2328 26.1568 14.3433 26.5886 14.2328 26.9664L14.1776 27.0743C14.0671 27.4521 14.0118 27.668 14.0118 27.8838C14.0118 28.1537 14.0671 28.3696 14.1776 28.7474L14.2328 28.8553C14.3433 29.2331 14.2328 29.6648 13.9566 29.9347L13.7909 30.0426C13.1832 30.6903 13.128 30.7442 12.907 31.6077Z" fill="#969696" stroke="#969696" stroke-width="0.75"/>
<path d="M7.53125 17.2195V1H38.0018V36H16.2371" stroke="#969696" stroke-width="2"/>
<line x1="12.9688" y1="8" x2="32.557" y2="8" stroke="#969696" stroke-width="2"/>
<line x1="12.9688" y1="15" x2="32.557" y2="15" stroke="#969696" stroke-width="2"/>
<path fill-rule="evenodd" clip-rule="evenodd" d="M33 23L17.2143 23L16 21L33 21L33 23Z" fill="#969696"/>
<path fill-rule="evenodd" clip-rule="evenodd" d="M33 30H21.0833L20 28H33V30Z" fill="#969696"/>
</svg>
