<svg width="41" height="39" viewBox="0 0 41 39" fill="none" xmlns="http://www.w3.org/2000/svg">
<path d="M39.7069 31.7981C39.6475 31.9962 39.5361 32.2932 39.437 32.5408C39.3046 32.8074 39.1462 33.0604 38.9642 33.2959C38.9311 33.3263 38.8919 33.3491 38.8491 33.3628C38.8064 33.3765 38.7611 33.3807 38.7166 33.3751C38.1373 33.1127 37.1222 32.3329 36.377 31.7585C36.1493 31.5852 35.9463 31.4292 35.7928 31.3153C35.2803 30.939 34.5549 30.4142 33.8642 29.9141L32.5223 28.9436C31.6632 28.3172 29.4277 26.7154 28.5067 26.0643C27.452 25.3216 24.6223 23.242 24.5876 23.2197L21.5722 21.1104L21.4632 21.202L21.3543 21.2936C21.1785 21.4248 20.9285 21.6228 20.6933 21.8135C20.4826 21.9463 20.2838 22.097 20.0991 22.2641C19.8617 22.4732 19.6085 22.6636 19.3415 22.8335C19.1459 22.9523 18.8711 23.1628 18.5988 23.3682C18.4602 23.4722 18.3265 23.5737 18.2101 23.6579L17.9799 23.8213C17.8511 23.9079 17.6976 24.0169 17.5219 24.1431L16.9772 24.5368C16.6207 24.7844 16.2716 25.0641 15.9275 25.3315L15.7864 25.4379C15.3259 25.792 14.7961 26.2054 14.1128 26.8367C13.6176 27.2972 12.5308 28.4237 12.4837 28.4732L12.3575 28.6044L12.4912 28.7307C12.4912 28.7307 13.0928 29.2927 13.5656 29.7408L14.9917 31.0851C15.67 31.7387 16.9722 32.9939 17.0317 33.0657C17.97 34.0015 17.8759 34.2466 17.7744 34.5066C17.7521 34.561 17.7224 34.6254 17.6927 34.6873C17.6181 34.8321 17.5354 34.9726 17.4451 35.1082C17.3807 35.1998 17.3065 35.3013 17.252 35.3557L17.2149 35.3978L15.9968 34.4075C15.9721 34.3877 13.5483 32.3824 12.9418 31.86L12.7734 31.7139C12.1047 31.0996 11.4039 30.5212 10.674 29.9809C12.2733 28.0523 12.2758 28.0498 12.8625 27.3245C13.7464 26.1906 14.6154 25.0493 15.4571 23.8956C15.4843 23.8362 15.5165 23.7891 15.4571 23.7445C15.3853 23.7445 15.3853 23.7569 15.3358 23.7965C15.2863 23.8362 15.2863 23.8931 8.5003 32.1001C7.83928 32.8057 7.29957 33.3677 6.87622 33.7985C7.18816 33.3355 7.54714 32.8082 7.90612 32.2858C8.22549 31.8575 8.51515 31.4688 8.71074 31.199C8.90632 30.9291 9.16875 30.5305 9.43117 30.1418C9.53763 30.0007 9.63418 29.8769 9.71588 29.7754C9.75261 29.7309 9.77581 29.6768 9.78273 29.6195L9.90404 29.4437C9.77778 29.3372 9.71341 29.2704 9.65646 29.2283C8.64389 28.3692 7.52238 27.4235 6.40335 26.4802C5.47991 25.7053 4.46733 24.918 3.61568 24.2001C3.87799 23.9135 4.18275 23.6688 4.51932 23.4747H4.57626C4.82291 23.5077 5.05991 23.592 5.27195 23.7223C5.61112 23.9178 6.59399 24.6036 6.60636 24.6135L8.95336 26.1856C8.95336 26.1856 9.69608 26.6808 10.3546 27.1536C10.6938 27.3665 11.2409 27.7552 11.2459 27.7602L11.3969 27.8666L11.5009 27.7131C11.5009 27.6958 12.7685 25.8539 13.1943 25.1829C13.531 24.6507 14.2688 23.2147 14.5015 22.7518C14.8035 22.1551 15.3581 21.0188 15.6106 20.4989C15.9894 19.7091 17.0143 17.5478 17.0143 17.5478L17.0713 17.4265L15.9498 16.4362C2.19214 3.27521 2.18718 3.27026 2.05845 3.13904C1.88019 2.94841 1.69451 2.70084 1.83068 2.50278C2.07421 2.20488 2.36941 1.95329 2.70214 1.76006C2.87296 1.67093 3.07845 1.56943 3.24432 1.49763C3.54245 1.35376 3.85324 1.23773 4.17272 1.15103C4.44354 1.11935 4.71799 1.14509 4.9782 1.22657C5.2384 1.30804 5.47853 1.44342 5.68292 1.6239L5.71758 1.65113C6.83661 2.47307 11.2731 5.89701 11.8673 6.35502L14.8555 8.73667C17.6085 10.9203 19.7203 12.6137 19.8119 12.678C20.1387 12.9132 20.3714 12.9726 20.5546 12.8761C20.8892 12.646 21.1922 12.373 21.4558 12.0641C21.4558 12.0641 22.5154 10.9723 22.8298 10.6801L23.0873 10.4251C23.3943 10.1355 23.7756 9.774 24.0231 9.56356C24.4019 9.24172 25.0877 8.69953 25.365 8.48167C25.6423 8.2638 26.1077 7.95434 26.5261 7.66715L27.0658 7.29332C27.4372 7.03337 28.2096 6.5506 28.6057 6.32531C28.9548 6.13468 29.5366 5.83016 29.9302 5.63705C30.2063 5.4831 30.5116 5.38865 30.8264 5.35977H30.8735C31.0146 5.37215 31.0616 5.37463 31.0913 5.51822C31.106 5.83237 31.0692 6.14682 30.9824 6.44909C30.8809 6.83283 30.6036 7.68696 30.4551 8.08803C30.2397 8.67973 29.9129 9.53385 29.5935 10.2295C29.5465 10.3286 29.5019 10.435 29.4524 10.5464L29.2964 10.8955C29.0068 11.4773 28.7023 12.0467 28.3779 12.6112C28.0536 13.1757 27.7367 13.6312 27.4693 14.0323C27.041 14.6636 26.1003 15.9262 26.0928 15.9361C25.813 16.2908 25.5535 16.6611 25.3155 17.0452C25.2016 17.2755 25.4541 17.5676 25.4665 17.58C26.6697 18.9243 29.0761 20.895 31.0072 22.4795C31.792 23.1207 32.5322 23.7173 33.0893 24.2125L33.6017 24.663C33.8815 24.9106 34.1811 25.1755 34.3445 25.3191C34.7629 25.6756 35.4858 26.2351 36.1245 26.7303C36.4191 26.958 36.689 27.166 36.887 27.3245L37.0257 27.4334C37.7142 27.9537 38.3714 28.5142 38.9939 29.1119C39.0434 29.1664 39.1028 29.2233 39.1647 29.2852C39.4791 29.5996 39.9074 30.028 39.9074 30.6494C39.8754 31.0401 39.804 31.4266 39.6945 31.8031L39.7069 31.7981ZM31.9999 30.0205C31.6266 30.8193 31.1981 31.5911 30.7175 32.3304C29.9771 33.3634 29.1105 34.2999 28.1378 35.1181C27.8902 35.3013 27.6575 35.4894 27.4099 35.6701C26.1887 36.5122 24.8463 37.1634 23.429 37.6012C22.3315 37.9099 21.203 38.0951 20.0644 38.1533L9.75549 38.5346H9.30739C8.59303 38.4852 7.90684 38.2365 7.3268 37.8166C6.96315 37.5361 6.65216 37.1932 6.40831 36.804C6.12443 36.3389 5.94847 35.8161 5.89335 35.274C6.07408 35.1106 7.30947 33.9545 10.0377 30.9737C13.4716 33.6227 14.2663 34.2268 15.8805 35.4795C16.0835 35.638 16.7965 36.2569 16.9252 36.2717C17.1728 36.3015 17.2891 36.0242 17.3634 35.8954L17.611 35.5018C17.658 35.4424 17.71 35.3731 17.7571 35.3062C17.8547 35.1536 17.944 34.9957 18.0244 34.8333C18.0566 34.7616 18.0888 34.6898 18.1136 34.6254C18.277 34.202 18.3141 33.8232 17.2891 32.7983C17.2099 32.7191 15.3234 30.8994 15.2417 30.8177L13.8157 29.4709L12.8749 28.5846C13.1794 28.2677 13.9618 27.4606 14.3604 27.0992C15.0412 26.4778 15.5561 26.0693 16.0117 25.7202C16.4672 25.3711 17.3931 24.6828 17.9774 24.2719L18.1854 24.1431C18.8786 23.7545 19.5594 23.2989 20.317 23.0513C21.1141 22.8508 21.5548 22.9523 22.2753 23.3435C31.2399 29.3199 31.2399 29.3199 32.0643 29.8769L31.9999 30.0205ZM5.96267 29.8472C5.96267 29.1342 6.00229 28.4063 6.02209 27.6909V27.4161L6.85394 28.1811L5.96267 29.8472ZM7.21292 28.5103C7.94078 29.1788 8.56714 29.7482 8.88651 30.0676C8.46564 30.7558 7.89622 31.6545 7.29957 32.5433C7.00496 32.9716 6.72272 33.3925 6.47267 33.7614C6.25729 34.0733 6.0518 34.3679 5.86612 34.6254C5.86612 34.5264 5.92306 32.0828 5.9503 30.7335C6.15578 30.377 6.77719 29.2481 7.21292 28.5227V28.5103ZM5.9602 20.7242C5.98743 17.4067 6.20777 13.8193 7.44564 10.6479C7.5001 10.5093 7.60904 10.2073 7.72292 9.95721L9.80253 12.0888C9.17617 13.7624 8.6018 15.4608 8.13389 17.1492C7.63874 18.9392 6.47515 22.0611 6.02457 22.9498C5.95671 22.2092 5.93521 21.465 5.9602 20.7217V20.7242ZM11.0008 21.6823C11.7856 19.9096 12.7511 17.7855 13.6498 16.0277C13.7662 16.1441 13.8776 16.2604 13.9964 16.3817C14.1846 16.5748 14.7391 17.1764 14.9372 17.4314L15.0189 17.5404C15.0767 17.6324 15.128 17.7283 15.1724 17.8276C15.2071 17.9266 15.2044 18.0349 15.165 18.1321C14.1747 20.692 13.1274 23.2519 11.7905 25.6806C11.5009 26.1757 11.491 26.1757 10.9414 27.0868C10.8151 27.0001 10.6938 26.9135 10.5725 26.8392C9.92384 26.3713 9.17617 25.8737 9.17122 25.8687L8.81719 25.6212C9.62381 24.3413 10.361 23.019 11.0255 21.66L11.0008 21.6823ZM10.9513 13.2153C11.4464 13.7327 12.0233 14.3145 12.667 14.973C11.8401 17.1393 10.7656 19.1545 10.0204 21.3183C9.50792 22.6726 8.93355 23.9723 8.28739 25.2795L6.80195 24.2892C6.77966 24.2719 6.47267 24.059 6.1434 23.8361C6.71282 22.623 7.28719 21.4124 7.85661 20.1943C8.42603 18.9763 8.94593 17.8276 9.47574 16.6392C9.76787 15.9336 10.3596 14.4531 10.6517 13.7475C10.7458 13.5421 10.8473 13.3514 10.9265 13.2078L10.9513 13.2153ZM13.8281 3.93128C14.9589 3.39204 16.1252 2.93048 17.3188 2.54982C21.0003 1.48773 29.7495 1.64618 30.3437 1.62885C30.7745 1.61647 28.8582 2.26016 28.4398 2.31215C26.6672 2.46069 24.9292 2.68103 23.1938 2.99793C21.8297 3.28173 20.4851 3.65219 19.1682 4.10705C17.1432 4.83853 15.2539 5.90195 13.578 7.25371C12.7536 6.59516 12.1619 6.12477 12.0926 6.06783L11.3499 5.48851C12.1353 4.90741 12.9637 4.38683 13.8281 3.93128ZM31.131 1.82443C31.2171 1.82372 31.3021 1.84412 31.3785 1.88385C31.5543 1.95564 31.6682 1.9804 31.5939 2.02992C30.9979 2.45726 30.3678 2.83485 29.7099 3.15885C28.5488 3.68618 27.5436 4.21846 26.281 4.56011C24.3148 5.16365 22.4086 5.94766 20.5868 6.90215C20.265 7.09031 19.9431 7.27104 19.6213 7.45424C18.5694 8.11102 17.5872 8.87336 16.69 9.72944L15.0833 8.44453L14.7688 8.19696L15.5759 7.54832C16.3484 7.00366 17.1257 6.50356 17.9502 6.0307C19.3821 5.26918 20.8722 4.62263 22.4065 4.09715C23.3695 3.79264 24.3252 3.51288 25.3155 3.27273C26.5137 3.02516 28.0883 2.9806 29.2494 2.5721C29.898 2.3072 30.4873 2.03734 31.1384 1.82938L31.131 1.82443ZM32.3366 2.39385C32.3366 2.39385 32.4802 2.47307 32.4728 2.48545C32.0822 3.25217 31.5185 3.91752 30.8264 4.4289C29.7445 5.1023 28.5463 5.5504 27.3852 6.08269C26.5211 6.51099 25.6918 6.9591 24.8698 7.45424C23.7174 8.18052 22.6088 8.97413 21.5499 9.83094C20.7948 10.487 20.0644 11.1654 19.3811 11.8784L17.6679 10.5142C18.5691 9.74924 19.2994 9.13774 20.2774 8.44453C21.7462 7.46118 23.2815 6.581 24.8723 5.81036L26.0854 5.26074C27.0757 4.85225 28.0809 4.46851 29.0563 4.02288C30.1134 3.47822 31.178 2.78501 32.0767 2.28987C32.1361 2.25521 32.2203 2.34681 32.3243 2.40623L32.3366 2.39385ZM32.9679 2.96574C33.0012 2.99089 33.0304 3.02094 33.0546 3.05487C33.5293 3.62946 33.8078 4.34082 33.8493 5.08497V5.72123C33.6281 11.7604 33.4045 17.7921 33.1784 23.8163C32.6362 23.3534 31.9405 22.7914 31.2275 22.1972C29.3039 20.6227 26.9123 18.6619 25.7264 17.3374C25.6896 17.292 25.6603 17.241 25.6398 17.1863C25.7611 16.9685 26.2043 16.3793 26.3825 16.1614C26.3825 16.149 27.3381 14.879 27.7689 14.2402L27.8506 14.1214L27.9199 14.0174L28.1526 13.6609C28.1749 13.6262 28.1972 13.5941 28.217 13.5594C28.4076 13.2648 28.6131 12.938 28.836 12.5691C29.1906 11.9666 29.5033 11.3404 29.7718 10.695L29.9104 10.3855C30.2347 9.67745 30.564 8.81589 30.7844 8.21677C30.9378 7.80084 31.2151 6.94672 31.3216 6.54565C31.4196 6.19978 31.4589 5.83995 31.4379 5.48108C31.4602 5.2954 31.4701 5.08992 31.5048 4.90424C31.5447 4.70242 31.6293 4.51209 31.7524 4.3472C32.1485 3.88671 32.5619 3.40147 32.958 2.94841L32.9679 2.96574ZM39.4271 29.0228C39.3677 28.9659 39.3132 28.9114 39.2662 28.8619C38.6303 28.2503 37.9591 27.6766 37.2559 27.1437L37.1173 27.0348L36.3523 26.4381C35.716 25.943 34.998 25.3884 34.5821 25.0369L34.3345 24.824V5.22608L34.3147 4.91662C34.2512 4.3366 34.0665 3.77641 33.7726 3.27231C33.4788 2.76821 33.0823 2.33145 32.609 1.9903C31.9733 1.54796 31.23 1.28538 30.4576 1.23025H18.0096C17.7892 1.23025 17.5689 1.25254 17.3486 1.26491C15.8769 1.39713 14.4329 1.74584 13.0631 2.29977C12.8551 2.3889 12.6546 2.4805 12.4516 2.5721C11.4994 3.04179 10.6067 3.62359 9.79263 4.30511C8.30719 3.17123 6.57418 1.82938 5.93297 1.36394L5.90821 1.34661C5.6657 1.13349 5.38083 0.974115 5.07233 0.878961C4.76383 0.783807 4.43867 0.755031 4.11825 0.794526C3.76825 0.886346 3.4276 1.01067 3.10073 1.16589C2.86554 1.26491 2.53874 1.43079 2.34316 1.5422C1.72087 1.82847 1.15294 2.22049 0.66461 2.70084C0.521018 2.88157 0.516066 2.92861 0.694319 3.0722C1.0089 3.2559 1.31154 3.45931 1.60044 3.68123C2.78631 4.81016 3.90534 6.01337 5.04913 7.17448C5.04913 7.17448 5.04913 7.19429 5.08131 7.21657L6.40088 8.5708L6.34889 8.69953C6.01226 9.66121 5.77176 10.6539 5.63093 11.663C5.57398 12.1878 5.52695 12.7201 5.48981 13.245C5.3685 16.6169 5.41059 19.9988 5.40563 23.3757C5.24224 23.2915 4.75452 23.0637 4.44753 23.1281C4.14054 23.1925 3.39039 23.9129 3.17748 24.1184L3.03884 24.2595L3.06112 24.2768C2.93733 24.3981 2.90762 24.4798 2.91257 24.5566C2.91753 24.6333 3.0017 24.6729 3.19976 24.8264C3.50675 25.074 4.38316 25.8984 5.39326 26.8244V26.9531C5.39326 27.7528 5.39326 32.6671 5.40811 35.1577C5.42049 35.2864 5.4403 35.4052 5.45267 35.5389C5.5766 36.2353 5.86615 36.8917 6.2969 37.4527C6.33545 37.4997 6.37679 37.5443 6.42068 37.5864C6.7906 38.0109 7.24344 38.3553 7.75136 38.5984C8.25928 38.8415 8.81155 38.9782 9.37423 39C22.8274 39 22.8274 39 23.1467 38.9876C23.7918 38.9385 24.4339 38.8558 25.0704 38.74C26.5511 38.3965 27.9576 37.7885 29.2222 36.9451L29.7916 36.5292C30.5823 35.8777 31.3033 35.1459 31.943 34.3456C32.2426 33.9297 32.2426 33.9297 32.5347 33.489C32.9881 32.7319 33.371 31.9346 33.6785 31.1074L33.7206 30.9663L33.7651 30.9935C35.1194 31.8996 36.5082 32.781 37.8377 33.7341C38.1081 33.9786 38.3635 34.239 38.6027 34.514C38.776 34.6625 38.8231 34.6501 38.9716 34.4744C39.5079 33.6632 39.8851 32.7575 40.0832 31.8055C40.1897 31.4264 40.2569 31.0373 40.2837 30.6444C40.2837 29.872 39.7663 29.3645 39.4271 29.0253" fill="black"/>
<path d="M17.4353 22.5526C16.9575 22.4214 16.4252 21.9782 16.3485 21.4732C16.3237 20.9508 16.8708 19.8441 17.3932 19.6386C17.871 19.453 18.6311 20.1115 18.9678 20.4779C19.3936 20.9409 19.4233 21.186 19.0173 21.6415C18.6608 22.0426 18.1409 22.6318 17.5319 22.5749C17.4977 22.5692 17.4638 22.5617 17.4304 22.5526H17.4353ZM20.5374 21.2404C20.426 21.2404 20.4879 21.1043 20.5498 21.0201C21.0742 20.3048 21.6771 19.6504 22.3472 19.0692C22.6244 18.8217 22.8423 18.9826 23.1543 18.8613C23.1864 18.8613 23.2285 18.8118 23.2731 18.8167C23.2667 18.8646 23.2418 18.9081 23.2038 18.938C22.4115 19.7179 21.805 20.4235 20.9756 21.0399C20.8432 21.1513 20.6817 21.2226 20.5102 21.2454L20.5374 21.2404ZM19.6164 15.2913C19.2079 15.0957 19.5149 14.7218 19.6585 14.5238C20.244 13.7497 20.8687 13.006 21.5302 12.2956C21.55 12.2758 21.5772 12.2535 21.5797 12.2783C21.5659 12.3718 21.5435 12.4638 21.5128 12.5531C21.4361 12.9269 21.7035 13.1498 21.4435 13.484C20.9484 14.1054 20.478 14.6377 19.9432 15.2021C19.9183 15.2372 19.8852 15.2657 19.8468 15.2851C19.8084 15.3045 19.7659 15.3143 19.7229 15.3135C19.6868 15.3072 19.6512 15.2981 19.6164 15.2863V15.2913ZM25.5037 15.3135C25.0952 15.264 25.063 15.2715 25.0086 14.8654C24.761 13.9395 23.6717 13.0111 22.669 12.8997C22.1739 12.8997 22.1937 12.7908 22.1219 12.36C22.0055 11.6594 22.2234 11.5381 22.7507 11.0404C23.6964 10.2457 24.6595 10.0898 25.7785 10.6864C25.8776 10.7557 25.984 10.8176 26.0855 10.8845C27.1228 11.7188 27.5462 12.7635 27.061 14.0088C26.8791 14.4133 26.6398 14.7894 26.3504 15.1254C26.0955 15.2775 25.7997 15.3467 25.5037 15.3234" fill="black"/>
<path d="M17.1691 18.4351C17.1602 18.2617 17.2024 18.0895 17.2905 17.9399C17.7559 17.0239 18.3451 16.3059 18.9764 15.3874C18.9989 15.3465 19.0361 15.3156 19.0804 15.3008C19.0953 15.3429 19.0656 15.3924 19.0581 15.4246C18.9938 15.7538 19.1844 15.9395 18.9938 16.2564C18.5391 17.017 18.001 17.7245 17.3895 18.3657C17.3177 18.44 17.1914 18.5242 17.1766 18.4152L17.1691 18.4351Z" fill="black"/>
<path d="M23.1738 18.1479C23.1612 18.1045 23.1608 18.0585 23.1726 18.0148C23.1844 17.9712 23.2079 17.9316 23.2406 17.9004C23.7011 17.274 24.1368 16.7046 24.6617 16.1178C24.9464 15.8009 25.2113 16.0238 25.5678 15.8703C25.6468 15.8245 25.7297 15.7856 25.8154 15.7539C25.8401 15.7539 25.8154 15.7836 25.8154 15.8059C25.2378 16.584 24.6205 17.3319 23.966 18.0464C23.7976 18.2197 23.4708 18.5911 23.2233 18.2247C23.2052 18.1932 23.1903 18.16 23.1787 18.1257" fill="black"/>
</svg>
