<svg width="28" height="28" viewBox="0 0 28 28" fill="none" xmlns="http://www.w3.org/2000/svg">
<path d="M13.9991 1.55469C11.5379 1.55469 9.13185 2.28454 7.08537 3.65195C5.0389 5.01937 3.44386 6.96292 2.50197 9.23685C1.56008 11.5108 1.31364 14.0129 1.79381 16.4269C2.27398 18.8409 3.4592 21.0583 5.19959 22.7987C6.93997 24.5391 9.15736 25.7243 11.5713 26.2045C13.9853 26.6846 16.4875 26.4382 18.7614 25.4963C21.0353 24.5544 22.9789 22.9594 24.3463 20.9129C25.7137 18.8664 26.4436 16.4604 26.4436 13.9991C26.4436 10.6987 25.1325 7.53337 22.7987 5.19958C20.4649 2.8658 17.2996 1.55469 13.9991 1.55469ZM13.9991 24.888C11.8455 24.888 9.74026 24.2494 7.9496 23.0529C6.15893 21.8564 4.76327 20.1558 3.93912 18.1661C3.11496 16.1764 2.89933 13.9871 3.31948 11.8748C3.73963 9.76258 4.77669 7.82236 6.29953 6.29952C7.82237 4.77669 9.76258 3.73962 11.8748 3.31947C13.9871 2.89932 16.1765 3.11496 18.1661 3.93911C20.1558 4.76326 21.8564 6.15892 23.0529 7.94959C24.2494 9.74026 24.888 11.8455 24.888 13.9991C24.888 16.887 23.7408 19.6567 21.6987 21.6987C19.6567 23.7408 16.8871 24.888 13.9991 24.888Z" fill="white"/>
<path d="M14.2251 6.93828C13.3823 6.92435 12.5467 7.09623 11.7778 7.4417C11.0089 7.78717 10.3255 8.29776 9.77623 8.93717C9.69992 9.00789 9.63857 9.09321 9.59582 9.18806C9.55307 9.28291 9.52979 9.38538 9.52734 9.48939C9.52729 9.58536 9.54655 9.68035 9.58396 9.76872C9.62137 9.8571 9.67617 9.93704 9.74511 10.0038C9.81404 10.0706 9.8957 10.1228 9.98523 10.1573C10.0748 10.1919 10.1703 10.2081 10.2662 10.205C10.4717 10.1999 10.6682 10.1196 10.8185 9.9794C11.2341 9.49226 11.7504 9.10096 12.3318 8.83243C12.9132 8.5639 13.5458 8.4245 14.1862 8.42384C16.0218 8.42384 17.1651 9.60606 17.1651 11.0761V11.115C17.1651 12.8338 15.7962 13.7905 13.634 13.9538C13.5465 13.9572 13.4606 13.9791 13.3821 14.0179C13.3035 14.0568 13.2341 14.1118 13.1783 14.1793C13.1225 14.2469 13.0816 14.3254 13.0583 14.4099C13.0349 14.4943 13.0297 14.5828 13.0429 14.6694C13.0429 14.6694 13.0429 16.4738 13.0429 16.8083C13.0622 17.0008 13.1527 17.1792 13.2965 17.3086C13.4403 17.4381 13.6272 17.5093 13.8207 17.5083H13.9062C14.0987 17.4889 14.2771 17.3985 14.4066 17.2547C14.536 17.1109 14.6072 16.924 14.6062 16.7305V15.1283C16.9396 14.8016 18.8296 13.5727 18.8296 11.0216V10.9827C18.8062 8.64939 16.9862 6.93828 14.2251 6.93828Z" fill="white"/>
<path d="M13.8296 21.3507C14.3666 21.3507 14.8019 20.9154 14.8019 20.3785C14.8019 19.8415 14.3666 19.4062 13.8296 19.4062C13.2927 19.4062 12.8574 19.8415 12.8574 20.3785C12.8574 20.9154 13.2927 21.3507 13.8296 21.3507Z" fill="white"/>
</svg>
