<?xml version="1.0" encoding="UTF-8"?><svg id="Layer_2" xmlns="http://www.w3.org/2000/svg" viewBox="0 0 37.23 31.51"><defs><style>.cls-1{fill:#c4c4c4;stroke-width:0px;}</style></defs><g id="Layer_1-2"><path class="cls-1" d="m23.15,10.01c-1.92,0-3.47-1.56-3.47-3.47s1.56-3.47,3.47-3.47,3.47,1.56,3.47,3.47-1.56,3.47-3.47,3.47Zm0-6.31c-1.56,0-2.83,1.27-2.83,2.83s1.27,2.83,2.83,2.83,2.83-1.27,2.83-2.83-1.27-2.83-2.83-2.83Z"/><path class="cls-1" d="m27.61,16.81c-.18,0-.32-.14-.32-.32,0-2.7-2.16-4.89-4.81-4.89-1.83,0-3.48,1.04-4.3,2.7-.08.16-.28.22-.43.15-.16-.08-.23-.27-.15-.43.93-1.89,2.8-3.06,4.88-3.06,3.01,0,5.45,2.48,5.45,5.53,0,.18-.14.32-.32.32Z"/><path class="cls-1" d="m32.44,10.01c-1.92,0-3.47-1.56-3.47-3.47s1.56-3.47,3.47-3.47,3.47,1.56,3.47,3.47-1.56,3.47-3.47,3.47Zm0-6.31c-1.56,0-2.83,1.27-2.83,2.83s1.27,2.83,2.83,2.83,2.83-1.27,2.83-2.83-1.27-2.83-2.83-2.83Z"/><path class="cls-1" d="m36.91,16.81c-.18,0-.32-.14-.32-.32,0-2.7-2.16-4.89-4.81-4.89-1.83,0-3.48,1.04-4.3,2.7-.08.16-.28.22-.43.15-.16-.08-.23-.27-.15-.43.93-1.89,2.8-3.06,4.88-3.06,3.01,0,5.45,2.48,5.45,5.53,0,.18-.14.32-.32.32Z"/><path class="cls-1" d="m10.54,15.98c.3,0,.58,0,.81.02.99.06,1.53.78,2.32,1.67.23.26,1.53,1.7,2.77,3.14.03.03.06.05.1.05,0,0,.02,0,.03,0,.13-.03.27-.06.41-.09,1.61-.35,2.93-.48,4-.48,1.57,0,2.59.27,3.11.48.82.33,2.68,1.51,2.95,1.67.02.01.04.02.07.02,2.45,0,5.15.81,6.43,1.25.32.11.35.55.06.71-.77.41-1.68.73-1.82.78-.01,0-.02.01-.04.02l-.54.4c-.41.31-1.54.61-2.09.75-.11.03-.14.18-.04.25.62.41,1.78,1.43,2.18,1.6.65.28,1.1.52,1.16,1.15.04.47-.49.84-.63.92-.02.01-.04.03-.05.05-.21.34-.49.47-.76.47-.36,0-.71-.22-.85-.45-.02-.03-.05-.06-.08-.07-.36-.09-1.18-.27-1.41-.36-.08-.03-.11-.12-.07-.19l.18-.34s.04-.05.07-.06l1.38-.39c.11-.04.12-.19.02-.25l-2.78-2.05s-.04-.02-.07-.02c0,0,0,0,0,0l-5.47.28c-.07,0-.12.06-.13.13l-.08,1.71c0,.06.04.12.09.14.18.05.54.21.64.6.16.68-.52.93-.68.98-.02,0-.04.02-.06.04-.25.28-.5.37-.71.37-.37,0-.65-.28-.73-.38-.02-.02-.04-.03-.06-.04l-1.25-.42c-.05-.02-.09-.07-.09-.13v-.38c0-.06.04-.11.1-.13l1.65-.49c.06-.02.1-.07.1-.13l.07-1.7c0-.07-.05-.13-.12-.14-1.36-.14-13.06-1.17-16.15-1.51-1.76-.19-2.28-1.11-2.62-2.22-.22-.71-1.1-3.71-1.21-4.55-.01-.08.06-.15.14-.15.21,0,.41,0,.58,0,1.48,0,1.7.21,2.34,1.28.35.58,1.52,2.27,2.23,2.8.39.28,1.1.36,1.93.36.71,0,1.51-.06,2.25-.09.42-.02.81-.04,1.23-.12.08-.02.13-.11.1-.19-.81-1.88-2.59-5.5-2.98-6.3-.04-.09.02-.19.12-.2.38-.02,1.22-.05,1.96-.05m0-.64c-.74,0-1.56.03-1.99.05-.26.01-.5.15-.63.38-.13.22-.15.5-.04.74l.31.63c.57,1.17,1.67,3.44,2.39,5.03-.16.01-.32.02-.49.03l-.6.03c-.55.03-1.11.06-1.62.06-1.07,0-1.43-.15-1.55-.24-.57-.42-1.66-1.94-2.06-2.61-.76-1.27-1.18-1.59-2.89-1.59-.18,0-.38,0-.6,0-.22,0-.44.1-.58.27-.14.17-.21.39-.18.6.13,1.01,1.22,4.62,1.24,4.65.38,1.25,1.03,2.44,3.16,2.67,2.08.23,7.87.75,12.1,1.14,1.57.14,2.87.26,3.58.33l-.03.86-1.31.39c-.33.09-.56.4-.56.75v.38c0,.33.21.63.53.74l1.13.38c.21.2.59.49,1.11.49.28,0,.69-.09,1.09-.49.65-.25,1.18-.85.99-1.7-.09-.39-.34-.7-.7-.91l.04-.9,4.82-.25,1.8,1.33-.38.11c-.22.08-.38.21-.47.39l-.18.34c-.11.2-.12.44-.04.65.08.21.25.37.46.45.19.07.57.16,1.1.29l.2.05c.3.34.79.57,1.26.57.5,0,.94-.24,1.24-.67.29-.19.91-.7.84-1.46-.1-1.07-.97-1.44-1.55-1.68-.16-.07-.7-.5-1.06-.78-.06-.04-.11-.09-.17-.13.61-.19,1.05-.39,1.31-.57l.47-.35c.29-.1,1.11-.41,1.84-.8.36-.19.57-.58.54-.99-.03-.41-.3-.76-.69-.89-1.38-.47-4.02-1.24-6.49-1.28-.63-.4-2.16-1.35-2.93-1.65-.49-.2-1.59-.52-3.35-.52-1.26,0-2.65.17-4.14.49l-.11.02c-.93-1.08-1.86-2.12-2.33-2.64l-.25-.28-.21-.24c-.71-.81-1.38-1.58-2.55-1.65-.24-.01-.54-.02-.85-.02h0Z"/><path class="cls-1" d="m6.02,10.26C3.11,10.26.75,7.9.75,4.99.75,2.74,2.19.75,4.33.02c.14-.05.29,0,.37.12.08.12.07.28-.02.39-.73.86-1.12,1.89-1.12,2.99,0,2.55,2.08,4.63,4.63,4.63.47,0,.96-.09,1.49-.27.14-.04.29,0,.37.12.08.12.07.28-.02.39-1.01,1.19-2.47,1.87-4,1.87ZM3.5,1.13c-1.29.84-2.1,2.28-2.1,3.86,0,2.55,2.08,4.63,4.63,4.63.95,0,1.88-.3,2.65-.85-.16.02-.33.03-.49.03-2.91,0-5.27-2.37-5.27-5.27,0-.84.2-1.65.59-2.39Z"/></g></svg>