<svg width="38" height="25" viewBox="0 0 38 25" fill="none" xmlns="http://www.w3.org/2000/svg">
<path fill-rule="evenodd" clip-rule="evenodd" d="M12.9993 10H18.1261C18.6029 10 19.1552 10.1631 19.5279 10.6956L26.3924 18.686H34.714C35.4605 18.686 36.1948 18.985 36.7708 19.5597L37.4767 20.2639C38.1963 20.9819 38.1383 22.0265 37.5195 22.7982L37.4994 22.8233L36.6531 23.6676C36.0771 24.2423 35.3429 24.5413 34.5964 24.5413H7.89098C6.58262 24.5413 5.39872 23.672 5.09386 22.3459L3 15.1646H6.43638L8.78928 18.686H18.0581L12.9993 10ZM15.0177 11.1602L20.0764 19.8462H8.16913L5.81624 16.3249H4.54682L6.2179 22.0561L6.22197 22.0744C6.39478 22.8503 7.08807 23.3811 7.89098 23.3811H34.5964C35.0263 23.3811 35.4685 23.2106 35.8337 22.8463L36.6325 22.0492C36.9345 21.6563 36.8745 21.3021 36.6572 21.0853L35.9513 20.381C35.5862 20.0167 35.144 19.8462 34.714 19.8462H25.8595L18.6044 11.4011L18.5849 11.3719C18.487 11.2254 18.3458 11.1602 18.1261 11.1602H15.0177Z" fill="#C4C4C4"/>
<mask id="path-2-inside-1_6612_18066" fill="white">
<path fill-rule="evenodd" clip-rule="evenodd" d="M29.6301 0.361844C28.9037 0.437701 28.1785 0.645114 27.4883 0.995054C24.4572 2.53167 23.2457 6.23452 24.7823 9.2656C26.3189 12.2967 30.0218 13.5082 33.0528 11.9716C33.7438 11.6213 34.3403 11.1584 34.8311 10.6165C32.3677 10.8738 29.8891 9.61817 28.7024 7.27737C27.5161 4.93729 27.9677 2.1968 29.6301 0.361844Z"/>
</mask>
<path d="M29.6301 0.361844L30.3712 1.03323L32.1264 -0.904267L29.5262 -0.632748L29.6301 0.361844ZM34.8311 10.6165L35.5722 11.2879L37.3275 9.35044L34.7273 9.62196L34.8311 10.6165ZM27.9404 1.88699C28.5201 1.59309 29.127 1.41981 29.7339 1.35644L29.5262 -0.632748C28.6803 -0.544413 27.8369 -0.302865 27.0361 0.103121L27.9404 1.88699ZM25.6742 8.81343C24.3873 6.27495 25.4019 3.17388 27.9404 1.88699L27.0361 0.103121C23.5124 1.88946 22.104 6.19409 23.8904 9.71777L25.6742 8.81343ZM32.6007 11.0796C30.0622 12.3665 26.9611 11.3519 25.6742 8.81343L23.8904 9.71777C25.6767 13.2414 29.9813 14.6498 33.505 12.8635L32.6007 11.0796ZM34.09 9.94516C33.6799 10.3979 33.181 10.7854 32.6007 11.0796L33.505 12.8635C34.3067 12.4571 35.0006 11.9189 35.5722 11.2879L34.09 9.94516ZM34.7273 9.62196C32.6624 9.83757 30.5875 8.78418 29.5943 6.82521L27.8105 7.72954C29.1907 10.4522 32.073 11.91 34.935 11.6111L34.7273 9.62196ZM29.5943 6.82521C28.6015 4.86683 28.9778 2.57129 30.3712 1.03323L28.889 -0.309545C26.9577 1.82232 26.4307 5.00775 27.8105 7.72954L29.5943 6.82521Z" fill="#C4C4C4" mask="url(#path-2-inside-1_6612_18066)"/>
<circle cx="17" cy="2" r="1" fill="#C4C4C4"/>
<circle cx="36" cy="5" r="1" fill="#C4C4C4"/>
<circle cx="8" cy="9" r="1" fill="#C4C4C4"/>
<circle cx="1" cy="2" r="1" fill="#C4C4C4"/>
</svg>
