<svg width="37" height="14" viewBox="0 0 37 14" fill="none" xmlns="http://www.w3.org/2000/svg">
<path d="M37 4L26 4" stroke="white" stroke-miterlimit="10"/>
<path d="M0 4L11 4" stroke="white" stroke-miterlimit="10"/>
<path d="M35 7L26 7" stroke="white" stroke-miterlimit="10"/>
<path d="M2 7L11 7" stroke="white" stroke-miterlimit="10"/>
<path d="M33 10L26 10" stroke="white" stroke-miterlimit="10"/>
<path d="M4 10L11 10" stroke="white" stroke-miterlimit="10"/>
<path d="M18.7562 5.91605L18.8873 6.35392H19.3444H20.1413L19.4682 6.8531L19.1155 7.11469L19.2491 7.53303L19.2696 7.59724L19.2705 7.6001L19.5055 8.34861L18.8716 7.86665L18.5 7.58411L18.1284 7.86665L17.4945 8.34864L17.7273 7.5976L17.7479 7.53303L17.8814 7.11499L17.5291 6.85335L16.8565 6.35392H17.6525H18.101L18.2374 5.92674L18.2863 5.77345L18.2864 5.77346L18.2879 5.76845L18.5 5.08422L18.7112 5.76561L18.7562 5.91605Z" fill="#969696" stroke="white" stroke-width="1.22792"/>
<circle cx="18.5" cy="7" r="6" stroke="white"/>
</svg>
