<svg xmlns="http://www.w3.org/2000/svg" width="31" height="26" viewBox="0 0 31 26" fill="none">
<g clip-path="url(#clip0_15796_30012)">
<path d="M29.7692 0.779019V25.0013H12.8984C6.21301 25.0013 0.775113 19.5755 0.775113 12.8902C0.775113 6.20481 6.21301 0.779019 12.8862 0.779019H29.7571M29.7571 0.00390625H12.8862C5.77701 0.00390625 0 5.78092 0 12.8902C0 19.9994 5.77701 25.7764 12.8862 25.7764H29.7571C30.1931 25.7764 30.5322 25.4252 30.5322 25.0013V0.779019C30.5322 0.355129 30.1809 0.00390625 29.7571 0.00390625Z" fill="#C4C4C4"/>
<path d="M22.4543 8.95285H9.36217C9.14417 8.95285 8.97461 8.78329 8.97461 8.56529C8.97461 8.34729 9.14417 8.17773 9.36217 8.17773H22.4664C22.6844 8.17773 22.854 8.34729 22.854 8.56529C22.854 8.78329 22.6844 8.95285 22.4664 8.95285H22.4543Z" fill="#C4C4C4"/>
<path d="M22.4543 17.6091H9.36217C9.14417 17.6091 8.97461 17.4395 8.97461 17.2215C8.97461 17.0035 9.14417 16.834 9.36217 16.834H22.4664C22.6844 16.834 22.854 17.0035 22.854 17.2215C22.854 17.4395 22.6844 17.6091 22.4664 17.6091H22.4543Z" fill="#C4C4C4"/>
<path d="M18.4209 13.2185H9.25279C9.03479 13.2185 8.86523 13.0489 8.86523 12.8309C8.86523 12.6129 9.03479 12.4434 9.25279 12.4434H18.4209C18.6389 12.4434 18.8085 12.6129 18.8085 12.8309C18.8085 13.0489 18.6389 13.2185 18.4209 13.2185Z" fill="#C4C4C4"/>
</g>
<defs>
<clipPath id="clip0_15796_30012">
<rect width="30.5443" height="25.7846" fill="white"/>
</clipPath>
</defs>
</svg>