<?xml version="1.0" encoding="UTF-8"?><svg id="Layer_2" xmlns="http://www.w3.org/2000/svg" viewBox="0 0 26.22 21.93"><defs><style>.cls-1{fill:#c4c4c4;stroke-width:0px;}</style></defs><g id="Layer_1-2"><path class="cls-1" d="m13.12,21.93c-.18,0-.32-.14-.32-.32V3.58c0-1.97,1.6-3.58,3.58-3.58h9.52c.18,0,.32.14.32.32v18.38c0,.2-.2.35-.38.32-.44-.03-5.87-.01-9.45,0-1.73,0-2.94,1.06-2.94,2.58,0,.18-.14.32-.32.32ZM16.38.64c-1.62,0-2.93,1.32-2.93,2.93v16.11c.63-.81,1.68-1.31,2.93-1.31,6.14-.03,8.36-.04,9.2,0V.64h-9.2Zm9.2,18.06h0,0Z"/><path class="cls-1" d="m13.09,21.93c-.18,0-.32-.14-.32-.32,0-1.52-1.21-2.58-2.93-2.58-3.59-.02-9.02-.03-9.46,0-.18.04-.38-.12-.38-.32V.32c0-.18.14-.32.32-.32h9.52c1.97,0,3.58,1.6,3.58,3.58v18.03c0,.18-.14.32-.32.32Zm-10.19-3.57c1.43,0,3.61,0,6.94.03,1.25,0,2.3.5,2.93,1.31V3.58c0-1.62-1.32-2.93-2.93-2.93H.64v17.74c.38-.02,1.05-.02,2.26-.02Z"/></g></svg>