<?xml version="1.0" encoding="UTF-8"?><svg id="Layer_2" xmlns="http://www.w3.org/2000/svg" viewBox="0 0 25.22 21.29"><defs><style>.cls-1{fill:#c4c4c4;stroke-width:0px;}</style></defs><g id="Layer_1-2"><path class="cls-1" d="m24.58.64v20h-13.93C5.13,20.64.64,16.16.64,10.64S5.13.64,10.64.64h13.93m0-.64h-13.93C4.77,0,0,4.77,0,10.64s4.77,10.64,10.64,10.64h13.93c.36,0,.64-.29.64-.64V.64c0-.35-.29-.64-.64-.64h0Z"/><path class="cls-1" d="m18.54,7.39H7.73c-.18,0-.32-.14-.32-.32s.14-.32.32-.32h10.82c.18,0,.32.14.32.32s-.14.32-.32.32Z"/><path class="cls-1" d="m18.54,14.54H7.73c-.18,0-.32-.14-.32-.32s.14-.32.32-.32h10.82c.18,0,.32.14.32.32s-.14.32-.32.32Z"/><path class="cls-1" d="m15.21,10.91h-7.57c-.18,0-.32-.14-.32-.32s.14-.32.32-.32h7.57c.18,0,.32.14.32.32s-.14.32-.32.32Z"/></g></svg>