<?xml version="1.0" encoding="UTF-8"?><svg id="Layer_2" xmlns="http://www.w3.org/2000/svg" viewBox="0 0 38.9 35.56"><defs><style>.cls-1{fill:#c4c4c4;stroke-width:0px;}</style></defs><g id="Layer_1-2"><path class="cls-1" d="m8.73,13.83c.65,0,1.15.42,1.83.92.22.16,1.48,1.05,2.68,1.96.02.01.04.02.06.02.01,0,.03,0,.04-.01.1-.05.2-.09.3-.14,2.22-1.03,3.82-1.27,4.78-1.27.3,0,.54.02.72.05.69.11,2.33.71,2.57.79.01,0,.02,0,.04,0,0,0,.01,0,.02,0,.92-.2,1.92-.26,2.83-.26.96,0,1.81.07,2.36.13.26.03.37.37.17.54-.53.45-1.18.85-1.28.92,0,0-.02.01-.02.02l-.35.4c-.27.31-1.09.74-1.49.93-.08.04-.08.16,0,.2.55.21,1.62.8,1.96.86.55.1.94.21,1.09.69.12.36-.24.73-.33.82-.01.01-.02.03-.03.04-.13.38-.4.51-.67.51-.23,0-.45-.1-.57-.22-.02-.02-.05-.04-.08-.04-.29,0-.96-.01-1.15-.04-.06,0-.11-.07-.09-.14l.08-.29s.02-.05.05-.06l1-.54c.08-.05.06-.17-.02-.19l-2.5-1.11s-.02,0-.03,0c0,0-.02,0-.03,0l-4.18,1.15c-.05.01-.08.07-.08.12l.23,1.34s.05.09.1.09c.15.01.46.07.59.35.24.5-.25.81-.36.88-.02,0-.03.02-.04.04-.19.33-.41.42-.61.42-.24,0-.44-.13-.5-.18-.02-.01-.03-.02-.05-.02l-1.04-.11s-.08-.04-.09-.08l-.07-.3s.01-.1.05-.12l1.2-.66s.06-.07.05-.11l-.24-1.33c0-.05-.05-.09-.1-.09,0,0,0,0-.01,0-1.08.12-10.31,1.32-12.76,1.59-.14.02-.28.02-.4.02-1.11,0-1.6-.57-2-1.29-.29-.51-1.49-2.69-1.71-3.31-.02-.06.02-.13.08-.14.59-.14.98-.22,1.28-.22.49,0,.73.21,1.2.71.37.39,1.56,1.5,2.21,1.79.14.06.32.09.53.09.73,0,1.79-.33,2.75-.6.32-.09.62-.17.93-.3.06-.03.08-.11.04-.16-.95-1.32-2.95-3.82-3.38-4.37-.05-.06-.02-.15.06-.17.41-.11,1.52-.4,2.14-.5.09-.01.17-.02.25-.02m0-.64c-.11,0-.23,0-.35.03-.65.1-1.76.39-2.21.51-.25.07-.44.25-.52.49-.08.24-.03.5.12.7l.34.44c.61.77,1.77,2.24,2.59,3.33-.06.02-.12.03-.19.05l-.46.13c-.79.22-1.6.45-2.13.45-.17,0-.25-.03-.27-.03-.47-.21-1.57-1.18-2-1.64-.52-.55-.92-.91-1.67-.91-.37,0-.79.09-1.43.24-.21.05-.39.19-.49.38-.1.19-.11.41-.04.61.28.77,1.74,3.38,1.76,3.4.45.8,1.11,1.62,2.56,1.62.15,0,.3,0,.47-.03,1.65-.18,6.42-.78,9.58-1.19,1.14-.15,2.1-.27,2.69-.34l.08.45-.86.48c-.29.15-.44.49-.37.82l.06.29c.07.31.33.55.65.58l.91.1c.16.1.43.22.75.22.26,0,.73-.09,1.1-.63.58-.4.78-1.04.49-1.64-.14-.29-.39-.51-.7-.63l-.09-.51,3.53-.97,1.33.59-.04.02c-.19.12-.3.27-.36.44l-.08.31c-.06.22-.02.44.1.62.12.18.31.3.52.32.17.02.49.03.92.04h.12c.24.16.54.26.85.26.56,0,1.01-.3,1.23-.82.33-.34.59-.86.41-1.4-.28-.88-1.1-1.03-1.59-1.12-.12-.03-.54-.23-.85-.37.34-.21.59-.4.73-.57l.29-.34c.21-.13.79-.51,1.28-.93.29-.25.4-.64.29-1-.11-.36-.43-.62-.8-.67-.57-.06-1.45-.14-2.43-.14-1.05,0-1.99.08-2.81.25-.56-.2-1.89-.66-2.54-.77-.25-.04-.52-.06-.83-.06-1,0-2.69.23-5.05,1.33h0c-.88-.65-1.74-1.27-2.17-1.58l-.26-.19-.2-.15c-.62-.46-1.21-.9-2.01-.9h0Z"/><path class="cls-1" d="m2.22,34.26c-.11,0-.22-.06-.28-.17-.09-.16-.03-.35.13-.44,15.7-8.66,31.94-6.53,32.1-6.51.18.02.3.19.27.36s-.2.29-.36.27c-.16-.02-16.2-2.12-31.71,6.43-.05.03-.1.04-.16.04Z"/><path class="cls-1" d="m36.39,30c-1.28,0-2.32-1.04-2.32-2.32s1.04-2.33,2.32-2.33,2.32,1.04,2.32,2.33-1.04,2.32-2.32,2.32Zm0-4.01c-.93,0-1.68.75-1.68,1.68s.75,1.68,1.68,1.68,1.68-.75,1.68-1.68-.75-1.68-1.68-1.68Z"/><circle class="cls-1" cx="1.54" cy="34.36" r="1.2"/><path class="cls-1" d="m24.82,6.95c-1.92,0-3.47-1.56-3.47-3.47s1.56-3.47,3.47-3.47,3.47,1.56,3.47,3.47-1.56,3.47-3.47,3.47Zm0-6.3c-1.56,0-2.83,1.27-2.83,2.83s1.27,2.83,2.83,2.83,2.83-1.27,2.83-2.83-1.27-2.83-2.83-2.83Z"/><path class="cls-1" d="m29.29,13.75c-.18,0-.32-.14-.32-.32,0-2.7-2.16-4.89-4.81-4.89-1.83,0-3.48,1.04-4.3,2.7-.08.16-.27.22-.43.15-.16-.08-.23-.27-.15-.43.93-1.89,2.8-3.06,4.88-3.06,3.01,0,5.45,2.48,5.45,5.53,0,.18-.14.32-.32.32Z"/><path class="cls-1" d="m34.12,6.95c-1.92,0-3.47-1.56-3.47-3.47s1.56-3.47,3.47-3.47,3.47,1.56,3.47,3.47-1.56,3.47-3.47,3.47Zm0-6.3c-1.56,0-2.83,1.27-2.83,2.83s1.27,2.83,2.83,2.83,2.83-1.27,2.83-2.83-1.27-2.83-2.83-2.83Z"/><path class="cls-1" d="m38.58,13.75c-.18,0-.32-.14-.32-.32,0-2.7-2.16-4.89-4.81-4.89-1.83,0-3.48,1.04-4.3,2.7-.08.16-.28.22-.43.15-.16-.08-.23-.27-.15-.43.93-1.89,2.8-3.06,4.88-3.06,3.01,0,5.45,2.48,5.45,5.53,0,.18-.14.32-.32.32Z"/></g></svg>