<?xml version="1.0" encoding="UTF-8"?><svg id="Layer_2" xmlns="http://www.w3.org/2000/svg" viewBox="0 0 38.75 35.25"><defs><style>.cls-1{fill:#c4c4c4;stroke-width:0px;}</style></defs><g id="Layer_1-2"><path class="cls-1" d="m32.54,6.95c-1.92,0-3.47-1.56-3.47-3.47s1.56-3.47,3.47-3.47,3.47,1.56,3.47,3.47-1.56,3.47-3.47,3.47Zm0-6.3c-1.56,0-2.83,1.27-2.83,2.83s1.27,2.83,2.83,2.83,2.83-1.27,2.83-2.83-1.27-2.83-2.83-2.83Z"/><path class="cls-1" d="m37,13.75c-.18,0-.32-.14-.32-.32,0-2.7-2.16-4.89-4.81-4.89-1.83,0-3.48,1.04-4.3,2.7-.08.16-.28.22-.43.15-.16-.08-.23-.27-.15-.43.93-1.89,2.8-3.06,4.88-3.06,3.01,0,5.45,2.48,5.45,5.53,0,.18-.14.32-.32.32Z"/><path class="cls-1" d="m9.56,12.34c.72,0,1.27.47,2.02,1.02.24.18,1.63,1.16,2.96,2.16.02.02.04.02.07.02.02,0,.03,0,.05-.01.11-.05.22-.1.33-.15,2.45-1.14,4.21-1.4,5.27-1.4.33,0,.6.03.79.06.76.12,2.57.78,2.83.87.01,0,.03,0,.04,0,0,0,.02,0,.02,0,1.02-.22,2.12-.29,3.12-.29,1.06,0,2,.08,2.6.15.29.03.4.4.18.59-.58.5-1.3.94-1.41,1.01-.01,0-.02.01-.03.02l-.38.44c-.29.34-1.2.81-1.64,1.03-.09.05-.08.18.01.22.6.23,1.79.88,2.16.95.61.11,1.03.23,1.21.76.13.39-.26.81-.37.9-.01.01-.02.03-.03.05-.14.42-.44.56-.74.56-.25,0-.5-.11-.63-.24-.02-.02-.05-.04-.08-.04-.32,0-1.05-.01-1.27-.04-.07,0-.12-.08-.1-.15l.09-.32s.03-.05.05-.07l1.1-.59c.08-.05.07-.18-.03-.21l-2.76-1.23s-.03,0-.04,0c0,0-.02,0-.03,0l-4.61,1.27c-.06.02-.09.07-.08.13l.25,1.48c0,.05.05.1.11.1.16.01.5.07.66.39.26.55-.27.9-.4.97-.02.01-.03.03-.04.04-.21.36-.45.47-.68.47-.26,0-.48-.14-.55-.2-.02-.01-.04-.02-.06-.02l-1.15-.13c-.05,0-.09-.04-.1-.09l-.07-.33c-.01-.05.01-.11.06-.13l1.32-.73s.07-.07.06-.13l-.26-1.46c0-.06-.06-.1-.11-.1,0,0,0,0-.01,0-1.18.14-11.36,1.46-14.07,1.75-.16.02-.3.02-.44.02-1.22,0-1.76-.63-2.21-1.43-.32-.56-1.64-2.96-1.89-3.65-.03-.07.02-.14.09-.16.65-.16,1.08-.25,1.41-.25.54,0,.8.23,1.32.78.4.43,1.72,1.65,2.43,1.97.16.07.35.1.58.1.8,0,1.98-.37,3.03-.66.35-.1.69-.19,1.02-.33.07-.03.09-.12.05-.18-1.05-1.45-3.25-4.21-3.72-4.82-.05-.07-.02-.17.06-.19.45-.12,1.67-.44,2.36-.55.09-.02.19-.02.27-.02m0-.64c-.12,0-.25,0-.38.03-.68.11-1.81.4-2.42.56-.25.07-.44.25-.52.49-.08.24-.04.51.12.71l.39.5c.68.86,2,2.52,2.9,3.73-.1.03-.2.06-.3.08l-.5.14c-.87.24-1.77.5-2.36.5-.2,0-.29-.03-.32-.04-.56-.25-1.76-1.33-2.23-1.82-.56-.59-.99-.98-1.79-.98-.4,0-.88.1-1.56.27-.21.05-.4.19-.5.39-.1.19-.12.41-.04.62.31.84,1.92,3.72,1.93,3.74.49.87,1.2,1.75,2.77,1.75.16,0,.33,0,.51-.03,1.81-.19,6.84-.83,10.52-1.3,1.32-.17,2.42-.31,3.06-.39l.11.61-.99.55c-.29.16-.45.5-.37.83l.07.32c.07.32.33.56.66.59l1.02.11c.19.11.47.24.81.24.27,0,.78-.09,1.16-.67.53-.36.88-1,.54-1.73-.15-.32-.42-.55-.77-.67l-.11-.66,3.97-1.09,1.61.72-.16.08c-.2.12-.32.28-.37.47l-.09.32c-.06.22-.02.44.1.63.12.18.31.3.53.33.18.02.53.03,1,.04h.16c.25.18.58.29.91.29.59,0,1.07-.32,1.3-.87.35-.37.63-.92.45-1.48-.3-.94-1.14-1.09-1.7-1.2-.15-.03-.68-.29-1.03-.46,0,0-.02,0-.03-.01.42-.25.72-.48.89-.67l.33-.38c.26-.16.89-.57,1.42-1.02.3-.25.41-.66.3-1.03-.12-.37-.44-.64-.83-.69-.62-.07-1.59-.15-2.67-.15-1.16,0-2.2.09-3.1.27-.54-.2-2.07-.73-2.8-.85-.27-.04-.57-.07-.9-.07-1.1,0-2.95.25-5.54,1.45l-.04.02c-1-.74-1.97-1.44-2.46-1.79l-.26-.18-.22-.16c-.68-.5-1.32-.97-2.17-.97h0Z"/><path class="cls-1" d="m2.25,33.95c-.11,0-.22-.06-.28-.17-.09-.16-.03-.35.13-.44,15.7-8.66,31.94-6.53,32.1-6.51.18.02.3.19.27.36s-.2.29-.36.27c-.16-.02-16.2-2.11-31.71,6.43-.05.03-.1.04-.16.04Z"/><path class="cls-1" d="m36.42,29.69c-1.28,0-2.32-1.04-2.32-2.32s1.04-2.33,2.32-2.33,2.32,1.04,2.32,2.33-1.04,2.32-2.32,2.32Zm0-4.01c-.93,0-1.68.75-1.68,1.68s.75,1.68,1.68,1.68,1.68-.75,1.68-1.68-.75-1.68-1.68-1.68Z"/><circle class="cls-1" cx="1.57" cy="34.05" r="1.2"/></g></svg>