<svg width="44" height="40" viewBox="0 0 44 40" fill="none" xmlns="http://www.w3.org/2000/svg">
<path fill-rule="evenodd" clip-rule="evenodd" d="M7.3485 15.352L11.6289 14.2547C12.0269 14.1526 12.523 14.1706 12.9481 14.5354L20.3895 19.7374L27.3373 17.9562C27.9606 17.7964 28.6376 17.8889 29.2415 18.2455L29.9816 18.6824C30.7361 19.1278 30.9112 20.0124 30.5598 20.7891L30.5484 20.8143L30.0225 21.7004C29.6646 22.3035 29.1156 22.7103 28.4923 22.8701L6.19586 28.586C5.1035 28.866 3.92899 28.3936 3.39064 27.3517L0.105413 21.8042L2.97447 21.0687L5.69261 23.505L13.4312 21.5212L7.3485 15.352ZM9.28197 15.8887L15.3646 22.0579L5.42317 24.6064L2.70503 22.1701L1.64519 22.4418L4.26707 26.8692L4.27439 26.8836C4.58474 27.4944 5.27718 27.7891 5.94753 27.6173L28.244 21.9014C28.603 21.8094 28.9357 21.5724 29.1626 21.19L29.6589 20.3536C29.8269 19.9609 29.701 19.678 29.4732 19.5435L28.7331 19.1066C28.3503 18.8806 27.9446 18.8329 27.5856 18.9249L20.193 20.8201L12.3281 15.3221L12.3056 15.3019C12.1925 15.2005 12.0606 15.1763 11.8772 15.2233L9.28197 15.8887Z" fill="#C4C4C4"/>
<circle cx="40.6186" cy="28.1663" r="2" transform="rotate(6.01931 40.6186 28.1663)" stroke="#C4C4C4"/>
<circle cx="3.52605" cy="38.5262" r="0.888264" transform="rotate(6.01931 3.52605 38.5262)" fill="#C4C4C4" stroke="#C4C4C4"/>
<path fill-rule="evenodd" clip-rule="evenodd" d="M38.8994 28.723C21.8145 28.3412 8.32916 35.3016 3.76145 38.7936L3.15411 37.9991C7.87715 34.3884 21.58 27.3357 38.9217 27.7232L38.8994 28.723Z" fill="#C4C4C4"/>
<path d="M21.8098 13.099C22.498 11.7422 23.7111 10.7033 25.3299 10.3892C27.9888 9.87329 30.6268 11.6539 31.1427 14.3128C31.1814 14.5123 31.2084 14.7093 31.2239 14.9031C31.2424 15.1357 31.4313 15.3289 31.6715 15.3289C31.9112 15.3289 32.1116 15.1327 32.0942 14.8871C32.0769 14.6422 32.044 14.3951 31.9959 14.1472C31.3885 11.0171 28.2944 8.92864 25.1644 9.53598C23.2533 9.9068 21.8301 11.1375 21.0347 12.7058C20.9262 12.9199 21.0117 13.1814 21.2257 13.29C21.4398 13.3985 21.7013 13.313 21.8098 13.099Z" fill="#C4C4C4" stroke="#C4C4C4" stroke-width="0.15" stroke-miterlimit="10" stroke-linecap="round" stroke-linejoin="round"/>
<circle cx="26.5" cy="4.5" r="3.5" stroke="#C4C4C4"/>
</svg>
