<?xml version="1.0" encoding="UTF-8"?><svg id="Layer_2" xmlns="http://www.w3.org/2000/svg" viewBox="0 0 38.67 27.24"><defs><style>.cls-1{fill:#c4c4c4;stroke-width:0px;}</style></defs><g id="Layer_1-2"><path class="cls-1" d="m11.53.64c.87,0,1.55.57,2.46,1.24.29.22,1.99,1.42,3.61,2.64.03.02.05.03.08.03.02,0,.04,0,.06-.01.13-.06.26-.12.4-.19,2.99-1.39,5.14-1.71,6.44-1.71.41,0,.73.03.97.07.93.15,3.14.95,3.45,1.07.01,0,.03,0,.05,0,0,0,.02,0,.03,0,1.24-.27,2.59-.36,3.82-.36,1.29,0,2.43.1,3.17.18.36.04.49.49.22.73-.71.61-1.58,1.15-1.72,1.23-.01,0-.02.02-.03.03l-.47.54c-.36.41-1.46.99-2,1.26-.11.06-.1.22.01.27.74.28,2.19,1.08,2.64,1.16.74.14,1.26.29,1.47.93.16.48-.32.99-.45,1.1-.02.02-.03.04-.04.06-.17.51-.54.69-.9.69-.31,0-.61-.13-.77-.29-.03-.03-.06-.05-.1-.05-.39-.01-1.29-.01-1.55-.05-.09-.01-.14-.1-.12-.18l.11-.4s.03-.07.06-.08l1.35-.73c.1-.06.08-.22-.03-.26l-3.37-1.5s-.03,0-.04,0c-.01,0-.03,0-.04,0l-5.63,1.55c-.07.02-.11.09-.1.16l.31,1.8c.01.07.06.12.13.12.2.01.61.09.8.48.32.67-.33,1.09-.49,1.18-.02.01-.04.03-.05.05-.25.44-.55.57-.83.57-.32,0-.59-.18-.67-.24-.02-.02-.04-.02-.07-.03l-1.4-.15c-.06,0-.11-.05-.12-.11l-.09-.4c-.01-.06.02-.13.07-.16l1.61-.89c.05-.03.08-.09.07-.15l-.32-1.79c-.01-.07-.07-.12-.14-.12,0,0-.01,0-.02,0-1.45.17-13.87,1.79-17.17,2.14-.19.02-.37.03-.54.03-1.49,0-2.15-.77-2.7-1.74-.39-.69-2-3.61-2.31-4.45-.03-.08.02-.17.11-.19.8-.2,1.32-.3,1.72-.3.65,0,.98.29,1.61.95.49.52,2.1,2.02,2.97,2.4.19.08.43.12.71.12.98,0,2.42-.45,3.7-.8.43-.12.84-.23,1.25-.41.08-.04.11-.14.06-.22-1.28-1.77-3.96-5.13-4.55-5.88-.06-.08-.03-.2.07-.23.55-.15,2.04-.53,2.88-.67.12-.02.23-.03.34-.03m0-.64c-.14,0-.29.01-.44.04-.86.14-2.35.52-2.94.68-.26.07-.46.26-.54.51-.08.25-.04.53.13.74l.5.63c.86,1.09,2.55,3.22,3.64,4.69-.18.05-.36.11-.56.16l-.62.17c-1.07.3-2.18.61-2.92.61-.25,0-.38-.04-.45-.07-.69-.31-2.19-1.65-2.76-2.26-.68-.72-1.16-1.15-2.08-1.15-.47,0-1.05.12-1.88.32-.22.05-.41.2-.51.4-.1.19-.12.43-.05.64.38,1.03,2.34,4.52,2.36,4.55.58,1.02,1.42,2.07,3.26,2.07.19,0,.39-.01.61-.03,2.22-.24,8.63-1.06,12.87-1.6,1.69-.22,3.08-.39,3.83-.49l.17.97-1.3.72c-.3.17-.46.52-.39.87l.09.39c.07.33.35.58.68.61l1.28.14c.2.12.54.29.94.29.31,0,.88-.1,1.31-.78.61-.4,1.02-1.13.63-1.95-.18-.38-.51-.65-.93-.77l-.17-1.02,5.02-1.38,2.28,1.01-.45.24c-.2.12-.32.29-.38.48l-.11.4c-.06.22-.02.46.11.65.13.19.33.31.55.34.21.03.63.04,1.21.05h.23c.29.22.68.35,1.07.35.67,0,1.21-.37,1.47-1.01.25-.26.78-.92.53-1.68-.34-1.06-1.32-1.24-1.96-1.36-.18-.03-.86-.36-1.3-.57-.09-.04-.18-.09-.27-.13.63-.36,1.06-.67,1.29-.93l.42-.48c.25-.16,1.05-.67,1.73-1.25.32-.27.44-.71.32-1.11-.12-.4-.47-.69-.89-.74-.75-.08-1.92-.18-3.24-.18-1.42,0-2.71.11-3.81.34-.73-.26-2.56-.9-3.44-1.05-.32-.05-.68-.08-1.07-.08-1.33,0-3.57.31-6.71,1.77l-.13.06c-1.22-.91-2.43-1.78-3.03-2.21l-.34-.25-.27-.2c-.84-.62-1.57-1.16-2.57-1.16h0Z"/><path class="cls-1" d="m2.18,25.94c-.11,0-.22-.06-.28-.17-.09-.16-.03-.35.13-.44,15.7-8.66,31.94-6.53,32.1-6.51.18.02.3.19.27.36-.03.18-.19.3-.36.27-.16-.02-16.2-2.11-31.71,6.43-.05.03-.1.04-.16.04Z"/><path class="cls-1" d="m36.35,21.68c-1.28,0-2.32-1.04-2.32-2.32s1.04-2.32,2.32-2.32,2.32,1.04,2.32,2.32-1.04,2.32-2.32,2.32Zm0-4.01c-.93,0-1.68.75-1.68,1.68s.75,1.68,1.68,1.68,1.68-.75,1.68-1.68-.75-1.68-1.68-1.68Z"/><circle class="cls-1" cx="1.49" cy="26.04" r="1.2"/></g></svg>