<svg width="45" height="31" viewBox="0 0 45 31" fill="none" xmlns="http://www.w3.org/2000/svg">
<path fill-rule="evenodd" clip-rule="evenodd" d="M8.3485 5.351L12.6289 4.25369C13.0269 4.15164 13.523 4.1696 13.9481 4.5344L21.3895 9.73638L28.3373 7.95525C28.9606 7.79547 29.6376 7.88796 30.2415 8.24449L30.9816 8.68141C31.7361 9.12684 31.9112 10.0114 31.5598 10.7881L31.5484 10.8133L31.0225 11.6994C30.6646 12.3025 30.1156 12.7093 29.4923 12.8691L7.19586 18.585C6.1035 18.865 4.92899 18.3926 4.39064 17.3507L1.10541 11.8032L3.97447 11.0677L6.69261 13.5041L14.4312 11.5202L8.3485 5.351ZM10.282 5.88767L16.3646 12.0569L6.42317 14.6055L3.70503 12.1691L2.64519 12.4408L5.26707 16.8682L5.27439 16.8826C5.58474 17.4934 6.27718 17.7882 6.94753 17.6163L29.244 11.9004C29.603 11.8084 29.9357 11.5714 30.1626 11.1891L30.6589 10.3526C30.8269 9.95997 30.701 9.67703 30.4732 9.54254L29.7331 9.10562C29.3503 8.8796 28.9446 8.8319 28.5856 8.92392L21.193 10.8191L13.3281 5.32108L13.3056 5.30091C13.1925 5.19956 13.0606 5.17534 12.8772 5.22237L10.282 5.88767Z" fill="#C4C4C4"/>
<circle cx="41.6191" cy="18.1654" r="2" transform="rotate(6.01931 41.6191 18.1654)" stroke="#C4C4C4"/>
<circle cx="4.52605" cy="28.5252" r="0.888264" transform="rotate(6.01931 4.52605 28.5252)" fill="#C4C4C4" stroke="#C4C4C4"/>
<path d="M4.45759 28.3947C9.10297 24.8434 22.6971 17.8369 39.9104 18.2215" stroke="#C4C4C4"/>
</svg>
