<svg width="44" height="42" viewBox="0 0 44 42" fill="none" xmlns="http://www.w3.org/2000/svg">
<path fill-rule="evenodd" clip-rule="evenodd" d="M7.3485 15.7231L11.6289 14.6258C12.0269 14.5237 12.523 14.5417 12.9481 14.9065L20.3895 20.1084L27.3373 18.3273C27.9606 18.1675 28.6376 18.26 29.2415 18.6166L29.9816 19.0535C30.7361 19.4989 30.9112 20.3834 30.5598 21.1602L30.5484 21.1854L30.0225 22.0715C29.6646 22.6746 29.1156 23.0814 28.4923 23.2412L6.19586 28.957C5.1035 29.2371 3.92899 28.7647 3.39064 27.7228L0.105413 22.1753L2.97447 21.4397L5.69261 23.8761L13.4312 21.8923L7.3485 15.7231ZM9.28197 16.2597L15.3646 22.429L5.42317 24.9775L2.70503 22.5412L1.64519 22.8129L4.26707 27.2403L4.27439 27.2547C4.58474 27.8655 5.27718 28.1602 5.94753 27.9884L28.244 22.2725C28.603 22.1804 28.9357 21.9435 29.1626 21.5611L29.6589 20.7247C29.8269 20.332 29.701 20.0491 29.4732 19.9146L28.7331 19.4777C28.3503 19.2517 27.9446 19.204 27.5856 19.296L20.193 21.1912L12.3281 15.6931L12.3056 15.673C12.1925 15.5716 12.0606 15.5474 11.8772 15.5944L9.28197 16.2597Z" fill="#C4C4C4"/>
<circle cx="40.6186" cy="28.5374" r="2" transform="rotate(6.01931 40.6186 28.5374)" stroke="#C4C4C4"/>
<circle cx="3.52605" cy="38.8973" r="0.888264" transform="rotate(6.01931 3.52605 38.8973)" fill="#C4C4C4" stroke="#C4C4C4"/>
<path fill-rule="evenodd" clip-rule="evenodd" d="M38.8994 29.094C21.8145 28.7123 8.32916 35.6727 3.76145 39.1647L3.15411 38.3702C7.87715 34.7595 21.58 27.7068 38.9217 28.0943L38.8994 29.094Z" fill="#C4C4C4"/>
<path d="M21.7228 12.5617C22.3583 11.3087 23.4786 10.3494 24.9733 10.0594C27.4284 9.58299 29.8644 11.2272 30.3408 13.6824C30.3765 13.8666 30.4015 14.0486 30.4158 14.2275C30.4331 14.4453 30.61 14.6264 30.8352 14.6264C31.0599 14.6264 31.248 14.4424 31.2317 14.2119C31.2157 13.9852 31.1852 13.7566 31.1407 13.5272C30.5786 10.6302 27.715 8.69732 24.8181 9.25942C23.0493 9.60263 21.7322 10.7417 20.9961 12.1931C20.8943 12.3937 20.9745 12.6389 21.1752 12.7407C21.3758 12.8425 21.621 12.7623 21.7228 12.5617Z" fill="#C4C4C4" stroke="#C4C4C4" stroke-width="0.15" stroke-miterlimit="10" stroke-linecap="round" stroke-linejoin="round"/>
<circle cx="26.0523" cy="4.60697" r="3.23588" stroke="#C4C4C4"/>
<path d="M30.9221 12.5617C31.5576 11.3087 32.6778 10.3494 34.1725 10.0594C36.6277 9.58299 39.0636 11.2272 39.54 13.6824C39.5757 13.8666 39.6007 14.0486 39.615 14.2275C39.6324 14.4453 39.8092 14.6264 40.0345 14.6264C40.2591 14.6264 40.4472 14.4424 40.431 14.2119C40.4149 13.9852 40.3844 13.7566 40.3399 13.5272C39.7778 10.6302 36.9142 8.69732 34.0173 9.25942C32.2485 9.60263 30.9314 10.7417 30.1953 12.1931C30.0935 12.3937 30.1737 12.6389 30.3744 12.7407C30.5751 12.8425 30.8203 12.7623 30.9221 12.5617Z" fill="#C4C4C4" stroke="#C4C4C4" stroke-width="0.15" stroke-miterlimit="10" stroke-linecap="round" stroke-linejoin="round"/>
<circle cx="35.2496" cy="4.60697" r="3.23588" stroke="#C4C4C4"/>
</svg>
