<?xml version="1.0" encoding="UTF-8"?><svg id="Layer_2" xmlns="http://www.w3.org/2000/svg" viewBox="0 0 52.95 47.12"><defs><style>.cls-1{fill:#fff;stroke-width:0px;}</style></defs><g id="Layer_1-2"><path class="cls-1" d="m37.63,47.12H15.32c-.71,0-1.27-.56-1.27-1.27s.56-1.27,1.27-1.27h.27c2.69-.05,4.88-2.31,4.88-5.04l.06-.58c.02-.2.19-.36.4-.36h11.27c.22,0,.4.18.4.4v.54c0,2.78,2.26,5.04,5.04,5.04.02,0,.09,0,.1,0,.65.08,1.17.64,1.17,1.27,0,.71-.56,1.27-1.27,1.27Zm-22.31-1.74c-.27,0-.47.2-.47.47s.2.47.47.47h22.31c.27,0,.47-.2.47-.47,0-.22-.22-.44-.47-.48h0c-3.22,0-5.84-2.62-5.84-5.84v-.15h-10.51l-.02.19c0,3.12-2.54,5.74-5.67,5.8h-.28Z"/><path class="cls-1" d="m49.7,34.78H3.24c-1.79,0-3.24-1.45-3.24-3.24V3.24C0,1.45,1.45,0,3.24,0h46.46c1.79,0,3.24,1.45,3.24,3.24v28.29c0,1.79-1.45,3.24-3.24,3.24ZM3.24.95C1.97.95.95,1.98.95,3.24v28.29c0,1.27,1.03,2.3,2.29,2.3h46.46c1.27,0,2.3-1.03,2.3-2.3V3.24c0-1.27-1.03-2.3-2.3-2.3H3.24Z"/></g></svg>