<?xml version="1.0" encoding="UTF-8"?><svg id="Layer_2" xmlns="http://www.w3.org/2000/svg" viewBox="0 0 26.01 36.32"><defs><style>.cls-1{fill:#fff;stroke-width:0px;}</style></defs><g id="Layer_1-2"><g id="Group-27"><path class="cls-1" d="m22.83,36.32H3.17c-1.72,0-3.17-1.45-3.17-3.17V3.17C0,1.39,1.39,0,3.17,0h19.66c1.75,0,3.17,1.42,3.17,3.17v29.97c0,1.72-1.45,3.17-3.17,3.17ZM3.17,1.01c-1.23,0-2.17.93-2.17,2.17v29.97c0,1.17.99,2.17,2.17,2.17h19.66c1.17,0,2.17-.99,2.17-2.17V3.17c0-1.19-.97-2.17-2.17-2.17H3.17Z"/></g><circle class="cls-1" cx="13.02" cy="31.66" r="1.47"/></g></svg>