<?xml version="1.0" encoding="UTF-8"?><svg id="Layer_2" xmlns="http://www.w3.org/2000/svg" viewBox="0 0 15.96 28.42"><defs><style>.cls-1{fill:#fff;stroke-width:0px;}</style></defs><g id="Layer_1-2"><g id="Group-27"><path class="cls-1" d="m12.93,28.42H3.03c-1.64,0-3.03-1.39-3.03-3.03V3.03C0,1.33,1.33,0,3.03,0h9.9c1.67,0,3.03,1.36,3.03,3.03v22.35c0,1.64-1.39,3.03-3.03,3.03ZM3.03.96C1.85.96.96,1.85.96,3.03v22.35c0,1.12.95,2.07,2.07,2.07h9.9c1.12,0,2.07-.95,2.07-2.07V3.03c0-1.14-.93-2.07-2.07-2.07H3.03Z"/></g><circle class="cls-1" cx="7.93" cy="23.95" r="1.4"/></g></svg>