<svg width="12" height="16" viewBox="0 0 12 16" fill="none" xmlns="http://www.w3.org/2000/svg">
<path d="M5.64687 12.3531C5.74375 12.45 5.87187 12.5 6 12.5C6.12813 12.5 6.25588 12.4512 6.35344 12.3535L10.8534 7.8535C11.0487 7.65819 11.0487 7.34163 10.8534 7.14663C10.6581 6.95162 10.3416 6.95131 10.1466 7.14663L6.5 10.7937V1.5C6.5 1.22375 6.275 1 6 1C5.725 1 5.5 1.22375 5.5 1.5V10.7937L1.85344 7.14687C1.65813 6.95156 1.34156 6.95156 1.14656 7.14687C0.951562 7.34219 0.95125 7.65875 1.14656 7.85375L5.64687 12.3531ZM11.5 14H0.5C0.223625 14 0 14.225 0 14.5C0 14.775 0.223625 15 0.5 15H11.5C11.7764 15 12 14.7764 12 14.5C12 14.2236 11.775 14 11.5 14Z" fill="#C4C4C4"/>
</svg>
