<svg width="44" height="36" viewBox="0 0 44 36" fill="none" xmlns="http://www.w3.org/2000/svg">
<path fill-rule="evenodd" clip-rule="evenodd" d="M8.83739 12.1484H13.3684C13.7898 12.1484 14.2779 12.2926 14.6073 12.7632L20.6741 19.8251H28.0288C28.6885 19.8251 29.3375 20.0893 29.8466 20.5973L30.4704 21.2197C31.1064 21.8542 31.0551 22.7774 30.5083 23.4594L30.4905 23.4816L29.7426 24.2278C29.2335 24.7357 28.5846 25 27.9248 25H4.32264C3.16631 25 2.11998 24.2317 1.85055 23.0597L0 16.7129H3.03707L5.11655 19.8251H13.3083L8.83739 12.1484ZM10.6212 13.1738L15.0921 20.8505H4.56847L2.48898 17.7383H1.36708L2.84397 22.8036L2.84757 22.8198C3.0003 23.5055 3.61303 23.9746 4.32264 23.9746H27.9248C28.3048 23.9746 28.6956 23.8239 29.0183 23.5019L29.7243 22.7975C29.9912 22.4503 29.9382 22.1372 29.7461 21.9456L29.1223 21.3231C28.7996 21.0012 28.4088 20.8505 28.0288 20.8505H20.2032L13.7911 13.3867L13.7739 13.3609C13.6874 13.2315 13.5626 13.1738 13.3684 13.1738H10.6212Z" fill="#C4C4C4"/>
<path d="M23.1711 13.935C23.8497 12.5971 25.046 11.5726 26.6424 11.2628C29.2644 10.7541 31.8658 12.51 32.3746 15.132C32.4127 15.3287 32.4394 15.523 32.4547 15.7141C32.473 15.9441 32.6597 16.1351 32.8972 16.1351C33.1342 16.1351 33.3323 15.9411 33.3152 15.6982C33.2981 15.4566 33.2656 15.2129 33.2181 14.9683C32.619 11.8804 29.5666 9.82007 26.4787 10.4192C24.5933 10.7851 23.1894 11.9992 22.4047 13.5463C22.2973 13.758 22.3819 14.0165 22.5935 14.1239C22.8051 14.2312 23.0637 14.1467 23.1711 13.935Z" fill="#C4C4C4" stroke="#C4C4C4" stroke-width="0.15" stroke-miterlimit="10" stroke-linecap="round" stroke-linejoin="round"/>
<circle cx="27.796" cy="5.45222" r="3.45222" stroke="#C4C4C4"/>
<path d="M32.9406 13.935C33.6192 12.5971 34.8156 11.5726 36.4119 11.2628C39.0339 10.7541 41.6353 12.51 42.1441 15.132C42.1823 15.3287 42.2089 15.523 42.2242 15.7141C42.2425 15.9441 42.4293 16.1351 42.6667 16.1351C42.9037 16.1351 43.1019 15.9411 43.0847 15.6982C43.0676 15.4566 43.0351 15.2129 42.9877 14.9683C42.3885 11.8804 39.3361 9.82007 36.2482 10.4192C34.3629 10.7851 32.9589 11.9992 32.1742 13.5463C32.0669 13.758 32.1514 14.0165 32.3631 14.1239C32.5747 14.2312 32.8333 14.1467 32.9406 13.935Z" fill="#C4C4C4" stroke="#C4C4C4" stroke-width="0.15" stroke-miterlimit="10" stroke-linecap="round" stroke-linejoin="round"/>
<circle cx="37.5694" cy="5.45222" r="3.45222" stroke="#C4C4C4"/>
</svg>
