<svg width="16" height="13" viewBox="0 0 16 13" fill="none" xmlns="http://www.w3.org/2000/svg">
  <path
    d="M7.875 2.625C5.93359 2.625 4.375 4.21094 4.375 6.125C4.375 8.06641 5.93359 9.625 7.875 9.625C9.78906 9.625 11.375 8.06641 11.375 6.15234C11.375 4.21094 9.78906 2.625 7.875 2.625ZM7.875 8.75C6.42578 8.75 5.25 7.57422 5.25 6.125C5.25 4.70312 6.42578 3.5 7.875 3.5C9.29688 3.5 10.5 4.70312 10.5 6.15234C10.5 7.57422 9.29688 8.75 7.875 8.75ZM15.6406 5.66016C14.1641 2.29688 11.2109 0 7.875 0C4.51172 0 1.55859 2.29688 0.0820312 5.66016C0.0273438 5.79688 0 5.98828 0 6.125C0 6.26172 0.0273438 6.48047 0.0820312 6.61719C1.55859 9.98047 4.51172 12.25 7.875 12.25C11.2109 12.25 14.1641 9.98047 15.6406 6.61719C15.6953 6.48047 15.75 6.26172 15.75 6.125C15.75 5.98828 15.6953 5.79688 15.6406 5.66016ZM14.8477 6.26172C13.4531 9.40625 10.7734 11.375 7.875 11.375C4.94922 11.375 2.26953 9.43359 0.902344 6.26172C0.875 6.23438 0.875 6.15234 0.847656 6.15234C0.847656 6.125 0.847656 6.04297 0.847656 6.01562C2.26953 2.84375 4.94922 0.875 7.875 0.875C10.7734 0.875 13.4531 2.84375 14.8477 6.01562C14.8477 6.04297 14.8477 6.125 14.8477 6.125C14.8477 6.15234 14.8477 6.23438 14.8477 6.26172Z"
    fill="#ffffff" />
</svg>
