<?xml version="1.0" encoding="UTF-8"?><svg id="Layer_2" xmlns="http://www.w3.org/2000/svg" viewBox="0 0 23.67 27.96"><defs><style>.cls-1{fill:#c4c4c4;stroke-width:0px;}</style></defs><g id="Layer_1-2"><path class="cls-1" d="m21.62,27.96H3.69c-1.13,0-2.06-.92-2.06-2.06v-10.23c0-.18.14-.32.32-.32s.32.14.32.32v10.23c0,.78.64,1.41,1.42,1.41h17.92c.78,0,1.41-.63,1.41-1.41V9.17c0-.14-.04-.28-.1-.41h-8.35c-.18,0-.32-.14-.32-.32V.61c0-.25.15-.47.38-.56.23-.09.49-.04.66.13l7.94,7.94c.28.28.44.66.44,1.06v16.73c0,1.13-.92,2.06-2.06,2.06Zm-6.72-19.84h7.43L14.84.63l.06,7.49Z"/><path class="cls-1" d="m1.95,4.28c-.18,0-.32-.14-.32-.32v-1.88C1.62.94,2.54.02,3.67.02h11.2c.18-.01.32.13.32.31s-.14.32-.32.32H3.68c-.78.02-1.41.65-1.41,1.43v1.88c.01.18-.13.32-.31.32h0Z"/><path class="cls-1" d="m14.85,21.97s-.04,0-.06,0l-2.18-.43c-.06-.01-.12-.04-.17-.09L2.18,11.19c-.12-.12-.12-.33,0-.45l1.77-1.79c.06-.06.14-.1.23-.1h0c.08,0,.17.03.23.09l10.23,10.24s.08.1.09.17l.44,2.24c.02.11-.01.21-.09.29-.06.06-.14.09-.23.09Zm-2.02-1.05l1.62.32-.33-1.67L4.18,9.62l-1.32,1.34,9.96,9.96Z"/><path class="cls-1" d="m1.03,9.86c-.08.02-.17-.04-.23-.1l-.58-.6.22-.24-.23.23c-.14-.14-.21-.32-.21-.52s.08-.38.21-.51l1.15-1.23c.32-.29.75-.26,1.02,0l.65.65c.06.06.09.14.09.23s-.03.17-.09.23l-1.77,1.77c-.06.06-.14.09-.23.09Zm.56-2.74l.23.22-1.18,1.3s.03.07.03.07l.36.37,1.31-1.31-.42-.41-.34-.24Z"/></g></svg>