<svg width="20" height="26" viewBox="0 0 20 26" fill="none" xmlns="http://www.w3.org/2000/svg">
<path d="M5.50578 18.4977L5.50506 18.497L5.49941 18.5055L5.40176 18.652L5.39608 18.6605L5.39421 18.6705L4.85709 21.5514L4.85693 21.5523C4.83107 21.7075 4.85538 21.834 4.92887 21.9221C5.00241 22.0104 5.11656 22.05 5.24805 22.05H5.24806H5.24808H5.24809H5.24811H5.24812H5.24814H5.24816H5.24817H5.24819H5.24821H5.24823H5.24825H5.24826H5.24828H5.24829H5.24831H5.24833H5.24835H5.24837H5.24839H5.24841H5.24843H5.24846H5.24848H5.24851H5.24853H5.24856H5.24859H5.2486H5.24861H5.24863H5.24864H5.24866H5.24868H5.24869H5.24871H5.24872H5.24874H5.24876H5.24877H5.24879H5.24881H5.24883H5.24885H5.24886H5.24888H5.2489H5.24892H5.24894H5.24896H5.24898H5.249H5.24902H5.24905H5.24907H5.24909H5.24911H5.24913H5.24916H5.24918H5.2492H5.24923H5.24925H5.24927H5.2493H5.24932H5.24935H5.24938H5.2494H5.24943H5.24945H5.24948H5.24951H5.24954H5.24957H5.24959H5.24962H5.24965H5.24968H5.24971H5.24974H5.24977H5.2498H5.24983H5.24987H5.2499H5.24993H5.24996H5.25H5.25003H5.25006H5.2501H5.25013H5.25017H5.2502H5.25024H5.25028H5.25031H5.25035H5.25039H5.25043H5.25046H5.2505H5.25054H5.25058H5.25062H5.25066H5.2507H5.25074H5.25079H5.25083H5.25087H5.25091H5.25096H5.251H5.25105H5.25109H5.25114H5.25118H5.25123H5.25127H5.25132H5.25137H5.25142H5.25146H5.25151H5.25156H5.25161H5.25166H5.25171H5.25176H5.25182H5.25187H5.25192H5.25197H5.25203H5.25208H5.25214H5.25219H5.25225H5.2523H5.25236H5.25242H5.25247H5.25253H5.25259H5.25265H5.25271H5.25277H5.25283H5.25289H5.25295H5.25301H5.25308H5.25314H5.2532H5.25327H5.25333H5.2534H5.25346H5.25353H5.2536H5.25366H5.25373H5.2538H5.25387H5.25394H5.25401H5.25408H5.25415H5.25422H5.25429H5.25437H5.25444H5.25452H5.25459H5.25466H5.25474H5.25482H5.25489H5.25497H5.25505H5.25513H5.25521H5.25529H5.25537H5.25545H5.25553H5.25561H5.2557H5.25578H5.25586H5.25595H5.25603H5.25612H5.25621H5.25629H5.25638H5.25647H5.25656H5.25665H5.25674H5.25683H5.25692H5.25701H5.2571H5.2572H5.25729H5.25739H5.25748H5.25758H5.25767H5.25777H5.25787H5.25797H5.25807H5.25817H5.25827H5.25837H5.25847H5.25857H5.25868H5.25878H5.25888H5.25899H5.2591H5.2592H5.25931H5.25942H5.25953H5.25964H5.25975H5.25986H5.25997H5.26008H5.26019H5.26031H5.26042H5.26054H5.26065H5.26077H5.26088H5.261H5.26112H5.26124H5.26136H5.26148H5.2616H5.26172H5.26185H5.26197H5.26209H5.26222H5.26235H5.26247H5.2626H5.26273H5.26286H5.26299H5.26312H5.26325H5.26338H5.26351H5.26364H5.26378H5.26391H5.26405H5.26419H5.26432H5.26446H5.2646H5.26474H5.26488H5.26502H5.26516H5.2653H5.26545H5.26559H5.26574H5.26588H5.26603H5.26618H5.26633H5.26647H5.26662H5.26677H5.26693H5.26708H5.26723H5.26739H5.26754H5.2677H5.26785H5.26801H5.26817H5.26833H5.26849H5.26865H5.26881H5.26897H5.26913H5.2693H5.26946H5.26963H5.26979H5.26996H5.27013H5.2703H5.27047H5.27064H5.27081H5.27098H5.27116H5.27133H5.2715H5.27168H5.27186H5.27204H5.27221H5.27239H5.27257H5.27276H5.27294H5.27312H5.2733H5.27349H5.27367H5.27386H5.27405H5.27424H5.27443H5.27462H5.27481H5.275H5.27519H5.27539H5.27558H5.27578H5.27597H5.27617H5.27637H5.27657H5.27677H5.27697H5.27717H5.27738H5.27758H5.27779H5.27799H5.2782H5.27841H5.27862H5.27883H5.27904H5.27925H5.27946H5.27968H5.27989H5.28011H5.28032H5.28054H5.28076H5.28098H5.2812H5.28142H5.28164H5.28187H5.28209H5.28232H5.28254H5.28277H5.283H5.28323H5.28346H5.28369H5.28392H5.28415H5.28439H5.28462H5.28486H5.2851H5.28534H5.28558H5.28582H5.28606H5.2863H5.28655H5.28679H5.28704H5.28728H5.28753H5.28778H5.28803H5.28828H5.28853H5.28878H5.28904H5.28929H5.28955H5.28981H5.29007H5.29033H5.29059H5.29085H5.29111H5.29137H5.29164H5.2919H5.29217H5.29244H5.29271H5.29298H5.29325H5.29352H5.2938H5.29407H5.29434H5.29462H5.2949H5.29518H5.29546H5.29574H5.29602H5.29631H5.29659H5.29688V22.0509L5.30604 22.0492L8.1869 21.512L8.18727 21.514L8.2001 21.5076L8.39541 21.41L8.40274 21.4063L8.40852 21.4005L15.3908 14.3693C16.0451 13.715 16.0451 12.7068 15.3908 12.0525L14.8537 11.5154C14.5524 11.2141 14.1006 11.0125 13.6953 11.0125C13.29 11.0125 12.8382 11.2141 12.5369 11.5154L5.50578 18.4977ZM14.1924 12.1667L14.192 12.167L14.1971 12.1721L14.7342 12.7092L14.7338 12.7095L14.7395 12.7138C14.9177 12.8475 14.9637 13.0247 14.9637 13.2109C14.9637 13.4009 14.9158 13.6247 14.7395 13.7569L14.7392 13.7565L14.7342 13.7615L13.5488 14.9469L11.9594 13.3574L13.1447 12.1721L13.1451 12.1724L13.1494 12.1667C13.2816 11.9905 13.5053 11.9426 13.6953 11.9426C13.8816 11.9426 14.0588 11.9885 14.1924 12.1667ZM19.2971 7.46269L12.4123 0.577926C12.1116 0.277248 11.7088 0.075 11.2539 0.075H4.125C2.33907 0.075 0.95 1.51391 0.95 3.25V22C0.95 23.7854 2.33957 25.175 4.125 25.175H16.625C18.3611 25.175 19.8 23.7859 19.8 22V8.62109C19.8 8.16619 19.5978 7.76337 19.2971 7.46269ZM11.9875 6.76562V1.36876L18.5062 7.8875H13.1094C12.4534 7.8875 11.9875 7.4216 11.9875 6.76562ZM18.9188 22C18.9188 23.2901 17.8676 24.2938 16.625 24.2938H4.125C2.83425 24.2938 1.83125 23.2907 1.83125 22V3.25C1.83125 2.0074 2.83493 0.95625 4.125 0.95625H11.1062V6.76562C11.1062 7.91629 11.9587 8.76875 13.1094 8.76875H18.9188V22ZM12.8922 15.6035L7.85994 20.6358L5.84976 21.0565L6.2705 19.0463L11.3027 14.0141L12.8922 15.6035Z" fill="white" stroke="white" stroke-width="0.1"/>
</svg>
