<svg width="31" height="28" viewBox="0 0 31 28" fill="none" xmlns="http://www.w3.org/2000/svg">
<path fill-rule="evenodd" clip-rule="evenodd" d="M8.95184 4.16357H13.3706C13.7816 4.16357 14.2576 4.30415 14.5788 4.76309L20.4953 11.65H27.6678C28.3112 11.65 28.9441 11.9078 29.4405 12.4031L30.0489 13.0101C30.6692 13.6289 30.6192 14.5293 30.0859 15.1944L30.0685 15.216L29.3391 15.9437C28.8427 16.4391 28.2098 16.6968 27.5664 16.6968H4.54893C3.42125 16.6968 2.40084 15.9475 2.13808 14.8046L0.333374 8.61499H3.29521L5.32318 11.65H13.312L8.95184 4.16357ZM10.6915 5.16357L15.0516 12.65H4.78867L2.7607 9.61499H1.66659L3.10689 14.5548L3.1104 14.5705C3.25935 15.2393 3.8569 15.6968 4.54893 15.6968H27.5664C27.937 15.6968 28.3181 15.5498 28.6328 15.2358L29.3214 14.5489C29.5816 14.2102 29.5299 13.9049 29.3426 13.718L28.7342 13.111C28.4195 12.797 28.0384 12.65 27.6678 12.65H20.0361L13.7828 5.37116L13.7661 5.34604C13.6817 5.21977 13.56 5.16357 13.3706 5.16357H10.6915Z" fill="#C4C4C4"/>
<path fill-rule="evenodd" clip-rule="evenodd" d="M21.4595 2.64849C19.7494 2.98032 18.4685 4.07825 17.7431 5.50856C17.6496 5.69279 17.4245 5.76639 17.2403 5.67295C17.0561 5.57951 16.9825 5.35441 17.0759 5.17018C17.8937 3.55779 19.3553 2.29476 21.317 1.91412C24.5307 1.29055 27.7083 3.43542 28.3319 6.64912C28.528 7.6597 28.4787 8.65367 28.154 9.54672C28.0834 9.74086 27.8688 9.84101 27.6747 9.77042C27.4805 9.69982 27.3804 9.48522 27.451 9.29108C27.7225 8.5444 27.7719 7.69039 27.5975 6.79162C27.0526 3.9835 24.2676 2.10362 21.4595 2.64849Z" fill="#C4C4C4"/>
<path fill-rule="evenodd" clip-rule="evenodd" d="M22.2541 4.7808C22.4569 4.74146 22.6532 4.87395 22.6926 5.07674L23.2244 7.8177L25.5279 8.78168C25.7184 8.86143 25.8082 9.08056 25.7285 9.27111C25.6487 9.46167 25.4296 9.5515 25.2391 9.47175L22.751 8.4305C22.6356 8.38222 22.552 8.27948 22.5282 8.15671L21.9582 5.21923C21.9189 5.01644 22.0514 4.82015 22.2541 4.7808Z" fill="#C4C4C4"/>
<path d="M2.01318 27.2244C5.35934 23.8857 10.0237 21.8623 15.195 21.8623C20.3663 21.8623 25.0307 23.8857 28.3768 27.2244" stroke="#C4C4C4" stroke-miterlimit="10"/>
</svg>
