<?xml version="1.0" encoding="UTF-8"?><svg id="Layer_2" xmlns="http://www.w3.org/2000/svg" viewBox="0 0 36.88 33.1"><defs><style>.cls-1{fill:#c4c4c4;stroke-width:0px;}</style></defs><g id="Layer_1-2"><path class="cls-1" d="m35.51,9.3s-.06,0-.1-.01c-.17-.05-.26-.23-.21-.4.19-.61.29-1.24.29-1.89,0-3.5-2.85-6.35-6.35-6.35-3,0-5.62,2.13-6.22,5.07-.03.17-.21.29-.38.25-.17-.04-.29-.21-.25-.38.66-3.24,3.54-5.58,6.85-5.58,3.86,0,6.99,3.14,6.99,6.99,0,.71-.11,1.41-.31,2.08-.04.14-.17.23-.31.23Z"/><path class="cls-1" d="m31.81,9.28c-.06,0-.13-.02-.19-.06l-2.72-1.94V2.97c0-.18.14-.32.32-.32s.32.14.32.32v3.98l2.45,1.75c.14.1.18.3.08.45-.06.09-.16.13-.26.13Z"/><path class="cls-1" d="m.32,33.1c-.09,0-.17-.04-.24-.1-.12-.13-.11-.33.02-.45.06-.06,6.59-5.9,18.43-5.9s18,5.84,18.06,5.9c.13.12.13.32.01.45-.12.13-.33.14-.45.01-.06-.06-6.24-5.73-17.62-5.73S.6,32.96.54,33.02c-.06.06-.14.08-.22.08Z"/><path class="cls-1" d="m11.44,6.62c.32,0,.62,0,.86.02,1.06.06,1.63.83,2.47,1.79.24.27,1.63,1.81,2.96,3.35.03.03.07.05.11.05.01,0,.02,0,.03,0,.14-.03.28-.06.43-.1,1.71-.38,3.13-.51,4.27-.51,1.68,0,2.76.29,3.32.51.87.35,2.86,1.61,3.14,1.79.02.01.05.02.07.02,2.61,0,5.49.87,6.86,1.33.34.11.38.59.06.76-.82.44-1.79.78-1.94.83-.01,0-.03.01-.04.02l-.57.42c-.44.33-1.64.65-2.23.8-.12.03-.15.19-.04.26.66.44,1.9,1.52,2.33,1.7.7.3,1.17.55,1.24,1.23.05.5-.53.89-.67.98-.02.01-.04.03-.05.05-.22.37-.52.5-.81.5-.39,0-.76-.24-.91-.48-.02-.03-.05-.06-.09-.07-.38-.1-1.25-.29-1.5-.38-.08-.03-.12-.13-.08-.2l.19-.36s.04-.06.08-.07l1.47-.42c.11-.04.13-.2.03-.26l-2.96-2.19s-.05-.02-.07-.02c0,0,0,0,0,0l-5.83.3c-.07,0-.13.06-.13.14l-.09,1.83c0,.07.04.13.1.15.19.06.58.22.68.64.17.73-.56,1-.73,1.05-.02,0-.05.02-.06.04-.27.3-.53.4-.76.4-.4,0-.69-.3-.78-.4-.02-.02-.04-.03-.06-.04l-1.33-.45c-.06-.02-.1-.08-.1-.14v-.41c0-.07.04-.12.1-.14l1.76-.52c.06-.02.1-.07.1-.13l.07-1.81c0-.08-.05-.14-.13-.15-1.45-.15-13.93-1.25-17.23-1.61-1.88-.21-2.43-1.18-2.79-2.37-.23-.76-1.18-3.96-1.29-4.85-.01-.09.06-.16.15-.16.23,0,.43,0,.62,0,1.58,0,1.82.23,2.5,1.36.37.61,1.62,2.42,2.38,2.99.41.3,1.17.39,2.06.39.76,0,1.61-.06,2.4-.1.44-.02.87-.05,1.31-.13.09-.02.14-.12.1-.2-.87-2-2.76-5.87-3.17-6.72-.04-.09.02-.2.12-.21.4-.02,1.3-.05,2.09-.05m0-.64c-.82,0-1.76.04-2.12.05-.26.01-.5.15-.64.38-.14.23-.15.51-.04.75l.33.68c.61,1.26,1.81,3.72,2.57,5.41-.19.02-.38.03-.59.04l-.64.03c-.58.03-1.19.07-1.73.07-1.09,0-1.51-.14-1.68-.26-.61-.45-1.78-2.08-2.21-2.8-.8-1.34-1.25-1.67-3.05-1.67-.19,0-.4,0-.63,0-.23,0-.44.11-.59.28-.14.17-.21.39-.18.61.14,1.07,1.31,4.91,1.32,4.95.4,1.32,1.09,2.57,3.34,2.82,2.21.24,8.65.83,12.91,1.21,1.69.15,3.1.28,3.85.35l-.04.99-1.42.42c-.33.09-.56.41-.56.76v.41c0,.34.21.64.54.75l1.22.41c.22.21.62.52,1.16.52.29,0,.72-.09,1.14-.51.68-.26,1.24-.89,1.03-1.76-.1-.41-.36-.74-.75-.95l.05-1.03,5.2-.27,2,1.48-.49.14c-.23.08-.38.21-.47.39l-.19.36c-.11.2-.12.44-.04.65.08.21.25.38.46.45.2.07.61.17,1.16.3l.23.06c.32.37.83.61,1.32.61.52,0,.98-.25,1.29-.71.29-.2.96-.73.88-1.53-.11-1.11-1.02-1.5-1.62-1.76-.17-.07-.76-.53-1.15-.84-.08-.06-.16-.12-.24-.19.69-.21,1.18-.42,1.46-.63l.51-.38c.25-.09,1.16-.43,1.96-.85.37-.2.59-.6.55-1.02-.03-.42-.31-.78-.71-.91-1.46-.5-4.29-1.32-6.92-1.36-.56-.36-2.28-1.43-3.13-1.76-.52-.21-1.68-.56-3.56-.56-1.34,0-2.82.18-4.41.53l-.14.03c-.99-1.15-1.99-2.26-2.48-2.81l-.29-.32-.22-.25c-.75-.86-1.46-1.68-2.69-1.75-.26-.02-.57-.02-.9-.02h0Z"/></g></svg>