<svg width="59" height="36" viewBox="0 0 59 36" fill="none" xmlns="http://www.w3.org/2000/svg">
<path fill-rule="evenodd" clip-rule="evenodd" d="M15.0965 9.83299L22.8367 7.84874C23.5566 7.6642 24.4535 7.69666 25.2223 8.35634L38.6785 17.763L51.2422 14.5422C52.3692 14.2533 53.5935 14.4206 54.6856 15.0653L56.0239 15.8554C57.3882 16.6608 57.7049 18.2603 57.0694 19.6648L57.0488 19.7105L56.0979 21.3128C55.4507 22.4033 54.4579 23.139 53.3308 23.4279L13.0122 33.7639C11.0369 34.2703 8.91307 33.4161 7.93957 31.532L1.99891 21.5004L7.18701 20.1704L12.1022 24.5761L26.0958 20.9887L15.0965 9.83299ZM18.5928 10.8035L29.5921 21.9592L11.615 26.5678L6.69979 22.1621L4.78329 22.6534L9.52443 30.6595L9.53765 30.6855C10.0989 31.79 11.351 32.323 12.5632 32.0123L52.8818 21.6762C53.5309 21.5098 54.1325 21.0813 54.5428 20.3899L55.4404 18.8774C55.7442 18.1674 55.5165 17.6557 55.1046 17.4125L53.7663 16.6225C53.074 16.2137 52.3404 16.1275 51.6913 16.2939L38.3231 19.7209L24.1011 9.77888L24.0604 9.74242C23.8559 9.55914 23.6175 9.51535 23.2857 9.60039L18.5928 10.8035Z" fill="#C4C4C4"/>
</svg>
