<svg width="34" height="27" viewBox="0 0 34 27" fill="none" xmlns="http://www.w3.org/2000/svg">
<path fill-rule="evenodd" clip-rule="evenodd" d="M9.62562 0H14.5608C15.0198 0 15.5514 0.156999 15.9102 0.669576L22.5181 8.36133H30.5287C31.2473 8.36133 31.9542 8.64917 32.5086 9.20239L33.1881 9.88034C33.8809 10.5715 33.825 11.577 33.2294 12.3199L33.21 12.344L32.3954 13.1568C31.8409 13.71 31.1341 13.9978 30.4155 13.9978H4.70819C3.44872 13.9978 2.30907 13.161 2.01561 11.8845L0 4.9716H3.30795L5.57291 8.36133H14.4953L9.62562 0ZM11.5686 1.11686L16.4382 9.4782H4.97594L2.71098 6.08847H1.48901L3.09763 11.6055L3.10155 11.6231C3.26791 12.37 3.93529 12.881 4.70819 12.881H30.4155C30.8294 12.881 31.255 12.7168 31.6065 12.3661L32.3755 11.5989C32.6662 11.2207 32.6084 10.8797 32.3993 10.671L31.7198 9.99303C31.3683 9.64232 30.9426 9.4782 30.5287 9.4782H22.0052L15.0212 1.3487L15.0024 1.32064C14.9082 1.17963 14.7723 1.11686 14.5608 1.11686H11.5686Z" fill="white"/>
<path d="M1.875 25.7543C5.61219 22.0255 10.8216 19.7656 16.5973 19.7656C22.3729 19.7656 27.5823 22.0255 31.3195 25.7543" stroke="white" stroke-miterlimit="10"/>
</svg>
