<svg width="25" height="25" viewBox="0 0 25 25" fill="none" xmlns="http://www.w3.org/2000/svg">
<path d="M13.0046 25H12.5522C10.9763 24.9406 9.42756 24.5714 7.99439 23.9134C6.56123 23.2554 5.27169 22.3217 4.1994 21.1653C3.12711 20.009 2.29308 18.6528 1.74492 17.1742C1.19675 15.6955 0.945203 14.1234 1.00462 12.5475C1.06404 10.9717 1.43327 9.42294 2.09122 7.98977C2.74917 6.5566 3.68296 5.26706 4.83928 4.19477C5.9956 3.12249 7.3518 2.28845 8.83045 1.74029C10.3091 1.19213 11.8812 0.940579 13.4571 0.999998C14.3193 1.03156 15.1751 1.16074 16.0082 1.38508C16.0849 1.38732 16.16 1.40681 16.2281 1.4421C16.2962 1.47738 16.3555 1.52757 16.4015 1.58891C16.4475 1.65025 16.4791 1.72118 16.4939 1.79641C16.5088 1.87165 16.5064 1.94926 16.4871 2.02348C16.4678 2.09769 16.4321 2.16661 16.3825 2.22509C16.3329 2.28358 16.2707 2.33013 16.2007 2.36129C16.1306 2.39245 16.0544 2.40742 15.9778 2.40508C15.9011 2.40274 15.826 2.38315 15.7579 2.34777C14.9921 2.15359 14.208 2.04065 13.4186 2.01083C10.5122 1.90149 7.68125 2.9503 5.54764 4.92686C3.41404 6.90342 2.15227 9.64608 2.03952 12.5523C1.92222 15.4588 2.96358 18.293 4.93479 20.4321C6.906 22.5712 9.64579 23.8402 12.5522 23.9603C13.9955 24.0156 15.4355 23.7853 16.7896 23.2824C18.1436 22.7796 19.385 22.0142 20.4423 21.0302C21.4997 20.0462 22.3522 18.8629 22.951 17.5485C23.5497 16.234 23.8828 14.8142 23.9312 13.3706C24.0329 10.9358 23.3105 8.53782 21.8807 6.56438C21.842 6.50944 21.8145 6.44739 21.7998 6.3818C21.7851 6.31621 21.7836 6.24837 21.7952 6.18217C21.8068 6.11598 21.8314 6.05273 21.8676 5.99607C21.9037 5.9394 21.9507 5.89044 22.0058 5.85198C22.0597 5.81151 22.1212 5.78233 22.1866 5.7662C22.2521 5.75006 22.3201 5.74731 22.3866 5.7581C22.4531 5.76888 22.5168 5.79299 22.5738 5.82898C22.6308 5.86496 22.6799 5.91208 22.7182 5.96751C24.0116 7.7587 24.7856 9.87207 24.9549 12.0749C25.1243 14.2777 24.6825 16.4846 23.6782 18.4524C22.6738 20.4203 21.1459 22.0728 19.2627 23.2281C17.3795 24.3833 15.214 24.9965 13.0046 25V25Z" fill="#D1D1D1"/>
<path d="M17.8858 19.6667C17.924 19.7225 17.9733 19.7698 18.0306 19.8057C18.0879 19.8416 18.152 19.8652 18.2189 19.8752C18.2858 19.8851 18.354 19.8811 18.4193 19.8635C18.4845 19.8458 18.5455 19.8149 18.5982 19.7726C18.6532 19.7326 18.6997 19.6821 18.7349 19.6239C18.77 19.5657 18.7933 19.5011 18.8031 19.4338C18.813 19.3666 18.8093 19.298 18.7923 19.2322C18.7753 19.1664 18.7453 19.1046 18.7041 19.0505L15.1614 14.2852L14.5356 15.1613L17.8858 19.6667Z" fill="#D1D1D1"/>
<path d="M7.32506 19.1564C7.24731 19.2659 7.21492 19.4012 7.23466 19.534C7.25439 19.6667 7.32474 19.7867 7.43096 19.8688C7.51822 19.9389 7.62715 19.9763 7.73902 19.9747C7.81917 19.9766 7.8986 19.9593 7.97064 19.9241C8.04267 19.8889 8.10521 19.837 8.15298 19.7726L11.532 15.1709L10.8967 14.3045L7.32506 19.1564Z" fill="#D1D1D1"/>
<path d="M12.995 13.7846L8.04679 7.15162C8.00558 7.09755 7.9756 7.03579 7.9586 6.96996C7.94159 6.90414 7.93792 6.83559 7.94778 6.76832C7.95765 6.70106 7.98086 6.63645 8.01604 6.57828C8.05123 6.52011 8.09769 6.46956 8.15268 6.4296C8.26365 6.35128 8.40047 6.31859 8.53485 6.3383C8.66923 6.35801 8.7909 6.42861 8.8747 6.53549L12.9758 12.0325L20.5233 1.44284C20.5992 1.33565 20.7129 1.26118 20.8415 1.23439C20.9701 1.2076 21.1041 1.23048 21.2165 1.29843C21.2708 1.33761 21.317 1.38713 21.3522 1.44414C21.3874 1.50115 21.4111 1.56454 21.4218 1.6307C21.4325 1.69685 21.4301 1.76447 21.4147 1.8297C21.3993 1.89492 21.3712 1.95647 21.332 2.01083L12.995 13.7846Z" fill="#D1D1D1"/>
</svg>
