<svg width="24" height="20" viewBox="0 0 24 20" fill="none" xmlns="http://www.w3.org/2000/svg">
<path d="M15.7209 7.53C15.6472 7.46134 15.5881 7.37854 15.5471 7.28654C15.5061 7.19454 15.484 7.09522 15.4823 6.99452C15.4805 6.89382 15.499 6.79379 15.5367 6.7004C15.5745 6.60701 15.6306 6.52218 15.7018 6.45096C15.773 6.37974 15.8579 6.3236 15.9513 6.28588C16.0447 6.24816 16.1447 6.22963 16.2454 6.23141C16.3461 6.23318 16.4454 6.25523 16.5374 6.29622C16.6294 6.33721 16.7122 6.39631 16.7809 6.47L19.7809 9.47C19.9213 9.61063 20.0002 9.80125 20.0002 10C20.0002 10.1988 19.9213 10.3894 19.7809 10.53L16.7809 13.53C16.7122 13.6037 16.6294 13.6628 16.5374 13.7038C16.4454 13.7448 16.3461 13.7668 16.2454 13.7686C16.1447 13.7704 16.0447 13.7518 15.9513 13.7141C15.8579 13.6764 15.773 13.6203 15.7018 13.549C15.6306 13.4778 15.5745 13.393 15.5367 13.2996C15.499 13.2062 15.4805 13.1062 15.4823 13.0055C15.484 12.9048 15.5061 12.8055 15.5471 12.7135C15.5881 12.6215 15.6472 12.5387 15.7209 12.47L17.4409 10.75H11.7509C11.5519 10.75 11.3612 10.671 11.2205 10.5303C11.0799 10.3897 11.0009 10.1989 11.0009 10C11.0009 9.80109 11.0799 9.61032 11.2205 9.46967C11.3612 9.32902 11.5519 9.25 11.7509 9.25H17.4409L15.7209 7.53ZM24.0009 3.75C24.0009 2.75544 23.6058 1.80161 22.9025 1.09835C22.1992 0.395088 21.2454 0 20.2509 0L3.75586 0C2.7613 0 1.80747 0.395088 1.10421 1.09835C0.400948 1.80161 0.00585938 2.75544 0.00585938 3.75L0.00585938 16.25C0.00585934 17.2444 0.40081 18.1981 1.10386 18.9013C1.8069 19.6045 2.76047 19.9997 3.75486 20L20.2509 20C21.2454 20 22.1992 19.6049 22.9025 18.9017C23.6058 18.1984 24.0009 17.2446 24.0009 16.25L24.0009 3.75ZM20.2509 1.5C20.8476 1.5 21.4199 1.73705 21.8419 2.15901C22.2638 2.58097 22.5009 3.15326 22.5009 3.75L22.5009 16.25C22.5009 16.8467 22.2638 17.419 21.8419 17.841C21.4199 18.2629 20.8476 18.5 20.2509 18.5L9.00586 18.5L9.00586 1.5L20.2509 1.5ZM7.50586 1.5L7.50586 18.5H3.75486C3.15812 18.5 2.58583 18.2629 2.16387 17.841C1.74191 17.419 1.50486 16.8467 1.50486 16.25L1.50486 3.75C1.50486 3.15326 1.74191 2.58097 2.16387 2.15901C2.58583 1.73705 3.15812 1.5 3.75486 1.5L7.50486 1.5H7.50586Z" fill="rgba(196, 196, 196, 1)"/>
</svg>
