<svg width="28" height="28" viewBox="0 0 28 28" fill="none" xmlns="http://www.w3.org/2000/svg">
<path d="M10.2791 16.47C10.3528 16.5387 10.4119 16.6215 10.4529 16.7135C10.4939 16.8055 10.516 16.9048 10.5177 17.0055C10.5195 17.1062 10.501 17.2062 10.4633 17.2996C10.4255 17.393 10.3694 17.4778 10.2982 17.549C10.227 17.6203 10.1421 17.6764 10.0487 17.7141C9.95535 17.7518 9.85532 17.7704 9.75462 17.7686C9.65392 17.7668 9.5546 17.7448 9.4626 17.7038C9.3706 17.6628 9.2878 17.6037 9.21914 17.53L6.21914 14.53C6.07869 14.3894 5.9998 14.1987 5.9998 14C5.9998 13.8012 6.07869 13.6106 6.21914 13.47L9.21914 10.47C9.2878 10.3963 9.3706 10.3372 9.4626 10.2962C9.5546 10.2552 9.65392 10.2332 9.75462 10.2314C9.85532 10.2296 9.95535 10.2482 10.0487 10.2859C10.1421 10.3236 10.227 10.3797 10.2982 10.451C10.3694 10.5222 10.4255 10.607 10.4633 10.7004C10.501 10.7938 10.5195 10.8938 10.5177 10.9945C10.516 11.0952 10.4939 11.1945 10.4529 11.2865C10.4119 11.3785 10.3528 11.4613 10.2791 11.53L8.55914 13.25L14.2491 13.25C14.4481 13.25 14.6388 13.329 14.7795 13.4697C14.9201 13.6103 14.9991 13.8011 14.9991 14C14.9991 14.1989 14.9201 14.3897 14.7795 14.5303C14.6388 14.671 14.4481 14.75 14.2491 14.75L8.55914 14.75L10.2791 16.47ZM1.99914 20.25C1.99914 21.2446 2.39423 22.1984 3.09749 22.9016C3.80075 23.6049 4.75458 24 5.74914 24L22.2441 24C23.2387 24 24.1925 23.6049 24.8958 22.9017C25.5991 22.1984 25.9941 21.2446 25.9941 20.25L25.9941 7.75C25.9941 6.75561 25.5992 5.80194 24.8961 5.0987C24.1931 4.39547 23.2395 4.00026 22.2451 4L5.74914 4C4.75458 4 3.80075 4.39508 3.09749 5.09835C2.39423 5.80161 1.99914 6.75544 1.99914 7.75L1.99914 20.25ZM5.74914 22.5C5.1524 22.5 4.58011 22.2629 4.15815 21.841C3.73619 21.419 3.49914 20.8467 3.49914 20.25L3.49914 7.75C3.49914 7.15326 3.73619 6.58097 4.15815 6.15901C4.58011 5.73705 5.1524 5.5 5.74914 5.5L16.9941 5.5L16.9941 22.5L5.74914 22.5ZM18.4941 22.5L18.4941 5.5L22.2451 5.5C22.8419 5.5 23.4142 5.73705 23.8361 6.15901C24.2581 6.58097 24.4951 7.15326 24.4951 7.75L24.4951 20.25C24.4951 20.8467 24.2581 21.419 23.8361 21.841C23.4142 22.2629 22.8419 22.5 22.2451 22.5L18.4951 22.5L18.4941 22.5Z" fill="rgba(196, 196, 196, 1)
"/>
</svg>
