<svg width="49" height="42" viewBox="0 0 49 42" fill="none" xmlns="http://www.w3.org/2000/svg">
<g clip-path="url(#clip0_5486_21031)">
<path d="M48.7391 7.37312C48.3634 6.67555 47.6284 6.23754 46.8281 6.23754H40.5071V2.71727C40.5071 1.21669 39.2821 0 37.7712 0H11.2296C9.71872 0 8.49372 1.21669 8.49372 2.71727V6.23754H2.17272C1.37239 6.23754 0.645556 6.66744 0.261722 7.37312C-0.122111 8.0788 -0.0812778 8.93048 0.367889 9.60371L2.54839 12.7509C2.98122 13.343 3.63456 13.6837 4.32872 13.6837H5.20256L3.63456 16.2549C3.21806 16.9282 3.20172 17.788 3.60189 18.4855C3.97756 19.1506 4.67172 19.5643 5.42306 19.5643H8.50189V25.9803C8.50189 29.1924 9.89839 32.2422 12.3239 34.3592L18.5551 39.7775C20.2047 41.2132 22.3199 42 24.5086 42C26.6972 42 28.8124 41.2132 30.4621 39.7775L36.6932 34.3592C39.1269 32.2422 40.5152 29.1924 40.5152 25.9803V19.5643H43.5941C44.3454 19.5643 45.0396 19.1506 45.4152 18.4855C45.8072 17.788 45.7991 16.9282 45.3744 16.2468L43.8064 13.6837H44.6802C45.3744 13.6837 46.0277 13.343 46.4442 12.7833L48.6247 9.62804C49.0902 8.93048 49.1229 8.0788 48.7472 7.37312H48.7391ZM8.49372 17.934H5.41489C5.03922 17.934 4.81056 17.4392 5.03106 17.0904L6.94206 13.9676C7.03189 13.8297 7.17072 13.7404 7.32589 13.7404H8.49372V17.9421V17.934ZM8.49372 12.0614H4.32872C4.15722 12.0614 3.99389 11.9722 3.89589 11.8343L1.73172 8.71147C1.49489 8.35458 1.73172 7.8679 2.17272 7.8679H8.49372V12.0695V12.0614ZM38.8737 6.23754V25.9722C38.8737 28.7138 37.6814 31.3256 35.6071 33.1344L29.3759 38.5527C27.9794 39.7694 26.2399 40.3778 24.4922 40.3778C22.7446 40.3778 21.0051 39.7694 19.6086 38.5527L13.3774 33.1344C11.3031 31.3256 10.1107 28.7138 10.1107 25.9722V2.71727C10.1107 2.10892 10.6007 1.62225 11.2132 1.62225H37.7712C38.3837 1.62225 38.8737 2.10892 38.8737 2.71727V6.23754ZM43.9697 17.0904C44.1902 17.4392 43.9697 17.934 43.5859 17.934H40.5071V13.7323H41.6749C41.8301 13.7323 41.9689 13.8216 42.0587 13.9594L43.9697 17.0823V17.0904ZM47.2691 8.70336L45.1049 11.8262C45.0069 11.9641 44.8436 12.0533 44.6721 12.0533H40.5071V7.85168H46.8281C47.2609 7.85168 47.5059 8.33836 47.2691 8.69525V8.70336Z" fill="#969696"/>
<path d="M15.0269 4.86719H13.3936V25.9726C13.3936 27.7814 14.1776 29.501 15.5496 30.6934L21.7807 36.1117C22.5321 36.7687 23.5039 37.1337 24.5084 37.1337C25.5129 37.1337 26.4847 36.7687 27.2361 36.1117L33.4672 30.6934C34.8392 29.501 35.6232 27.7814 35.6232 25.9726V4.86719H15.0269ZM33.9817 25.9726C33.9817 27.311 33.4019 28.5926 32.3811 29.4767L26.1499 34.895C25.6926 35.2924 25.1046 35.5115 24.5002 35.5115C23.8959 35.5115 23.3079 35.2924 22.8506 34.895L16.6194 29.4767C15.6067 28.5926 15.0187 27.3191 15.0187 25.9807V6.48944H33.9736V25.9726H33.9817Z" fill="#969696"/>
</g>
<defs>
<clipPath id="clip0_5486_21031">
<rect width="49" height="42" fill="white"/>
</clipPath>
</defs>
</svg>
