<svg width="31" height="23" viewBox="0 0 31 23" fill="none" xmlns="http://www.w3.org/2000/svg">
<path fill-rule="evenodd" clip-rule="evenodd" d="M8.8303 6.15186H13.2001C13.6069 6.15186 14.0787 6.29104 14.3971 6.74579L20.2297 13.5353H27.3001C27.9365 13.5353 28.5624 13.7903 29.0533 14.28L29.6533 14.8787C30.2679 15.4919 30.2179 16.3839 29.6902 17.042L29.6729 17.0637L28.9533 17.7817C28.4624 18.2714 27.8365 18.5264 27.2001 18.5264H4.5001C3.38499 18.5264 2.37578 17.7854 2.11582 16.6551L0.333496 10.542H3.26735L5.26735 13.5353H13.1303L8.8303 6.15186ZM10.5699 7.15186L14.8699 14.5353H4.73284L2.73284 11.542H1.66669L3.08463 16.4053L3.08814 16.421C3.23429 17.0773 3.82066 17.5264 4.5001 17.5264H27.2001C27.5637 17.5264 27.9378 17.3822 28.2469 17.0738L28.9256 16.3966C29.1803 16.065 29.1287 15.7679 28.9469 15.5866L28.3469 14.9879C28.0378 14.6795 27.6637 14.5353 27.3001 14.5353H19.7705L13.6011 7.35386L13.5844 7.32874C13.5028 7.20666 13.3853 7.15186 13.2001 7.15186H10.5699Z" fill="#C4C4C4"/>
<path fill-rule="evenodd" clip-rule="evenodd" d="M21.0415 3.49343C19.3004 3.54953 17.8615 4.43018 16.9181 5.72717C16.7966 5.89423 16.5627 5.93116 16.3956 5.80965C16.2286 5.68815 16.1917 5.45422 16.3132 5.28716C17.3766 3.82506 19.0201 2.81011 21.0174 2.74575C24.2893 2.64033 27.0861 5.2625 27.1915 8.53444C27.2247 9.56333 27.0183 10.5369 26.5559 11.367C26.4553 11.5475 26.2275 11.6123 26.0471 11.5118C25.8666 11.4113 25.8018 11.1835 25.9023 11.003C26.289 10.3089 26.4733 9.47359 26.4439 8.55853C26.3517 5.69952 23.9005 3.40131 21.0415 3.49343Z" fill="#C4C4C4"/>
<path fill-rule="evenodd" clip-rule="evenodd" d="M21.4876 5.72428C21.6941 5.71763 21.8668 5.87961 21.8735 6.08608L21.9634 8.87671L24.0846 10.1942C24.2601 10.3032 24.314 10.5338 24.205 10.7093C24.096 10.8847 23.8654 10.9386 23.6899 10.8296L21.3987 9.40656C21.2924 9.34058 21.2262 9.22587 21.2222 9.10087L21.1258 6.11017C21.1192 5.9037 21.2811 5.73094 21.4876 5.72428Z" fill="#C4C4C4"/>
<path d="M0 21.918H30" stroke="#C4C4C4" stroke-miterlimit="10"/>
</svg>
