<svg width="153" height="29" viewBox="0 0 153 29" fill="none" xmlns="http://www.w3.org/2000/svg">
<path d="M43.5477 17.1794L42.7487 14.4826H37.5549L36.7559 17.1794H33.9592L38.6376 3.37598H41.5701L46.2844 17.1794H43.5477ZM40.1638 5.853L38.2461 12.2133H42.0615L40.1638 5.853Z" fill="white"/>
<path d="M57.8665 11.706C56.668 12.469 55.3815 12.505 54.0311 12.505H52.0335V17.1794H49.4526V3.37598H54.107C54.4386 3.37598 54.7742 3.37598 55.1058 3.37598C55.7826 3.38216 56.451 3.52718 57.0694 3.80206C57.6879 4.07694 58.2434 4.47584 58.7015 4.97405C59.3974 5.82087 59.7547 6.89555 59.7043 7.99043C59.7043 10.1239 58.5897 11.2385 57.8665 11.706ZM56.7319 6.6001C56.1446 5.59331 54.99 5.59331 53.9952 5.59331H51.9976V10.3875H53.8553C54.0311 10.3875 54.2269 10.3875 54.4027 10.3875C55.7331 10.3276 56.3204 9.91611 56.652 9.36877C56.9012 8.92787 57.0293 8.42892 57.0235 7.92251C57.0386 7.46423 56.9384 7.00951 56.7319 6.6001Z" fill="white"/>
<path d="M71.4621 11.706C70.2635 12.469 68.9811 12.505 67.6307 12.505H65.6131V17.1794H63.0322V3.37598H67.6866C68.0222 3.37598 68.3538 3.37598 68.6854 3.37598C69.2927 3.41193 71.0346 3.53179 72.2811 4.97405C72.9836 5.80982 73.3534 6.87518 73.3198 7.96646C73.3039 10.1239 72.1892 11.2385 71.4621 11.706ZM70.3155 6.6001C69.7441 5.59331 68.5895 5.59331 67.5907 5.59331H65.5931V10.3875H67.4549C67.6307 10.3875 67.8265 10.3875 68.0022 10.3875C69.3326 10.3276 69.9159 9.91611 70.2515 9.36877C70.4988 8.92709 70.6268 8.42867 70.6231 7.92251C70.6331 7.46288 70.5273 7.00812 70.3155 6.6001Z" fill="white"/>
<path d="M84.2188 17.1794L81.502 12.0615H79.1728V17.1794H76.6079V3.37598H82.2651C82.8884 3.37598 84.7461 3.43191 85.9806 5.05795C86.5465 5.84155 86.841 6.78842 86.8196 7.75471C86.8192 8.28026 86.7342 8.80231 86.5679 9.30085C86.3543 9.83802 86.0214 10.3196 85.5944 10.7093C85.1673 11.0989 84.6573 11.3865 84.1029 11.5501L87.1752 17.1794H84.2188ZM83.3398 6.01281C82.8884 5.71716 82.361 5.61329 81.2663 5.61329H79.1728V9.90812H80.0917C81.5979 9.90812 82.5368 9.90812 83.164 9.57652C83.4933 9.39912 83.7654 9.13181 83.9486 8.80573C84.1318 8.47965 84.2185 8.10823 84.1988 7.73474C84.2157 7.39865 84.1455 7.0639 83.995 6.76292C83.8445 6.46194 83.6188 6.20493 83.3398 6.0168V6.01281Z" fill="white"/>
<path d="M101.278 15.5809C100.63 16.2876 99.8278 16.8346 98.9331 17.1789C98.1635 17.4512 97.3522 17.5864 96.536 17.5785C95.6357 17.6126 94.7397 17.4378 93.9183 17.0676C93.0969 16.6975 92.3724 16.1421 91.8017 15.445C90.5677 14.0354 89.9113 12.2119 89.9639 10.3392C89.9527 9.42994 90.0876 8.52483 90.3634 7.65838C90.7563 6.31481 91.5757 5.13558 92.6979 4.29879C93.8201 3.46201 95.1841 3.01313 96.5839 3.01996C97.5099 3.00925 98.4271 3.19984 99.2721 3.57855C100.117 3.95727 100.87 4.51505 101.478 5.21332C102.201 6.01236 103.22 7.6384 103.2 10.2792C103.196 11.1422 103.1 13.5833 101.278 15.5809ZM99.7721 7.19094C99.4522 6.62836 98.9865 6.16254 98.4239 5.8426C97.8614 5.52266 97.2229 5.36046 96.5759 5.37313C95.9655 5.36713 95.3622 5.50395 94.814 5.77265C93.8392 6.30001 92.6247 7.59046 92.6247 10.1674C92.6247 10.6987 92.6446 13.2397 94.5823 14.5101C95.1881 14.9006 95.8952 15.1048 96.6159 15.0974C97.1662 15.1028 97.7112 14.9897 98.2139 14.7658C99.2287 14.2984 100.559 13.1238 100.611 10.5229C100.656 9.35492 100.364 8.19863 99.7721 7.19094Z" fill="white"/>
<path d="M115.13 17.1795L114.33 14.4827H109.137L108.338 17.1795H105.561L110.235 3.37207H113.172L117.89 17.1795H115.13ZM111.746 5.85708L109.828 12.2174H113.643L111.746 5.85708Z" fill="white"/>
<path d="M131.566 15.1816C130.988 15.9319 130.242 16.536 129.387 16.9454C128.533 17.3548 127.595 17.5581 126.648 17.5387C125.684 17.5456 124.731 17.3453 123.851 16.9514C122.289 16.2083 120.176 14.3306 120.176 10.2395C120.12 8.63056 120.567 7.0442 121.454 5.70095C122.04 4.84845 122.831 4.15644 123.754 3.68815C124.676 3.21986 125.701 2.99021 126.736 3.02018C129.376 3.02018 130.767 4.3346 131.394 5.21354C131.811 5.85482 132.133 6.55329 132.349 7.28705L129.788 7.95025C129.737 7.56727 129.618 7.19651 129.436 6.85556C129.173 6.38845 128.784 6.00393 128.314 5.74499C127.844 5.48606 127.311 5.36292 126.776 5.38933C126.221 5.38705 125.674 5.51428 125.178 5.76088C124.163 6.26827 122.988 7.59867 122.988 10.1836C122.988 10.5831 123.008 12.2171 123.811 13.4476C124.07 13.8517 124.408 14.1984 124.806 14.4664C125.4 14.8744 126.103 15.0931 126.824 15.0937C127.317 15.1032 127.805 14.9943 128.247 14.776C128.689 14.5577 129.072 14.2364 129.365 13.8392C129.571 13.576 129.754 13.2953 129.912 13.0002C130.01 12.7763 130.096 12.5468 130.168 12.313L132.613 13.3318C132.352 13.9945 132 14.6173 131.566 15.1816Z" fill="white"/>
<path d="M144.378 17.1794V10.9069H138.45V17.1794H135.837V3.37598H138.438V8.56973H144.366V3.37598H146.967V17.1794H144.378Z" fill="white"/>
<path d="M36.0526 22.0131V25.5688H35.2536V22.0131H34.095V21.2939H37.2232V22.0131H36.0526Z" fill="white"/>
<path d="M41.0266 25.5688L40.1876 23.9707H39.4685V25.5688H38.6694V21.2939H40.4113C40.6296 21.2858 40.8468 21.3285 41.0458 21.4186C41.2448 21.5087 41.4201 21.6439 41.558 21.8133C41.7296 22.056 41.8192 22.3472 41.8137 22.6443C41.8147 22.8072 41.789 22.9691 41.7377 23.1237C41.6703 23.288 41.5672 23.4352 41.4359 23.5547C41.3047 23.6743 41.1485 23.7631 40.9787 23.8149L41.9495 25.5688H41.0266ZM40.7509 22.109C40.556 22.0017 40.3329 21.9571 40.1117 21.9811H39.4685V23.3075H39.7521C40.0713 23.341 40.3939 23.3069 40.699 23.2076C40.8003 23.1528 40.8841 23.0705 40.9406 22.9701C40.9972 22.8697 41.0242 22.7554 41.0186 22.6403C41.0237 22.5362 41.0017 22.4325 40.9548 22.3394C40.9079 22.2462 40.8377 22.1669 40.7509 22.109Z" fill="white"/>
<path d="M45.9089 25.5694L45.6612 24.7384H44.0631L43.8154 25.5694H42.9604L44.3987 21.3105H45.3056L46.7439 25.5694H45.9089ZM44.8622 22.0776L44.2749 24.0393H45.4495L44.8622 22.0776Z" fill="white"/>
<path d="M48.134 25.5688V21.2939H48.9331V25.5688H48.134Z" fill="white"/>
<path d="M53.3439 25.5688L51.4821 22.5844L51.5381 25.5688H50.739V21.2939H51.4582L53.3439 24.2983L53.248 21.2939H54.047V25.5688H53.3439Z" fill="white"/>
<path d="M55.8489 25.5688V21.2939H56.6479V25.5688H55.8489Z" fill="white"/>
<path d="M61.0585 25.5688L59.1927 22.5844L59.2406 25.5688H58.4656V21.2939H59.1807L61.0704 24.2983L60.9706 21.2939H61.7696V25.5688H61.0585Z" fill="white"/>
<path d="M66.528 25.5695V25.206C66.3751 25.3599 66.1925 25.4811 65.9912 25.5621C65.79 25.6432 65.5743 25.6824 65.3574 25.6774C65.1063 25.6824 64.8566 25.6376 64.6228 25.5457C64.389 25.4539 64.1757 25.3167 63.9951 25.142C63.7841 24.9219 63.6193 24.6618 63.5102 24.3771C63.4011 24.0924 63.35 23.7888 63.3598 23.484C63.3525 22.9297 63.5296 22.3886 63.8632 21.9459C64.0481 21.7083 64.2842 21.5155 64.554 21.382C64.8238 21.2484 65.1203 21.1776 65.4214 21.1748C65.6602 21.1753 65.897 21.2186 66.1205 21.3027C66.3724 21.4014 66.6001 21.5531 66.7882 21.7475C66.9764 21.9419 67.1206 22.1744 67.2112 22.4293L66.4521 22.7329C66.3964 22.4978 66.2641 22.2878 66.0761 22.1359C65.8881 21.984 65.655 21.8989 65.4134 21.8939C65.2715 21.8918 65.1306 21.9179 64.999 21.9708C64.8673 22.0236 64.7474 22.102 64.6463 22.2016C64.4977 22.3682 64.3839 22.563 64.3119 22.7743C64.2398 22.9857 64.2109 23.2094 64.2268 23.4321C64.2159 23.6614 64.2545 23.8903 64.3399 24.1033C64.4254 24.3164 64.5558 24.5085 64.7222 24.6666C64.9245 24.8319 65.1804 24.9172 65.4413 24.9063C65.6437 24.9158 65.844 24.8631 66.0155 24.7552C66.1869 24.6474 66.3212 24.4896 66.4002 24.303C66.4481 24.1816 66.4777 24.0537 66.4881 23.9235H65.4294V23.2243H67.2192V25.5695H66.528Z" fill="white"/>
<path d="M72.313 22.0091V23.0678H74.0948V23.751H72.313V25.5688H71.5139V21.2939H74.3105V22.0091H72.313Z" fill="white"/>
<path d="M79.0209 25.0539C78.822 25.2679 78.5776 25.4344 78.3057 25.5413C78.067 25.6246 77.8155 25.6652 77.5626 25.6611C77.2856 25.6712 77.0099 25.6173 76.7571 25.5037C76.5042 25.3901 76.2809 25.2198 76.1044 25.0059C75.7252 24.5706 75.5228 24.009 75.5371 23.4318C75.5355 23.1511 75.5787 22.872 75.6649 22.6048C75.7665 22.2613 75.9586 21.9515 76.2211 21.7077C76.4836 21.464 76.8067 21.2953 77.1568 21.2193C77.5068 21.1433 77.8709 21.1629 78.2108 21.2759C78.5507 21.3889 78.854 21.5912 79.0888 21.8617C79.4567 22.2967 79.6465 22.8547 79.6202 23.4238C79.6312 24.023 79.4174 24.6045 79.0209 25.0539ZM78.5574 22.477C78.4574 22.3036 78.3127 22.1603 78.1385 22.0619C77.9642 21.9636 77.7667 21.9137 77.5666 21.9176C77.3792 21.9166 77.1943 21.9605 77.0273 22.0455C76.799 22.1852 76.6147 22.3862 76.4953 22.6257C76.3759 22.8652 76.3263 23.1335 76.3521 23.3999C76.3384 23.6549 76.386 23.9096 76.491 24.1424C76.5959 24.3753 76.7552 24.5796 76.9554 24.7383C77.1412 24.8576 77.3578 24.92 77.5786 24.918C77.7477 24.9206 77.9154 24.8866 78.07 24.8182C78.3086 24.6968 78.5061 24.5078 78.6376 24.2746C78.7691 24.0415 78.8288 23.7747 78.8091 23.5077C78.8259 23.1471 78.7385 22.7893 78.5574 22.477Z" fill="white"/>
<path d="M83.5636 25.569L82.7286 23.9709H82.0095V25.569H81.2104V21.2941H82.9524C83.1707 21.2853 83.3881 21.3277 83.5872 21.4179C83.7863 21.5081 83.9615 21.6435 84.099 21.8135C84.273 22.0551 84.3642 22.3467 84.3587 22.6445C84.3598 22.8077 84.3328 22.9699 84.2788 23.1239C84.2133 23.2894 84.1109 23.4377 83.9793 23.5575C83.8478 23.6773 83.6905 23.7654 83.5197 23.8151L84.4745 25.569H83.5636ZM83.2919 22.1251C83.0987 22.0174 82.8766 21.9727 82.6567 21.9973H82.0095V23.3237H82.3011C82.6203 23.3571 82.9429 23.3231 83.248 23.2238C83.3493 23.1689 83.4331 23.0866 83.4896 22.9862C83.5462 22.8858 83.5732 22.7715 83.5676 22.6565C83.5752 22.5489 83.5536 22.4412 83.505 22.3449C83.4565 22.2486 83.3829 22.1671 83.2919 22.1091V22.1251Z" fill="white"/>
<path d="M90.3193 23.8708V25.5688H89.5203V23.8708L88.094 21.2939H89.0009L89.9238 23.0558L90.8507 21.2939H91.7416L90.3193 23.8708Z" fill="white"/>
<path d="M96.1483 25.0539C95.9471 25.2689 95.6999 25.4355 95.4252 25.5413C95.1864 25.6246 94.9349 25.6652 94.682 25.6611C94.4049 25.6715 94.1292 25.6178 93.8763 25.5041C93.6233 25.3905 93.4001 25.22 93.2238 25.0059C92.8446 24.5706 92.6422 24.009 92.6565 23.4318C92.6549 23.1511 92.6981 22.872 92.7843 22.6048C92.8859 22.2613 93.078 21.9515 93.3405 21.7077C93.603 21.464 93.9261 21.2953 94.2762 21.2193C94.6262 21.1433 94.9903 21.1629 95.3302 21.2759C95.6701 21.3889 95.9734 21.5912 96.2082 21.8617C96.5744 22.2977 96.764 22.855 96.7396 23.4238C96.7528 24.0219 96.5419 24.6033 96.1483 25.0539ZM95.6848 22.477C95.5848 22.3036 95.4401 22.1603 95.2659 22.0619C95.0916 21.9636 94.8941 21.9137 94.694 21.9176C94.5066 21.9166 94.3217 21.9605 94.1547 22.0455C93.9279 22.1862 93.7451 22.3877 93.6272 22.6272C93.5092 22.8666 93.4608 23.1343 93.4875 23.3999C93.4733 23.6546 93.5203 23.909 93.6245 24.1419C93.7288 24.3747 93.8873 24.5792 94.0868 24.7383C94.2742 24.8572 94.492 24.9197 94.714 24.918C94.883 24.9198 95.0505 24.8857 95.2054 24.8182C95.444 24.6969 95.6415 24.5078 95.773 24.2746C95.9045 24.0415 95.9641 23.7747 95.9445 23.5077C95.9588 23.1463 95.8687 22.7885 95.6848 22.477Z" fill="white"/>
<path d="M101.698 24.6859C101.562 25.1134 101.07 25.6607 100.028 25.6607C99.7813 25.6785 99.5339 25.6439 99.3019 25.5592C99.0698 25.4745 98.8583 25.3416 98.6813 25.1693C98.5588 25.0389 98.4661 24.8835 98.4096 24.7138C98.3466 24.4281 98.3251 24.1348 98.3457 23.8429V21.2939H99.1447V23.9108C99.1305 24.0693 99.1454 24.2291 99.1887 24.3822C99.2686 24.6339 99.4963 24.8896 100.064 24.8896C100.164 24.8896 100.751 24.8896 100.927 24.4062C100.976 24.2323 100.993 24.051 100.979 23.8708V21.2939H101.778V23.751C101.802 24.0649 101.775 24.3807 101.698 24.6859Z" fill="white"/>
<path d="M105.929 25.5689L105.074 23.9708H104.359V25.5689H103.56V21.294H105.301C105.52 21.2856 105.737 21.3281 105.936 21.4183C106.135 21.5084 106.31 21.6437 106.448 21.8134C106.622 22.0551 106.713 22.3466 106.708 22.6444C106.707 22.8074 106.68 22.9693 106.628 23.1238C106.56 23.2881 106.457 23.4353 106.326 23.5548C106.195 23.6743 106.039 23.7632 105.869 23.815L106.84 25.5689H105.929ZM105.657 22.125C105.462 22.0173 105.239 21.9726 105.018 21.9972H104.375V23.3236H104.674C104.993 23.3567 105.316 23.3226 105.621 23.2237C105.722 23.1689 105.806 23.0865 105.863 22.9861C105.919 22.8858 105.946 22.7715 105.941 22.6564C105.947 22.548 105.925 22.4398 105.875 22.3434C105.825 22.247 105.749 22.166 105.657 22.109V22.125Z" fill="white"/>
<path d="M110.907 25.5688V21.2939H111.706V24.8297H113.396V25.5688H110.907Z" fill="white"/>
<path d="M114.878 25.5688V21.2939H115.677V25.5688H114.878Z" fill="white"/>
<path d="M118.278 22.0091V23.0678H120.056V23.751H118.278V25.5688H117.479V21.2939H120.295V22.0091H118.278Z" fill="white"/>
<path d="M121.694 25.5688V21.2939H124.718V22.0091H122.477V23.0079H124.534V23.6951H122.477V24.8337H124.874V25.5688H121.694Z" fill="white"/>
<path d="M129.229 25.2212C128.828 25.5228 128.336 25.6779 127.834 25.6607C127.53 25.6722 127.226 25.6222 126.941 25.5138C126.656 25.4053 126.396 25.2406 126.176 25.0294C126.098 24.944 126.03 24.8502 125.972 24.7498L126.648 24.2863C126.791 24.501 126.989 24.6734 127.222 24.7857C127.454 24.8981 127.713 24.9464 127.97 24.9256C128.075 24.9267 128.179 24.916 128.282 24.8936C128.374 24.8936 128.789 24.7618 128.789 24.3662C128.789 24.2748 128.761 24.1855 128.709 24.1105C128.565 23.9188 128.178 23.8628 127.97 23.8149L127.447 23.703C127.224 23.6614 127.007 23.5943 126.799 23.5033C126.614 23.4133 126.459 23.2722 126.351 23.0966C126.243 22.9211 126.188 22.7183 126.192 22.5125C126.192 22.2927 126.248 22.0766 126.356 21.8852C126.525 21.6453 126.754 21.4542 127.021 21.3315C127.288 21.2087 127.582 21.1585 127.874 21.1861C128.21 21.1738 128.543 21.2464 128.844 21.3973C129.144 21.5481 129.401 21.7723 129.592 22.049L128.937 22.5364C128.827 22.3441 128.668 22.1843 128.477 22.0734C128.285 21.9625 128.068 21.9044 127.846 21.9052C127.806 21.9052 127.271 21.9052 127.095 22.2288C127.063 22.2889 127.046 22.3563 127.047 22.4246C127.046 22.4921 127.064 22.5586 127.099 22.6163C127.203 22.7921 127.439 22.8441 127.83 22.928L128.27 23.0278C128.694 23.0837 129.089 23.2741 129.396 23.5712C129.483 23.6686 129.55 23.7823 129.593 23.9058C129.635 24.0293 129.653 24.16 129.644 24.2903C129.652 24.4671 129.618 24.6433 129.546 24.8049C129.474 24.9664 129.365 25.109 129.229 25.2212Z" fill="white"/>
<path d="M132.78 22.0131V25.5688H131.981V22.0131H130.823V21.2939H133.955V22.0131H132.78Z" fill="white"/>
<path d="M137.195 23.8708V25.5688H136.396V23.8708L134.974 21.2939H135.877L136.799 23.0558L137.726 21.2939H138.633L137.195 23.8708Z" fill="white"/>
<path d="M140.02 25.5688V21.2939H140.819V24.8297H142.509V25.5688H140.02Z" fill="white"/>
<path d="M143.971 25.5688V21.2939H146.999V22.0091H144.758V23.0079H146.812V23.6951H144.758V24.8337H147.155V25.5688H143.971Z" fill="white"/>
<path d="M25.1697 24.103H25.0139V23.9312H25.1777C25.2576 23.9312 25.2696 23.9832 25.2696 24.0151C25.2696 24.0471 25.2377 24.103 25.1697 24.103ZM25.3855 24.3148C25.3855 24.1949 25.3575 24.175 25.3056 24.155C25.336 24.1433 25.362 24.1224 25.3799 24.0951C25.3979 24.0679 25.4068 24.0357 25.4055 24.0032C25.4056 23.9778 25.4004 23.9526 25.3901 23.9294C25.3799 23.9062 25.3648 23.8854 25.3459 23.8684C25.3271 23.8514 25.3048 23.8386 25.2806 23.8309C25.2565 23.8231 25.2309 23.8206 25.2057 23.8234H24.8821V24.4546H25.0139V24.2069H25.1697C25.2696 24.2069 25.2736 24.2429 25.2736 24.3308C25.2651 24.3716 25.2651 24.4138 25.2736 24.4546H25.4174C25.3895 24.4546 25.3895 24.4227 25.3895 24.3308" fill="white"/>
<path d="M25.1336 24.6976C25.0253 24.6976 24.9195 24.6655 24.8295 24.6053C24.7395 24.5452 24.6693 24.4597 24.6279 24.3597C24.5865 24.2597 24.5756 24.1496 24.5967 24.0435C24.6179 23.9373 24.67 23.8398 24.7465 23.7632C24.8231 23.6867 24.9206 23.6345 25.0268 23.6134C25.133 23.5923 25.243 23.6031 25.343 23.6446C25.443 23.686 25.5285 23.7561 25.5887 23.8462C25.6488 23.9362 25.6809 24.042 25.6809 24.1502C25.6809 24.2954 25.6233 24.4346 25.5206 24.5373C25.418 24.6399 25.2787 24.6976 25.1336 24.6976ZM25.1336 23.499C25.0032 23.499 24.8757 23.5377 24.7673 23.6101C24.6589 23.6826 24.5744 23.7855 24.5245 23.906C24.4746 24.0264 24.4616 24.159 24.487 24.2868C24.5125 24.4147 24.5753 24.5322 24.6674 24.6244C24.7596 24.7166 24.8771 24.7793 25.005 24.8048C25.1328 24.8302 25.2654 24.8172 25.3858 24.7673C25.5063 24.7174 25.6093 24.6329 25.6817 24.5245C25.7541 24.4161 25.7928 24.2886 25.7928 24.1582C25.7928 23.9834 25.7233 23.8157 25.5997 23.6921C25.4761 23.5685 25.3084 23.499 25.1336 23.499Z" fill="white"/>
<path d="M28.8332 22.6085C28.7933 22.7483 28.7134 22.9561 28.6454 23.1199C28.5539 23.3056 28.4427 23.4811 28.3138 23.6432C28.2916 23.6654 28.2645 23.682 28.2346 23.6917C28.2048 23.7015 28.1731 23.704 28.1421 23.6992C27.569 23.3686 27.0238 22.9918 26.512 22.5725L26.1125 22.2649L24.7701 21.2901L23.8352 20.6109C23.236 20.1794 21.6778 19.0568 21.0386 18.6133C20.3035 18.0979 18.3338 16.6477 18.3099 16.6157L16.2044 15.1814L16.1285 15.2453L16.0566 15.3093C15.9327 15.4012 15.7569 15.537 15.5931 15.6728C15.4482 15.7646 15.3106 15.8674 15.1816 15.9805C15.0163 16.1269 14.84 16.2605 14.6543 16.38C14.5184 16.4639 14.3267 16.6077 14.1429 16.7515L13.8712 16.9553L13.7114 17.0672L13.3918 17.2909L12.9923 17.5586C12.7446 17.7423 12.5009 17.9261 12.2611 18.1139L12.1653 18.1858C11.8417 18.4335 11.4781 18.7212 10.9987 19.1606C10.6471 19.4803 9.89599 20.2673 9.86403 20.2993L9.78812 20.3752L9.88001 20.4631L10.6311 21.1742L11.6219 22.1131L13.0442 23.4834C13.6954 24.1347 13.6315 24.3065 13.5596 24.4862C13.5453 24.5306 13.5266 24.5735 13.5037 24.6141C13.4554 24.7147 13.4007 24.8121 13.3398 24.9057C13.2959 24.9697 13.244 25.0416 13.208 25.0855L13.18 25.1175L12.3331 24.4183C12.3331 24.4183 10.6271 23.008 10.2036 22.6445L10.0878 22.5446C9.62201 22.1193 9.13391 21.7192 8.62552 21.346C9.73618 19.9757 9.73618 19.9757 10.1437 19.4803C10.759 18.6812 11.3662 17.8822 11.9495 17.0831C11.9695 17.0392 11.9935 17.0072 11.9495 16.9793C11.9056 16.9513 11.8976 16.9793 11.8616 17.0152C11.8257 17.0512 11.8297 17.0791 7.10335 22.7963C6.6439 23.2877 6.26436 23.6792 5.97271 23.9948C6.18845 23.6712 6.44015 23.3077 6.69184 22.9401C6.91158 22.6444 7.11533 22.3728 7.25117 22.185C7.38701 21.9972 7.57079 21.7216 7.75057 21.4499L7.95033 21.1942C7.97599 21.1618 7.99254 21.1232 7.99827 21.0823L8.07818 20.9625L7.90638 20.8107L5.63711 18.897C4.99388 18.3576 4.29073 17.8103 3.69944 17.2989C3.87975 17.1035 4.08852 16.9365 4.3187 16.8035H4.35865C4.52937 16.8266 4.69374 16.8836 4.84207 16.9713C5.07778 17.1071 5.76096 17.5865 5.77295 17.5945L7.40698 18.6892C7.40698 18.6892 7.92636 19.0368 8.38181 19.3644C8.61753 19.5122 9.00107 19.7639 9.00506 19.7839L9.10894 19.8598L9.18085 19.7519C9.18085 19.7519 10.0758 18.4615 10.3874 17.9781C10.6231 17.6065 11.1385 16.6077 11.2983 16.2841C11.51 15.8846 11.8936 15.0855 12.0694 14.714C12.3371 14.1666 13.0482 12.6605 13.0482 12.6605L13.0882 12.5766L12.2891 11.8814C2.70863 2.74438 2.70464 2.74039 2.61674 2.6485C2.52885 2.55661 2.36105 2.34486 2.45693 2.19704C2.62888 1.99445 2.83428 1.82284 3.0642 1.68965C3.18406 1.62972 3.32389 1.55781 3.43975 1.50986C3.64753 1.40887 3.86419 1.32729 4.08697 1.26616C4.27624 1.24363 4.46813 1.26153 4.64995 1.3187C4.83177 1.37586 4.99939 1.47098 5.14171 1.59776H5.16168C5.94075 2.16907 9.03303 4.5542 9.44453 4.87382L11.526 6.53183C13.4437 8.05799 14.914 9.23258 14.9779 9.27652C15.2056 9.44033 15.3774 9.48028 15.4893 9.41236C15.7212 9.25177 15.932 9.06249 16.1165 8.84904C16.1165 8.84904 16.8516 8.08995 17.0714 7.8862L17.2551 7.71041C17.4709 7.50665 17.7346 7.25496 17.9064 7.11113C18.17 6.8874 18.6495 6.50785 18.8452 6.35604C19.041 6.20422 19.3566 5.98848 19.6443 5.78872L20.0198 5.52903C20.2795 5.34525 20.8189 5.00566 21.0905 4.85384C21.3622 4.70203 21.7417 4.51425 22.0134 4.37442C22.2058 4.26834 22.4179 4.20306 22.6367 4.18265H22.6726C22.7685 4.18265 22.8005 4.18265 22.8244 4.29452C22.8334 4.51318 22.8064 4.73183 22.7445 4.94174C22.6766 5.20942 22.4809 5.8047 22.381 6.08436C22.2292 6.48388 22.0014 7.09115 21.7777 7.57457L21.6818 7.79431L21.5739 8.03801C21.3702 8.43753 21.1744 8.83705 20.9307 9.23657C20.687 9.63609 20.4873 9.94772 20.2995 10.2274C20.0038 10.6669 19.3446 11.5458 19.3406 11.5538C19.1468 11.7993 18.9667 12.0554 18.8013 12.3209C18.7214 12.4847 18.8972 12.6844 18.9052 12.6924C20.1216 13.9133 21.4132 15.0568 22.7725 16.1163C23.3198 16.5678 23.8352 16.9873 24.2228 17.3149L24.5783 17.6265C24.7741 17.7983 24.9779 17.9861 25.1017 18.0859C25.3934 18.3336 25.9007 18.7212 26.3402 19.0688L26.8716 19.4683L26.9675 19.5442C27.4476 19.9062 27.9052 20.2971 28.3378 20.7148L28.4577 20.8346C28.6042 20.9499 28.7261 21.0935 28.816 21.2569C28.9059 21.4202 28.962 21.6 28.981 21.7855C28.9594 22.0562 28.9099 22.324 28.8332 22.5845V22.6085ZM23.4757 21.366C23.2138 21.9183 22.9148 22.4522 22.5807 22.9641C22.0633 23.6886 21.4566 24.345 20.7749 24.9177L20.2715 25.3172C19.4209 25.904 18.486 26.358 17.4988 26.6636C16.7319 26.8843 15.9425 27.0183 15.1457 27.0631L7.95432 27.3268H7.6427C7.14786 27.2934 6.67268 27.1202 6.27235 26.8274C6.01896 26.6319 5.80134 26.394 5.62912 26.1243C5.43242 25.7997 5.31092 25.4352 5.27355 25.0575C5.3974 24.9417 6.26036 24.1387 8.15808 22.0612C10.5552 23.9069 11.1025 24.3264 12.2292 25.2014C12.4568 25.4039 12.6999 25.5882 12.9563 25.7527C13.1321 25.7727 13.208 25.5729 13.2599 25.489L13.4277 25.2174L13.5276 25.0815C13.5955 24.9748 13.6568 24.864 13.7114 24.7499C13.7353 24.7032 13.7566 24.6552 13.7753 24.6061C13.8912 24.3104 13.9152 24.0468 13.2 23.3316L11.7777 21.9573L10.7869 20.9864L10.1477 20.3752C10.3594 20.1554 10.9028 19.5761 11.1784 19.3404C11.6539 18.9089 12.0134 18.6213 12.3291 18.3816C12.6447 18.1419 13.2919 17.6584 13.6994 17.3708L13.8432 17.2829C14.3119 16.9773 14.8098 16.7191 15.3295 16.5118C15.5579 16.4414 15.7993 16.4232 16.0358 16.4584C16.2723 16.4937 16.4978 16.5816 16.6958 16.7156L23.5116 21.2621L23.4757 21.366ZM5.34147 21.2461C5.34147 20.7507 5.36943 20.2433 5.38541 19.7439V19.5522L5.96472 20.0875L5.34147 21.2461ZM6.21242 20.3153C6.71981 20.7747 7.15529 21.1742 7.37902 21.3979C7.08737 21.8774 6.67986 22.5046 6.27235 23.1159L5.69704 23.9709C5.54922 24.1906 5.40539 24.3943 5.27355 24.5741C5.27355 24.5022 5.3175 22.8043 5.33348 21.8614C5.4773 21.6137 5.90878 20.8226 6.21242 20.3232V20.3153ZM5.34147 14.8858C5.36144 12.5726 5.50926 10.0915 6.37622 7.86622C6.41218 7.77034 6.48809 7.55859 6.56799 7.3868L8.01425 8.86902C7.59076 10.0356 7.19124 11.2182 6.85565 12.3848C6.4526 13.7613 5.96151 15.1104 5.38541 16.4239C5.3368 15.9101 5.32212 15.3936 5.34147 14.8778V14.8858ZM8.85324 15.545C9.39659 14.3105 10.0718 12.8322 10.695 11.6057L10.9387 11.8534C11.0706 11.9893 11.4461 12.4048 11.59 12.5845L11.6499 12.6605C11.6898 12.7284 11.7258 12.7923 11.7578 12.8602C11.7796 12.935 11.7709 13.0154 11.7338 13.0839C11.0662 14.8858 10.2814 16.6421 9.3846 18.3416C9.18085 18.6812 9.17685 18.6932 8.79332 19.3204L8.53762 19.1766C8.08217 18.853 7.5628 18.5054 7.5588 18.5014L7.31509 18.3376C7.87645 17.444 8.38989 16.5211 8.85324 15.573V15.545ZM8.78932 9.67205L9.98788 10.8986C9.42056 12.4008 8.66946 13.8031 8.15408 15.3173C7.79452 16.2601 7.395 17.163 6.95553 18.0819L5.92077 17.3908C5.92077 17.3908 5.69304 17.227 5.46532 17.0751C5.86484 16.2282 6.26436 15.3852 6.66388 14.5382C7.0634 13.6912 7.41897 12.8882 7.79052 12.0612C7.99428 11.5698 8.40578 10.539 8.60954 10.0636C8.67346 9.91975 8.74537 9.78791 8.79731 9.68803L8.78932 9.67205ZM10.8109 3.19584C11.5972 2.81873 12.4088 2.497 13.24 2.233C15.8049 1.49788 21.9016 1.59776 22.3131 1.59776C22.6127 1.59776 21.2743 2.03723 20.9867 2.07319C19.7521 2.17706 18.5416 2.33288 17.335 2.55261C16.3876 2.75074 15.4535 3.00827 14.5384 3.32368C13.1275 3.83152 11.8121 4.57298 10.6471 5.51705L9.58836 4.69004L9.06499 4.29052C9.61785 3.88114 10.2016 3.51516 10.8109 3.19584ZM22.8604 1.7336C22.9213 1.73335 22.9814 1.74701 23.0362 1.77355C23.16 1.82549 23.236 1.84147 23.184 1.87742C22.7697 2.17901 22.3314 2.44625 21.8736 2.67646C21.1039 3.0693 20.3019 3.39544 19.4765 3.65129C18.1087 4.07334 16.7822 4.61894 15.5132 5.28133L14.838 5.68085C14.1056 6.14366 13.4216 6.67905 12.7965 7.27893L11.6778 6.388L11.4581 6.21221L12.0214 5.76075C12.5568 5.38121 13.1001 5.03363 13.6754 4.70203C14.6724 4.16073 15.7104 3.69853 16.7797 3.31969C17.4469 3.10395 18.1101 2.92017 18.7773 2.74438C19.6123 2.56859 20.711 2.54063 21.518 2.25697C21.9695 2.06919 22.385 1.88142 22.8324 1.7336H22.8604ZM23.6674 2.13312C23.6674 2.13312 23.7673 2.18505 23.7633 2.19704C23.4909 2.7299 23.0983 3.19218 22.6167 3.54741C21.8429 3.98259 21.0422 4.36824 20.2196 4.70203C19.6243 5.00167 19.045 5.31729 18.4737 5.66087C17.6703 6.16563 16.8979 6.71795 16.1605 7.31488C15.6331 7.77034 15.1337 8.24177 14.6503 8.74117C14.3546 8.50146 13.9311 8.16586 13.4517 7.79031C14.083 7.25496 14.5903 6.83147 15.2695 6.34805C16.2913 5.66372 17.3592 5.05099 18.4657 4.51425L19.3127 4.11473C20.0038 3.83107 20.703 3.5634 21.3822 3.24778C22.1213 2.84826 22.8604 2.38082 23.4876 2.04922C23.5276 2.02525 23.5875 2.08917 23.6594 2.13312H23.6674ZM24.1069 2.53264C24.13 2.55062 24.1514 2.57068 24.1708 2.59256C24.5133 2.9852 24.7231 3.47598 24.7701 3.99488V4.45033C24.613 8.65328 24.4571 12.8536 24.3027 17.0512C23.9271 16.7276 23.4477 16.336 22.9443 15.9245C21.5994 14.8743 20.3199 13.7428 19.1129 12.5366C19.0865 12.5061 19.0661 12.4709 19.053 12.4327C19.1369 12.2809 19.4525 11.8694 19.5644 11.7176C19.5644 11.7176 20.2276 10.8267 20.5312 10.3792L20.5831 10.2953C20.6014 10.2729 20.6174 10.2488 20.6311 10.2234C20.687 10.1475 20.739 10.0636 20.7949 9.97568L20.8428 9.90777C20.9747 9.70002 21.1145 9.47229 21.2703 9.20861C21.5208 8.79283 21.7424 8.36033 21.9335 7.91416L22.0294 7.69842C22.2571 7.20302 22.4849 6.60374 22.6367 6.18824C22.7445 5.89659 22.9363 5.30131 23.0122 5.02164C23.0793 4.77998 23.1063 4.52894 23.0921 4.27854C23.0921 4.15069 23.1161 4.01086 23.1401 3.87902C23.166 3.73375 23.2263 3.59678 23.3159 3.4795C23.5915 3.15988 23.8792 2.82029 24.1548 2.50467L24.1069 2.53264ZM28.6375 20.6748C28.5982 20.6396 28.5609 20.6022 28.5256 20.563C28.0828 20.1354 27.6145 19.7352 27.1233 19.3644L27.0274 19.2885L26.496 18.889C26.0526 18.5454 25.5532 18.1539 25.2655 17.9101C25.2057 17.8639 25.1484 17.8145 25.0937 17.7623V4.10275V3.88701C25.0487 3.48213 24.9186 3.09133 24.7121 2.7402C24.5055 2.38907 24.2272 2.08553 23.8952 1.84946C23.452 1.53911 22.9327 1.3554 22.393 1.3181H13.7234L13.2639 1.34207C12.2388 1.43392 11.233 1.67763 10.2795 2.0652L9.85204 2.25297C9.19075 2.57886 8.56992 2.98113 8.00227 3.45153C6.97151 2.65249 5.76096 1.7336 5.3135 1.40599C5.14524 1.25465 4.94675 1.14077 4.73117 1.0719C4.51559 1.00302 4.28785 0.980722 4.063 1.00647C3.81942 1.07162 3.58263 1.15992 3.35585 1.27015C3.19205 1.33807 2.95633 1.45393 2.82849 1.52984C2.39575 1.72567 2.00085 1.99614 1.66189 2.32888C1.55802 2.45273 1.55802 2.48869 1.66189 2.58857C1.88317 2.72077 2.09539 2.86759 2.29713 3.02804C3.12014 3.82708 3.89521 4.65009 4.69424 5.46111L4.71822 5.48908L5.63312 6.43195L5.60115 6.51984C5.36497 7.18823 5.19763 7.87898 5.10175 8.58136C5.05781 8.94492 5.02585 9.31648 5.00187 9.68404C4.91798 12.0332 4.94594 14.3864 4.94195 16.7396C4.73986 16.6209 4.50906 16.5601 4.27475 16.5638C3.9428 16.7431 3.64522 16.9798 3.39581 17.2629L3.29992 17.3588C3.26697 17.3851 3.24047 17.4185 3.22246 17.4566C3.20445 17.4947 3.19542 17.5364 3.19605 17.5785C3.19605 17.6305 3.25997 17.6584 3.3998 17.7663C3.61155 17.9341 4.22281 18.5134 4.92597 19.1566V19.2485C4.92597 19.8039 4.92597 23.2437 4.92597 24.9617C4.92597 25.0496 4.94994 25.1375 4.95793 25.2253C5.04513 25.7104 5.24643 26.1678 5.54522 26.5597C5.56995 26.5932 5.59806 26.624 5.62912 26.6516C5.88785 26.9473 6.20403 27.1873 6.55843 27.357C6.91284 27.5266 7.29805 27.6224 7.69064 27.6384C17.0594 27.6384 17.0594 27.6384 17.2791 27.6384C17.7386 27.6025 18.1621 27.5426 18.6175 27.4627C19.6491 27.2235 20.6291 26.7998 21.51 26.2122L21.9095 25.9205C22.4683 25.4582 22.9772 24.9387 23.4277 24.3704C23.6315 24.0827 23.6315 24.0827 23.8272 23.7751C24.1446 23.2485 24.4121 22.6934 24.6263 22.1171L24.6542 22.0212H24.6862C25.6291 22.6524 26.5959 23.2677 27.5228 23.9309C27.7108 24.101 27.8883 24.2825 28.0542 24.4742C28.178 24.5781 28.21 24.5661 28.3138 24.4463C28.6871 23.8819 28.9488 23.2513 29.0849 22.5885C29.1609 22.3282 29.2078 22.0602 29.2248 21.7895C29.2067 21.5712 29.1447 21.3589 29.0424 21.1653C28.9401 20.9716 28.7996 20.8007 28.6295 20.6628" fill="white"/>
<path d="M13.3279 16.1719C13.1466 16.1244 12.9809 16.03 12.8476 15.8982C12.7144 15.7663 12.6182 15.6016 12.5688 15.4208C12.5891 15.167 12.6652 14.9209 12.7916 14.6999C12.9179 14.4789 13.0915 14.2885 13.3 14.1423C13.6316 14.0145 14.1589 14.4739 14.3947 14.7296C14.6903 15.0492 14.7103 15.221 14.4306 15.5287C14.1509 15.8363 13.8193 16.2158 13.3959 16.1759H13.3279V16.1719ZM15.4893 15.261C15.4134 15.261 15.4574 15.1691 15.4893 15.1092C15.8564 14.6117 16.2771 14.1562 16.7438 13.7508C16.9356 13.583 17.0874 13.6909 17.3071 13.607C17.3071 13.607 17.3591 13.571 17.3871 13.575C17.3853 13.5915 17.3802 13.6076 17.3719 13.622C17.3637 13.6364 17.3525 13.649 17.3391 13.6589C16.857 14.1816 16.3404 14.6714 15.793 15.1251C15.7009 15.2021 15.5885 15.2507 15.4694 15.265L15.4893 15.261ZM14.8461 11.114C14.5625 10.9781 14.7742 10.7144 14.8741 10.5786C15.2831 10.0415 15.7191 9.52541 16.1805 9.03247C16.1805 9.03247 16.2125 9.0045 16.2125 9.03247C16.2041 9.09805 16.188 9.16241 16.1645 9.22424C16.1126 9.48392 16.3004 9.62376 16.1166 9.87146C15.7893 10.2882 15.4413 10.6883 15.0738 11.07C15.0556 11.094 15.0321 11.1134 15.005 11.1266C14.9779 11.1398 14.9481 11.1464 14.918 11.1459C14.8935 11.1414 14.8694 11.1347 14.8461 11.1259V11.114ZM18.9452 11.1459C18.6615 11.11 18.6376 11.114 18.5936 10.8343C18.4697 10.4815 18.2535 10.1683 17.9675 9.9273C17.6816 9.68631 17.3363 9.52631 16.9676 9.46395C16.628 9.46395 16.636 9.38804 16.568 9.0884C16.4881 8.60099 16.64 8.51709 17.0075 8.1695C17.2808 7.89833 17.6371 7.72658 18.0195 7.68167C18.4019 7.63677 18.7883 7.72132 19.117 7.9218L19.3287 8.06163C20.0518 8.64094 20.3475 9.37206 20.0079 10.235C19.8857 10.5154 19.7214 10.7755 19.5205 11.0061C19.343 11.1137 19.1361 11.1627 18.9292 11.1459" fill="white"/>
<path d="M13.1401 13.3034C13.1344 13.182 13.1635 13.0614 13.224 12.9559C13.5707 12.341 13.9577 11.7497 14.3826 11.186C14.3998 11.1566 14.4266 11.134 14.4585 11.1221C14.4667 11.1508 14.4667 11.1812 14.4585 11.21C14.4146 11.4417 14.5504 11.5695 14.4146 11.7893C14.0972 12.3192 13.722 12.8123 13.2959 13.2595C13.244 13.3114 13.1561 13.3714 13.1441 13.2915L13.1401 13.3034Z" fill="white"/>
<path d="M17.319 13.1002C17.3132 13.0711 17.3145 13.0409 17.3228 13.0124C17.3312 12.9839 17.3463 12.9578 17.367 12.9364C17.6866 12.5009 17.9942 12.1054 18.3578 11.6939C18.5535 11.4742 18.7573 11.63 18.989 11.5301C19.0459 11.4971 19.1062 11.4703 19.1688 11.4502C19.1688 11.4502 19.1688 11.4702 19.1688 11.4862C18.7663 12.0267 18.3369 12.5467 17.8823 13.0443C17.7625 13.1681 17.5468 13.4438 17.359 13.1721C17.347 13.1488 17.3363 13.1248 17.327 13.1002" fill="white"/>
<path d="M149.312 3.65582V4.96624H148.969V3.65582H148.517V3.37615H149.736V3.65582H149.312ZM151.17 4.96624V3.70776L150.843 4.96624H150.563L150.219 3.68778V4.96624H149.896V3.36816H150.403L150.675 4.48282L150.938 3.36816H151.442V4.96624H151.17Z" fill="white"/>
</svg>
