<svg width="54" height="29" viewBox="0 0 54 29" fill="none" xmlns="http://www.w3.org/2000/svg">
<path fill-rule="evenodd" clip-rule="evenodd" d="M15.6329 0H23.3684C24.0884 0 24.9236 0.206567 25.4873 0.881459L35.8123 10.9578H48.3283C49.4549 10.9578 50.5628 11.3361 51.4317 12.063L52.4939 12.9515C53.5819 13.8616 53.4934 15.1854 52.5592 16.1621L52.5286 16.1942L51.2547 17.2598C50.3858 17.9866 49.2778 18.365 48.1513 18.365H7.96754C5.99357 18.365 4.20706 17.2654 3.74687 15.5878L0.591797 6.51543H5.78533L9.32575 10.9578H23.2448L15.6329 0ZM18.7124 1.4841L26.3242 12.4419H8.37954L4.83912 7.99952H2.95183L5.46187 15.2171L5.46808 15.2404C5.7268 16.2143 6.7648 16.8809 7.96754 16.8809H48.1513C48.7949 16.8809 49.4571 16.6669 50.0044 16.2092L51.2058 15.2042C51.6566 14.712 51.5652 14.2711 51.2435 14.002L50.1814 13.1136C49.6342 12.6558 48.9719 12.4419 48.3283 12.4419H34.9993L24.0783 1.78389L24.0486 1.74661C23.9042 1.56543 23.6961 1.4841 23.3684 1.4841H18.7124Z" fill="#C4C4C4"/>
<path d="M0 28H53.1062" stroke="#C4C4C4" stroke-miterlimit="10"/>
<circle r="1.14921" transform="matrix(-1 0 0 1 24.2727 19.2078)" fill="#C4C4C4" stroke="#C4C4C4"/>
<circle r="1.14921" transform="matrix(-1 0 0 1 45.2277 19.2078)" fill="#C4C4C4" stroke="#C4C4C4"/>
</svg>
