<svg width="22" height="22" viewBox="0 0 22 22" fill="none" xmlns="http://www.w3.org/2000/svg">
<circle cx="11" cy="11" r="11" fill="#2E2E2E"/>
<path d="M15.2214 6.5H6.53819C5.85435 6.5 5.29999 7.06861 5.29999 7.77002V14.23C5.29999 14.9314 5.85435 15.5 6.53819 15.5H15.2214C15.9052 15.5 16.4596 14.9314 16.4596 14.23V7.77002C16.4596 7.06861 15.9052 6.5 15.2214 6.5Z" stroke="#C4C4C4" stroke-miterlimit="10"/>
<path d="M7 14L9.0128 11.6408L9.95588 12.5943L11.9902 10L15 14H7Z" fill="#C4C4C4"/>
<path d="M7.94651 9.76076C8.39719 9.76076 8.76253 9.38603 8.76253 8.92378C8.76253 8.46152 8.39719 8.08679 7.94651 8.08679C7.49584 8.08679 7.13049 8.46152 7.13049 8.92378C7.13049 9.38603 7.49584 9.76076 7.94651 9.76076Z" fill="#C4C4C4"/>
</svg>
