<svg width="36" height="36" viewBox="0 0 36 36" fill="none" xmlns="http://www.w3.org/2000/svg">
<circle cx="18.1332" cy="29.4613" r="1.78947" fill="#C4C4C4" stroke="white"/>
<circle cx="18" cy="18" r="17" stroke="white"/>
<path fill-rule="evenodd" clip-rule="evenodd" d="M18.4426 4.98871C14.5486 4.79986 11.3767 6.29772 9.10977 8.39948C6.85332 10.4915 5.47088 13.2024 5.16195 15.4926C4.72375 18.741 5.08925 21.0856 5.81797 22.9334C6.48221 24.6177 7.44147 25.8646 8.28351 26.9591L8.28352 26.9591C8.35901 27.0573 8.43355 27.1542 8.50686 27.25L8.65695 27.4464H8.90406H14.13L14.4692 26.4464H9.15077L9.08358 26.3589C8.23588 25.2558 7.35858 24.1141 6.74825 22.5665C6.0904 20.8984 5.73443 18.729 6.15297 15.6263C6.42733 13.5924 7.68275 11.0862 9.78965 9.1328C11.8861 7.18915 14.803 5.81337 18.3942 5.98754C24.8612 6.30117 28.8709 10.6666 29.8748 16.5508C30.6413 21.0437 28.2938 24.9263 26.9053 26.4464H21.9181L22.2546 27.4464H27.1211H27.3322L27.4794 27.2951C28.9728 25.761 31.7266 21.4587 30.8606 16.3827C29.7902 10.1088 25.4483 5.32847 18.4426 4.98871Z" fill="#C4C4C4"/>
<path d="M18 5.47266V11.2884" stroke="white"/>
<path d="M24.7031 7.26172L22.5407 10.658" stroke="white"/>
<path d="M10.8418 7.26172L13.0051 10.6575" stroke="white"/>
<path d="M13.5781 27.216L16.1221 23.1914H20.1571L22.6892 27.1379" stroke="white"/>
<path d="M5.47461 16.2109H30.5272" stroke="white"/>
<path d="M18.1094 22.7344L18.1094 19.9776" stroke="white"/>
<path fill-rule="evenodd" clip-rule="evenodd" d="M21.0801 16.2101C21.0801 17.9106 19.7016 19.2891 18.0011 19.2891C16.3007 19.2891 14.9222 17.9106 14.9222 16.2101C14.9222 16.1302 14.9252 16.051 14.9312 15.9727L13.929 15.9727C13.9245 16.0512 13.9222 16.1304 13.9222 16.2101C13.9222 18.4629 15.7484 20.2891 18.0011 20.2891C20.2539 20.2891 22.0801 18.4629 22.0801 16.2101C22.0801 16.1304 22.0778 16.0512 22.0733 15.9727L21.0711 15.9727C21.077 16.051 21.0801 16.1302 21.0801 16.2101Z" fill="#C4C4C4"/>
<circle cx="17.9652" cy="16.1507" r="1.34211" fill="#C4C4C4" stroke="white"/>
</svg>
