<?xml version="1.0" encoding="UTF-8"?><svg id="Layer_2" xmlns="http://www.w3.org/2000/svg" viewBox="0 0 27.96 27.96"><defs><style>.cls-1{fill:#c4c4c4;stroke-width:0px;}</style></defs><g id="Layer_1-2"><path class="cls-1" d="m13.98,27.96C6.27,27.96,0,21.69,0,13.98S6.27,0,13.98,0s13.98,6.27,13.98,13.98-6.27,13.98-13.98,13.98ZM13.98.64C6.63.64.64,6.63.64,13.98s5.98,13.34,13.34,13.34,13.34-5.98,13.34-13.34S21.34.64,13.98.64Z"/><path class="cls-1" d="m13.98,13.94c-.83,0-1.51-.68-1.51-1.51s.68-1.51,1.51-1.51,1.51.68,1.51,1.51-.68,1.51-1.51,1.51Zm0-2.38c-.48,0-.87.39-.87.87s.39.87.87.87.87-.39.87-.87-.39-.87-.87-.87Z"/><path class="cls-1" d="m13.98,15.64c-1.66,0-3.03-1.27-3.19-2.89h-6.75v-.64h7.38v.32c0,1.42,1.15,2.57,2.57,2.57s2.57-1.15,2.57-2.57v-.32h7.42v.64h-6.79c-.16,1.62-1.53,2.89-3.2,2.89Z"/><path class="cls-1" d="m13.98,24.97c-1.01,0-1.83-.82-1.83-1.83s.82-1.83,1.83-1.83,1.83.82,1.83,1.83-.82,1.83-1.83,1.83Zm0-3.01c-.65,0-1.18.53-1.18,1.18s.53,1.18,1.18,1.18,1.18-.53,1.18-1.18-.53-1.18-1.18-1.18Z"/><path class="cls-1" d="m21.34,21.36h-4.21l-1.87-2.99h-2.56l-1.87,2.99h-4.21l-.09-.1c-1.92-1.96-2.97-4.55-2.97-7.29,0-5.75,4.68-10.42,10.42-10.42s10.42,4.68,10.42,10.42c0,2.74-1.05,5.33-2.97,7.29l-.09.1Zm-3.86-.64h3.58c1.74-1.83,2.7-4.21,2.7-6.74,0-5.39-4.39-9.78-9.78-9.78S4.2,8.59,4.2,13.98c0,2.52.96,4.91,2.7,6.74h3.58l1.87-2.99h3.27l1.87,2.99Z"/><rect class="cls-1" x="13.66" y="15.38" width=".64" height="2.58"/><rect class="cls-1" x="13.66" y="3.95" width=".64" height="4.61"/><rect class="cls-1" x="17.04" y="6.44" width="2.98" height=".64" transform="translate(2.77 18.63) rotate(-57.03)"/><rect class="cls-1" x="9.06" y="5.28" width=".64" height="2.98" transform="translate(-2.17 6.2) rotate(-32.96)"/></g></svg>