<svg width="29" height="28" viewBox="0 0 29 28" fill="none" xmlns="http://www.w3.org/2000/svg">
<path fill-rule="evenodd" clip-rule="evenodd" d="M8.81181 4.44832H21.0123C21.8652 4.44832 22.5566 5.13973 22.5566 5.99262V18.1942C22.5566 19.047 21.8652 19.7385 21.0123 19.7385H8.81181V20.6585H21.0123C22.3733 20.6585 23.4766 19.5551 23.4766 18.1942V5.99262C23.4766 4.63162 22.3733 3.52832 21.0123 3.52832H8.81181V4.44832ZM6.2637 10.1717C6.2637 8.76449 7.40451 7.62368 8.81177 7.62368C10.219 7.62368 11.3598 8.76449 11.3598 10.1717C11.3598 11.579 10.219 12.7198 8.81177 12.7198C7.40451 12.7198 6.2637 11.579 6.2637 10.1717ZM8.81177 6.70368C6.89641 6.70368 5.3437 8.25639 5.3437 10.1717C5.3437 12.0871 6.89641 13.6398 8.81177 13.6398C10.7271 13.6398 12.2798 12.0871 12.2798 10.1717C12.2798 8.25639 10.7271 6.70368 8.81177 6.70368ZM8.60139 15.4789C5.62742 15.5326 3.42269 17.4684 3.42269 19.697H2.50269C2.50269 16.7581 5.37159 14.5578 8.72815 14.5578V14.6203L8.73917 14.5678L14.5624 15.79C15.0225 15.8865 15.5015 15.7683 15.8637 15.4687L19.4647 12.491L20.051 13.2L16.45 16.1777C15.8719 16.6557 15.1076 16.8444 14.3734 16.6904L8.60139 15.4789Z" fill="#C4C4C4"/>
</svg>
