<svg width="21" height="18" viewBox="0 0 21 18" fill="none" xmlns="http://www.w3.org/2000/svg">
<path fill-rule="evenodd" clip-rule="evenodd" d="M6.31181 1.4493H18.5123C19.3652 1.4493 20.0566 2.1407 20.0566 2.99359V15.1951C20.0566 16.048 19.3652 16.7394 18.5123 16.7394H6.31181V17.6594H18.5123C19.8733 17.6594 20.9766 16.5561 20.9766 15.1951V2.99359C20.9766 1.6326 19.8733 0.529297 18.5123 0.529297H6.31181V1.4493ZM3.7637 7.17273C3.7637 5.76547 4.90451 4.62466 6.31177 4.62466C7.71902 4.62466 8.85983 5.76547 8.85983 7.17273C8.85983 8.57998 7.71902 9.72079 6.31177 9.72079C4.90451 9.72079 3.7637 8.57998 3.7637 7.17273ZM6.31177 3.70466C4.39641 3.70466 2.8437 5.25737 2.8437 7.17273C2.8437 9.08809 4.39641 10.6408 6.31177 10.6408C8.22713 10.6408 9.77983 9.08809 9.77983 7.17273C9.77983 5.25737 8.22713 3.70466 6.31177 3.70466ZM6.10139 12.4799C3.12742 12.5335 0.922686 14.4694 0.922686 16.698H0.00268555C0.00268555 13.759 2.87159 11.5588 6.22815 11.5588V11.6213L6.23917 11.5688L12.0624 12.791C12.5225 12.8875 13.0015 12.7693 13.3637 12.4697L16.9647 9.492L17.551 10.201L13.95 13.1787C13.3719 13.6567 12.6076 13.8454 11.8734 13.6913L6.10139 12.4799Z" fill="#C4C4C4"/>
</svg>
