<svg width="26" height="26" viewBox="0 0 26 26" fill="none" xmlns="http://www.w3.org/2000/svg">
<circle cx="13" cy="13" r="13" fill="#2E2E2E"/>
<path d="M18.4263 14.9339V16.8775C18.4263 18.7483 16.9603 20.2303 15.1277 20.3517C15.0544 20.376 14.9811 20.376 14.9078 20.376H12.1712C11.0472 20.376 9.99653 19.8658 9.3368 18.9912L8.87256 18.3595C8.72595 18.1652 8.65265 17.9222 8.65265 17.655V16.4888C8.65265 16.1487 8.79925 15.8085 9.06803 15.5899L9.80105 15.0068V16.1001C9.80105 16.3187 9.97209 16.4888 10.192 16.4888C10.3875 16.4888 10.5829 16.3187 10.5829 16.1244L10.6074 9.15692C10.6074 8.62242 11.0228 8.1851 11.5847 8.1851C12.1223 8.1851 12.5621 8.62242 12.5621 9.15692V12.9174C12.7576 12.723 13.0264 12.6015 13.344 12.6015C13.906 12.6015 14.3702 13.0146 14.4924 13.5734C14.6879 13.2332 15.0544 12.9903 15.4942 12.9903C16.0562 12.9903 16.5204 13.4033 16.6426 13.9621C16.8137 13.8406 17.0091 13.7677 17.2535 13.7677C17.8888 13.7677 18.4263 14.3022 18.4263 14.9339Z" fill="#C4C4C4"/>
<path fill-rule="evenodd" clip-rule="evenodd" d="M9.36365 9.22107C9.36365 7.99441 10.3581 7 11.5847 7C12.8114 7 13.8058 7.99441 13.8058 9.22107C13.8058 9.72526 13.638 10.1903 13.3546 10.5634V11.9141L13.4257 11.8645C14.2589 11.2833 14.8058 10.3161 14.8058 9.22107C14.8058 7.44212 13.3637 6 11.5847 6C9.80577 6 8.36365 7.44212 8.36365 9.22107C8.36365 10.3161 8.91051 11.2833 9.74377 11.8645L9.8091 11.9101V10.5557C9.52915 10.1839 9.36365 9.72182 9.36365 9.22107Z" fill="#C4C4C4"/>
</svg>
