<?xml version="1.0" encoding="UTF-8"?><svg id="Layer_2" xmlns="http://www.w3.org/2000/svg" viewBox="0 0 39.43 27.78"><defs><style>.cls-1{fill:#c4c4c4;stroke-width:0px;}</style></defs><g id="Layer_1-2"><path class="cls-1" d="m39.11,27.78C11.28,27.78.3,23.19.19,23.14c-.16-.07-.24-.26-.17-.42.07-.17.26-.24.42-.17.11.05,10.99,4.59,38.66,4.59.18,0,.32.14.32.32s-.14.32-.32.32Z"/><path class="cls-1" d="m12.49.64s.01,0,.02,0c.56.07,2.09.27,2.92.47,1.03.24,1.46,1.09,2.13,2.18.19.31,1.31,2.06,2.35,3.8.03.04.07.07.12.07,0,0,0,0,0,0,.14,0,.29-.02.44-.02.42-.02.81-.03,1.19-.03,3.57,0,5.51.83,6.29,1.31.8.49,2.55,2.06,2.8,2.29.02.02.04.03.07.03,2.57.45,5.27,1.78,6.54,2.47.31.17.27.64-.07.76-.89.29-1.9.47-2.05.5-.01,0-.03,0-.04.01l-.63.32c-.49.25-1.73.37-2.33.41-.12,0-.18.17-.09.25.58.54,1.62,1.82,2.01,2.07.64.41,1.06.74,1.01,1.42-.04.51-.67.79-.83.85-.02,0-.04.02-.06.04-.23.27-.49.37-.73.37-.44,0-.84-.34-.96-.64-.01-.04-.04-.07-.08-.08-.36-.16-1.19-.5-1.42-.63-.08-.04-.09-.14-.04-.21l.25-.33s.05-.05.09-.05l1.52-.16c.12-.02.16-.17.07-.25l-2.55-2.66s-.05-.03-.08-.03l-5.8-.68s-.01,0-.02,0c-.07,0-.12.05-.14.11l-.39,1.78c-.01.07.02.13.08.16.18.09.53.31.56.74.05.75-.72.89-.9.91-.02,0-.05.01-.07.03-.26.2-.49.28-.68.28-.47,0-.76-.42-.83-.54-.01-.02-.03-.04-.05-.05l-1.24-.67c-.05-.03-.08-.09-.07-.15l.07-.4c.01-.06.06-.11.13-.12l1.83-.22c.06,0,.11-.05.12-.11l.38-1.78c.02-.08-.03-.15-.1-.17-1.4-.39-13.52-3.57-16.71-4.49-1.82-.52-2.2-1.58-2.35-2.81-.1-.78-.49-4.1-.46-5,0-.08.07-.14.15-.14,0,0,.02,0,.02,0,2.13.31,2.31.48,2.85,1.86.26.67,1.19,2.66,1.85,3.34.66.68,2.64.82,4.34,1.03.42.05.81.09,1.23.09.03,0,.05,0,.08,0,.09,0,.16-.09.14-.18-.52-2.12-1.74-6.25-2-7.16-.03-.09.04-.19.14-.19m0-.64c-.24,0-.48.12-.63.31-.15.2-.2.45-.13.69l.21.73c.39,1.34,1.16,3.97,1.62,5.76-.19-.02-.38-.04-.58-.06l-.63-.07c-1.23-.14-2.91-.33-3.33-.77-.53-.55-1.41-2.35-1.71-3.13-.64-1.65-1.05-1.92-3.35-2.26h-.05s-.07,0-.07,0c-.43,0-.78.33-.79.76-.04,1.08.46,5.06.46,5.1.18,1.37.64,2.72,2.81,3.34,2.14.61,8.12,2.2,12.48,3.36,1.66.44,3.04.81,3.78,1.01l-.21.97-1.47.18c-.34.03-.63.3-.68.65l-.07.4c-.06.33.1.66.4.82l1.14.61c.2.27.63.72,1.3.72.33,0,.66-.11.97-.33.71-.14,1.37-.67,1.31-1.57-.03-.42-.23-.79-.57-1.06l.22-1.01,5.17.61,1.73,1.8-.5.05c-.23.04-.41.14-.53.3l-.25.33c-.14.18-.19.41-.15.64.04.22.18.41.38.53.19.11.58.27,1.1.5l.22.09c.27.44.82.84,1.46.84.3,0,.73-.09,1.13-.5.33-.15,1.07-.56,1.13-1.36.08-1.12-.75-1.65-1.31-2-.16-.1-.66-.65-.99-1.02-.07-.07-.13-.15-.2-.22.72-.09,1.23-.22,1.54-.38l.57-.29c.3-.05,1.24-.23,2.07-.51.4-.13.68-.49.72-.91.04-.42-.18-.82-.55-1.02-1.36-.74-4-2.03-6.59-2.51-.5-.45-2.01-1.79-2.79-2.26-.69-.42-2.72-1.4-6.62-1.4-.39,0-.79,0-1.22.03h-.14c-.79-1.31-1.59-2.58-1.99-3.21l-.21-.33-.18-.29c-.6-.98-1.16-1.9-2.36-2.18-.85-.2-2.37-.4-2.99-.48h-.04s-.06,0-.06,0h0Z"/></g></svg>