<svg width="29" height="21" viewBox="0 0 29 21" fill="none" xmlns="http://www.w3.org/2000/svg">
<path fill-rule="evenodd" clip-rule="evenodd" d="M12.0892 0L16.2023 1.43254C16.7228 1.58871 17.0021 2.00477 17.1253 2.32036C17.1256 2.32113 17.1259 2.32189 17.1262 2.32266L20.1305 9.79178L26.9002 12.0962C27.5445 12.3172 28.059 12.7583 28.3168 13.3107L28.3189 13.3152L28.6273 14.0204C28.9266 14.6688 28.6177 15.4203 27.8986 15.7902L27.8716 15.8041L26.9092 16.1708L26.9002 16.1739C26.2643 16.3919 25.6143 16.3921 24.9783 16.1743C24.9779 16.1741 24.9775 16.174 24.9771 16.1739L3.2869 8.85909L3.2767 8.8552C2.17667 8.43606 1.51053 7.56504 1.63814 6.55929L2.21018 0.968414L5.0546 1.86683L5.87826 4.95619L13.4269 7.4986L12.0892 0ZM13.3785 1.39996L14.7126 8.87815L4.99741 5.60605L4.17689 2.52848L3.11639 2.19352L2.6608 6.64617L2.66014 6.65125C2.58559 7.22652 2.94322 7.7606 3.68436 8.04643L25.3588 15.3559C25.7472 15.4891 26.1218 15.4901 26.51 15.3588L27.3931 15.0223C27.6817 14.8615 27.7761 14.5681 27.6709 14.3427L27.6689 14.3382L27.3607 13.6338C27.2069 13.3073 26.9006 13.0454 26.5193 12.9145C26.519 12.9144 26.5188 12.9143 26.5185 12.9142L19.3128 10.4613L16.1522 2.60341L16.1513 2.60125C16.07 2.39207 15.9432 2.28701 15.8597 2.26315L15.8441 2.25868L13.3785 1.39996Z" fill="#CCCCCC"/>
<path fill-rule="evenodd" clip-rule="evenodd" d="M0.837418 16.3612C0.837155 16.3611 0.836927 16.361 1.12193 16.0971C1.40694 15.8331 1.40678 15.8331 1.40666 15.833L1.40709 15.8332L1.41061 15.8346C1.41408 15.836 1.41981 15.8383 1.42778 15.8415C1.44373 15.8479 1.46868 15.8577 1.50263 15.8708C1.57053 15.897 1.67444 15.9362 1.81435 15.9866C2.09417 16.0874 2.51799 16.2329 3.08581 16.4082C4.22143 16.7587 5.93307 17.2287 8.22078 17.6995C12.7955 18.641 19.6771 19.5867 28.8674 19.5867V20.2211C19.5608 20.2211 12.5696 19.2634 7.89582 18.3014C5.55929 17.8206 3.80275 17.3388 2.62625 16.9756C2.038 16.794 1.59478 16.6421 1.29657 16.5347C1.14746 16.481 1.0346 16.4384 0.957999 16.4088C0.919696 16.3941 0.890456 16.3825 0.870277 16.3745C0.860188 16.3705 0.852364 16.3673 0.846806 16.3651L0.840167 16.3624L0.838122 16.3615L0.837418 16.3612Z" fill="#CCCCCC"/>
</svg>
