<svg width="25" height="28" viewBox="0 0 25 28" fill="none" xmlns="http://www.w3.org/2000/svg">
<g clip-path="url(#clip0_6518_73984)">
<path d="M24.1541 14.1218C24.1863 13.7472 24.0925 13.3726 23.8876 13.0573C23.6827 12.7421 23.3784 12.5043 23.023 12.3816C22.8142 12.312 22.7968 12.1641 22.7968 12.0075V11.8856C22.7968 11.0155 22.7968 10.537 22.7533 9.61467C22.6973 8.25032 22.3376 6.91564 21.7004 5.7079C20.6695 3.79318 19.0874 2.2321 17.1591 1.22684C15.2308 0.221568 13.0451 -0.181577 10.885 0.0696119C9.14152 0.236061 7.46692 0.834131 6.01243 1.80982C4.57593 2.72221 3.39708 3.98734 2.58828 5.48462C1.77948 6.98189 1.36769 8.66138 1.39217 10.363V11.9814C1.41069 12.0712 1.3939 12.1647 1.34529 12.2425C1.29668 12.3202 1.21999 12.3763 1.13114 12.399C0.881732 12.4881 0.658657 12.6383 0.482328 12.836C0.305998 13.0336 0.182046 13.2722 0.121815 13.5301C0.121815 13.6259 0.0696084 13.7216 0.0348042 13.8173L0 13.9217V19.2293V19.2989L0.0522063 19.4817C0.103442 19.8321 0.265295 20.157 0.514163 20.409C0.76303 20.661 1.0859 20.8269 1.43567 20.8825C1.72361 20.9253 2.01502 20.9398 2.30578 20.926C2.37822 20.9217 2.45086 20.9217 2.52331 20.926C2.62239 20.9109 2.72346 20.9352 2.80481 20.9938C2.88615 21.0524 2.94128 21.1405 2.95836 21.2393C2.99863 21.4529 3.11742 21.6437 3.29134 21.7742C3.46526 21.9046 3.68171 21.9652 3.89807 21.9441H4.19391C4.38511 21.9311 4.57698 21.9311 4.76818 21.9441C4.90885 21.9732 5.05421 21.9712 5.19401 21.9381C5.33381 21.905 5.46467 21.8417 5.57738 21.7526C5.69513 21.6416 5.78726 21.5062 5.84737 21.356C5.90748 21.2057 5.93411 21.0441 5.92542 20.8825V12.2685C5.94229 12.1295 5.93055 11.9885 5.89091 11.8542C5.85127 11.7199 5.78457 11.5951 5.69492 11.4875C5.60528 11.3799 5.49457 11.2918 5.36961 11.2286C5.24465 11.1654 5.10808 11.1284 4.9683 11.12C4.58986 11.0722 4.20691 11.0722 3.82846 11.12C3.60111 11.1305 3.3859 11.2256 3.22496 11.3866C3.06402 11.5475 2.96895 11.7627 2.95836 11.9901C2.95404 12.0313 2.94157 12.0713 2.92168 12.1076C2.90179 12.144 2.87488 12.1761 2.84251 12.202C2.81013 12.2279 2.77294 12.2471 2.73308 12.2585C2.69322 12.2699 2.65149 12.2733 2.61032 12.2685V12.2685C2.33188 12.2685 2.33188 12.0597 2.33188 11.9292V11.6507C2.33188 11.0764 2.33188 10.7806 2.33188 10.1019C2.32654 8.84715 2.60308 7.60719 3.14108 6.47359C4.06064 4.55909 5.5734 2.9924 7.45452 2.00638C9.33565 1.02035 11.4847 0.667627 13.5823 1.00062C15.7862 1.28475 17.8256 2.31678 19.3599 3.92418C20.8977 5.47446 21.8087 7.53816 21.918 9.71908C21.918 10.3021 21.918 10.6762 21.918 11.1113C21.918 11.3462 21.918 11.5985 21.918 11.903C21.918 12.0684 21.918 12.2685 21.6395 12.2685C21.5937 12.2747 21.5472 12.2711 21.5029 12.2577C21.4587 12.2443 21.4179 12.2216 21.3832 12.1911C21.3485 12.1605 21.3208 12.1229 21.302 12.0807C21.2832 12.0385 21.2737 11.9928 21.2741 11.9466C21.257 11.7452 21.1704 11.556 21.0291 11.4115C20.8878 11.2671 20.7006 11.1763 20.4997 11.1548C20.1225 11.0987 19.7402 11.0841 19.3599 11.1113C19.2149 11.0967 19.0686 11.1142 18.9312 11.1626C18.7938 11.211 18.6687 11.289 18.5649 11.3912C18.4611 11.4933 18.381 11.6171 18.3305 11.7537C18.2799 11.8903 18.26 12.0363 18.2722 12.1815C18.2722 12.5817 18.2722 12.982 18.2722 13.3648V15.8011C18.2722 17.4978 18.2722 18.9857 18.2722 20.926C18.2432 21.1273 18.2857 21.3324 18.3922 21.5057C18.4987 21.6789 18.6625 21.8094 18.8552 21.8745C18.922 21.8897 18.985 21.9184 19.0403 21.9588C19.0957 21.9992 19.1422 22.0504 19.1771 22.1094C19.1977 22.1784 19.2044 22.2509 19.197 22.3225C19.1895 22.3942 19.168 22.4637 19.1336 22.527C19.1151 22.5751 19.1006 22.6246 19.0901 22.675L19.0379 22.8403C18.8229 23.3995 18.4867 23.9041 18.0534 24.3178C17.6201 24.7315 17.1005 25.0441 16.532 25.2331C15.7636 25.5246 14.952 25.6863 14.1305 25.7116H14.0696V25.5463C14.0696 25.5463 14.0696 25.4593 14.0696 25.4158C14.0674 25.273 14.0366 25.1321 13.9791 25.0013C13.9216 24.8706 13.8385 24.7527 13.7347 24.6546C13.6309 24.5564 13.5085 24.4801 13.3748 24.43C13.241 24.3799 13.0986 24.3571 12.9559 24.363H10.5457C10.4042 24.358 10.2632 24.3824 10.1316 24.4346C10 24.4867 9.88065 24.5655 9.78097 24.666C9.68128 24.7665 9.60345 24.8866 9.55237 25.0186C9.50129 25.1506 9.47807 25.2918 9.48415 25.4332C9.48415 25.9901 9.48415 26.5034 9.48415 26.982C9.47688 27.1165 9.49758 27.2511 9.54495 27.3772C9.59231 27.5033 9.66532 27.6183 9.75935 27.7147C9.85338 27.8112 9.96639 27.8872 10.0912 27.9378C10.2161 27.9884 10.3501 28.0125 10.4848 28.0087C11.3027 28.0087 12.1554 28.0087 13.0168 28.0087C13.153 28.0124 13.2885 27.988 13.4148 27.9371C13.5412 27.8862 13.6557 27.8097 13.7512 27.7126C13.8467 27.6154 13.9212 27.4997 13.97 27.3725C14.0188 27.2453 14.0408 27.1094 14.0348 26.9733C14.0284 26.9256 14.0326 26.8771 14.0469 26.8312C14.0612 26.7853 14.0853 26.7431 14.1176 26.7074C14.1499 26.6718 14.1896 26.6437 14.2339 26.625C14.2782 26.6063 14.3261 26.5974 14.3741 26.5991L14.7831 26.5382C15.2055 26.4961 15.6242 26.4234 16.036 26.3207C18.4375 25.7029 19.8036 24.3717 20.2039 22.2399C20.2039 22.1355 20.3605 22.0224 20.4736 21.9789C20.8564 21.8571 21.0653 21.7004 21.1175 21.4655C21.248 20.987 21.5438 20.9173 21.9876 20.9608H22.2834C22.5219 20.9833 22.7625 20.9562 22.9901 20.8813C23.2177 20.8065 23.4273 20.6854 23.606 20.5258C23.7988 20.3388 23.9509 20.114 24.0527 19.8654C24.1545 19.6169 24.2039 19.3499 24.1976 19.0814C24.1889 17.1846 24.1889 16.0709 24.1541 14.1218ZM3.83717 12.1815V12.138C3.85718 12.1332 3.87805 12.1332 3.89807 12.138L4.35053 12.0945C4.61156 12.0945 4.74208 12.0945 4.82039 12.0945C4.89869 12.0945 4.9074 12.3294 4.9074 12.6426V20.6302C4.9074 21.0566 4.9074 21.0827 4.44624 21.0914H4.42884C4.15911 21.0914 4.01989 21.0914 3.93288 20.9957C3.84587 20.8999 3.83717 20.7433 3.83717 20.4301V12.1815ZM2.61032 13.1212C2.65627 13.1132 2.70342 13.1153 2.74849 13.1273C2.79356 13.1393 2.83548 13.161 2.87135 13.1908C2.90396 13.2271 2.92856 13.2699 2.94355 13.3164C2.95854 13.3629 2.96359 13.412 2.95836 13.4605C2.95836 14.3306 2.95836 15.2007 2.95836 16.1231V17.8633C2.95836 18.4375 2.95836 18.8378 2.95836 19.6557C2.96485 19.7117 2.9597 19.7684 2.94323 19.8223C2.92676 19.8762 2.89933 19.9261 2.86265 19.9689C2.83248 19.997 2.79677 20.0185 2.75781 20.032C2.71885 20.0455 2.6775 20.0507 2.63642 20.0472H2.00124C1.26165 20.0472 0.939714 19.7079 0.939714 18.977C0.939714 18.481 0.939714 18.307 0.939714 18.1069V17.0628C0.939714 16.1318 0.939714 15.2094 0.939714 14.2784C0.939714 13.5737 1.20945 13.2691 1.89683 13.1995C2.0272 13.1908 2.15801 13.1908 2.28838 13.1995C2.39767 13.1823 2.50535 13.1562 2.61032 13.1212V13.1212ZM13.1734 26.2946V26.747C13.1692 26.791 13.1563 26.8336 13.1354 26.8725C13.1144 26.9113 13.086 26.9456 13.0516 26.9733C12.9739 27.0379 12.8738 27.0692 12.7732 27.0603H10.6936C10.6122 27.0658 10.5316 27.041 10.4674 26.9907C10.4075 26.9109 10.3795 26.8116 10.3891 26.7122C10.3891 26.3729 10.3891 26.0075 10.3891 25.555C10.3822 25.509 10.3848 25.4622 10.3968 25.4173C10.4087 25.3724 10.4298 25.3304 10.4587 25.294C10.5265 25.2371 10.614 25.209 10.7023 25.2157H12.8515C12.8952 25.2119 12.9393 25.2168 12.9812 25.2303C13.023 25.2437 13.0617 25.2654 13.0951 25.294C13.123 25.326 13.1443 25.3633 13.1577 25.4036C13.1712 25.4439 13.1765 25.4865 13.1734 25.5289C13.1734 25.7986 13.1734 26.051 13.1734 26.2946ZM20.3431 20.5867C20.3431 21.0305 20.3431 21.0566 19.8819 21.0653H19.2206V18.7421C19.2206 16.619 19.2206 14.7831 19.2206 12.4425C19.2124 12.381 19.2166 12.3185 19.233 12.2587C19.2495 12.1989 19.2778 12.1431 19.3163 12.0945C19.4064 12.0277 19.518 11.9967 19.6296 12.0075H19.6905C20.3257 12.0075 20.3518 12.0075 20.3518 12.7122L20.3431 20.5867ZM23.2057 19.2119C23.2149 19.3285 23.1987 19.4457 23.1582 19.5555C23.1177 19.6652 23.0539 19.7648 22.9712 19.8475C22.8885 19.9302 22.7889 19.994 22.6791 20.0345C22.5694 20.075 22.4522 20.0912 22.3356 20.082H21.4655C21.3881 20.0879 21.3111 20.0663 21.248 20.0211C21.2019 19.9618 21.1801 19.8871 21.1871 19.8123C21.1871 17.8111 21.1871 16.3754 21.1871 14.5917V13.3474C21.1821 13.3245 21.1821 13.3008 21.1871 13.2778C21.1904 13.2606 21.1904 13.2429 21.1871 13.2256V13.2256H22.3008C22.4102 13.2275 22.5181 13.252 22.6176 13.2977C22.7171 13.3433 22.806 13.4091 22.8788 13.4909C22.9515 13.5726 23.0066 13.6686 23.0404 13.7727C23.0742 13.8768 23.086 13.9868 23.0752 14.0957C23.2144 15.9229 23.2144 17.1237 23.2057 19.2119Z" fill="#D1D1D1"/>
</g>
<defs>
<clipPath id="clip0_6518_73984">
<rect width="24.1802" height="28" fill="white"/>
</clipPath>
</defs>
</svg>
