<svg width="29" height="28" viewBox="0 0 29 28" fill="none" xmlns="http://www.w3.org/2000/svg">
<g clip-path="url(#clip0_1639_1763)">
<path fill-rule="evenodd" clip-rule="evenodd" d="M6.52656 3.29004H22.4726L27.2146 15.9874L26.2091 16.3629L21.7277 4.36337H7.2721L2.84541 16.246L1.8396 15.8713L6.52656 3.29004Z" fill="#C4C4C4"/>
<path fill-rule="evenodd" clip-rule="evenodd" d="M21.8786 11.9708H7.00891V10.8975H21.8786V11.9708Z" fill="#C4C4C4"/>
<path fill-rule="evenodd" clip-rule="evenodd" d="M20.2796 8.0206H8.26508V6.94727H20.2796V8.0206Z" fill="#C4C4C4"/>
<path fill-rule="evenodd" clip-rule="evenodd" d="M1.72144 16.4402C1.72144 15.6368 2.37285 14.9854 3.17632 14.9854H11.1547V15.522C11.1547 17.3841 12.664 18.8935 14.5261 18.8935C16.3882 18.8935 17.8976 17.3841 17.8976 15.522V14.9854H25.8234C26.6269 14.9854 27.2783 15.6368 27.2783 16.4402V26.1386C27.2783 26.9421 26.6269 27.5935 25.8234 27.5935H3.17632C2.37285 27.5935 1.72144 26.9421 1.72144 26.1386V16.4402ZM3.17632 16.0587C2.96564 16.0587 2.79477 16.2296 2.79477 16.4402V26.1386C2.79477 26.3493 2.96564 26.5202 3.17632 26.5202H25.8234C26.0341 26.5202 26.205 26.3493 26.205 26.1386V16.4402C26.205 16.2296 26.0341 16.0587 25.8234 16.0587H18.9389C18.6739 18.2605 16.7994 19.9668 14.5261 19.9668C12.2529 19.9668 10.3784 18.2605 10.1134 16.0587H3.17632Z" fill="#C4C4C4"/>
</g>
<defs>
<clipPath id="clip0_1639_1763">
<rect width="25.6667" height="26.6538" fill="white" transform="translate(1.66669 1.16699)"/>
</clipPath>
</defs>
</svg>
