<?xml version="1.0" encoding="UTF-8" standalone="no"?>
<!-- Created with Inkscape (http://www.inkscape.org/) -->

<svg
   version="1.1"
   id="svg2"
   xml:space="preserve"
   width="168.02667"
   height="144.38667"
   viewBox="0 0 572.02667 144.38667"
   sodipodi:docname="Approach_horizontal_white.eps"
   xmlns:inkscape="http://www.inkscape.org/namespaces/inkscape"
   xmlns:sodipodi="http://sodipodi.sourceforge.net/DTD/sodipodi-0.dtd"
   xmlns="http://www.w3.org/2000/svg"
   xmlns:svg="http://www.w3.org/2000/svg"><defs
     id="defs6" /><sodipodi:namedview
     id="namedview4"
     pagecolor="#ffffff"
     bordercolor="#666666"
     borderopacity="1.0"
     inkscape:pageshadow="2"
     inkscape:pageopacity="0.0"
     inkscape:pagecheckerboard="0" /><g
     id="g8"
     inkscape:groupmode="layer"
     inkscape:label="ink_ext_XXXXXX"
     transform="matrix(1.3333333,0,0,-1.3333333,0,144.38667)"><g
       id="g10"
       transform="scale(0.1)"><path
         d="M 965.453,759.559 917.465,600.43 h 95.485 z m 84.707,-283.504 -20.07,67.566 H 900.324 l -20.07,-67.566 H 810.723 L 927.75,821.746 h 73.45 l 118,-345.691 h -69.04"
         style="fill:#ffffff;fill-opacity:1;fill-rule:nonzero;stroke:none"
         id="path12" /><path
         d="m 1380.7,740.957 c -14.69,25.457 -43.58,25.457 -68.55,25.457 h -49.46 V 646.453 h 46.52 c 4.41,0 9.3,0.488 13.71,0.488 33.3,1.477 47.99,11.75 56.31,25.461 3.43,5.879 9.3,18.614 9.3,36.239 0,10.773 -2.44,22.519 -7.83,32.316 z m 28.4,-127.805 c -29.87,-19.089 -62.18,-19.578 -95.97,-19.578 h -50.44 V 476.055 h -64.63 v 345.691 h 116.54 c 8.32,0 16.65,0.488 24.97,0 15.18,-0.976 58.76,-3.914 89.61,-40.144 24.97,-28.899 25.95,-61.211 25.95,-74.922 0,-53.86 -27.91,-81.77 -46.03,-93.528"
         style="fill:#ffffff;fill-opacity:1;fill-rule:nonzero;stroke:none"
         id="path14" /><path
         d="m 1721.03,740.957 c -14.68,25.457 -43.58,25.457 -68.55,25.457 h -49.45 V 646.453 h 46.51 c 4.41,0 9.31,0.488 13.72,0.488 33.29,1.477 47.98,11.75 56.3,25.461 3.43,5.879 9.31,18.614 9.31,36.239 0,10.773 -2.45,22.519 -7.84,32.316 z m 28.4,-127.805 c -29.87,-19.089 -62.18,-19.578 -95.97,-19.578 h -50.43 V 476.055 h -64.64 v 345.691 h 116.54 c 8.33,0 16.65,0.488 24.97,0 15.18,-0.976 58.76,-3.914 89.61,-40.144 24.97,-28.899 25.95,-61.211 25.95,-74.922 0,-53.86 -27.91,-81.77 -46.03,-93.528"
         style="fill:#ffffff;fill-opacity:1;fill-rule:nonzero;stroke:none"
         id="path16" /><path
         d="m 2046.68,755.645 c -11.27,7.343 -24.49,10.281 -51.91,10.281 h -52.39 V 658.203 h 23.01 c 37.7,0 61.21,0 76.88,8.328 9.79,5.383 25.95,18.117 25.95,46.028 0,8.808 -0.98,29.375 -21.54,43.086 z m 22.03,-279.59 -68.06,128.289 h -58.27 V 476.055 h -64.14 v 345.691 h 141.5 c 15.67,0 62.19,-1.465 93.04,-42.109 20.08,-26.434 21.06,-56.309 21.06,-67.567 0,-5.39 -0.5,-22.531 -6.37,-38.683 -5.39,-14.199 -22.04,-44.071 -61.7,-56.317 l 76.88,-141.015 h -73.94"
         style="fill:#ffffff;fill-opacity:1;fill-rule:nonzero;stroke:none"
         id="path18" /><path
         d="m 2458.01,725.781 c -18.12,29.375 -45.54,45.535 -80.3,45.535 -21.55,0 -37.22,-6.855 -44.07,-10.281 -24.49,-13.222 -54.84,-45.539 -54.84,-110.176 0,-13.222 0.49,-76.875 48.96,-108.703 21.06,-13.711 42.11,-14.687 50.93,-14.687 6.85,0 22.52,0.488 39.66,8.32 25.46,11.758 58.76,41.133 60.22,106.262 0.5,28.398 -4.89,58.758 -20.56,83.73 z m 37.7,-209.082 c -7.83,-8.332 -27.91,-28.398 -58.75,-39.668 -10.78,-3.918 -30.85,-9.797 -60.23,-9.797 -48.97,0 -86.18,16.164 -118.5,53.379 -32.32,36.719 -46.02,79.817 -46.02,127.805 0,11.258 0.48,37.695 10.27,67.078 22.53,69.043 81.78,115.07 155.72,115.07 66.59,0 106.25,-36.242 122.41,-54.843 18.12,-20.567 43.58,-60.715 43.09,-126.817 0,-21.554 -2.45,-82.754 -47.99,-132.207"
         style="fill:#ffffff;fill-opacity:1;fill-rule:nonzero;stroke:none"
         id="path20" /><path
         d="M 2757.71,759.559 2709.72,600.43 h 95.48 z m 84.71,-283.504 -20.08,67.566 h -129.76 l -20.07,-67.566 h -69.53 L 2720,821.746 h 73.45 l 118.01,-345.691 h -69.04"
         style="fill:#ffffff;fill-opacity:1;fill-rule:nonzero;stroke:none"
         id="path22" /><path
         d="m 3253.75,525.996 c -16.16,-20.566 -53.86,-58.762 -123.39,-58.762 -11.76,0 -39.67,0.989 -69.54,14.7 -39.17,18.601 -92.05,65.613 -92.05,167.949 0,18.601 0,68.055 31.83,113.601 16.64,23.985 56.31,67.082 132.21,67.082 66.1,0 100.87,-32.812 116.53,-54.843 11.26,-16.653 18.12,-33.789 23.99,-51.907 l -64.14,-16.648 c -0.49,4.414 -2.45,15.672 -8.82,27.422 -13.21,24.48 -39.17,37.215 -66.59,36.726 -19.58,0 -33.29,-5.878 -40.15,-9.304 -25.46,-12.735 -54.84,-46.028 -54.84,-110.664 0,-9.785 0.49,-50.918 20.56,-81.77 6.86,-10.281 15.18,-19.101 24.98,-25.457 20.57,-14.211 41.13,-15.676 50.43,-15.676 26.93,0 47.01,10.774 63.66,31.34 6.85,8.32 12.24,18.602 13.71,21.055 1.96,4.402 3.43,8.32 6.36,17.137 l 61.21,-25.457 c -7.34,-17.629 -14.2,-31.34 -25.95,-46.524"
         style="fill:#ffffff;fill-opacity:1;fill-rule:nonzero;stroke:none"
         id="path24" /><path
         d="M 3574.49,476.055 V 633.23 H 3426.13 V 476.055 H 3361 v 345.691 h 65.13 V 691.504 h 148.36 v 130.242 h 65.13 V 476.055 h -65.13"
         style="fill:#ffffff;fill-opacity:1;fill-rule:nonzero;stroke:none"
         id="path26" /><path
         d="m 863.117,355.203 v -88.582 h -19.922 v 88.582 h -28.972 v 17.961 h 78.32 v -17.961 h -29.426"
         style="fill:#ffffff;fill-opacity:1;fill-rule:nonzero;stroke:none"
         id="path28" /><path
         d="m 980.773,352.793 c -3.468,2.266 -7.543,3.164 -15.996,3.164 h -16.144 v -33.195 h 7.094 c 11.617,0 18.863,0 23.691,2.558 3.016,1.66 8,5.586 8,14.192 0,2.715 -0.305,9.051 -6.645,13.281 z m 6.793,-86.172 -20.976,39.539 h -17.957 v -39.539 h -19.774 v 106.543 h 43.614 c 4.832,0 19.168,-0.449 28.677,-12.98 6.19,-8.153 6.49,-17.352 6.49,-20.829 0,-1.66 -0.15,-6.933 -1.96,-11.914 -1.66,-4.386 -6.793,-13.586 -19.02,-17.363 l 23.7,-43.457 h -22.794"
         style="fill:#ffffff;fill-opacity:1;fill-rule:nonzero;stroke:none"
         id="path30" /><path
         d="m 1083.64,353.992 -14.79,-49.043 h 29.43 z m 26.11,-87.371 -6.19,20.828 h -39.99 l -6.19,-20.828 h -21.43 l 36.07,106.543 h 22.64 l 36.36,-106.543 h -21.27"
         style="fill:#ffffff;fill-opacity:1;fill-rule:nonzero;stroke:none"
         id="path32" /><path
         d="m 1165.53,266.621 v 106.543 h 19.62 V 266.621 h -19.62"
         style="fill:#ffffff;fill-opacity:1;fill-rule:nonzero;stroke:none"
         id="path34" /><path
         d="m 1295.88,266.621 -46.63,74.695 1.21,-74.695 h -19.47 v 106.543 h 17.96 l 47.24,-75.156 -2.42,75.156 h 19.62 V 266.621 h -17.51"
         style="fill:#ffffff;fill-opacity:1;fill-rule:nonzero;stroke:none"
         id="path36" /><path
         d="m 1358.6,266.621 v 106.543 h 19.62 V 266.621 h -19.62"
         style="fill:#ffffff;fill-opacity:1;fill-rule:nonzero;stroke:none"
         id="path38" /><path
         d="m 1488.95,266.621 -46.63,74.695 1.21,-74.695 h -19.47 v 106.543 h 17.96 l 47.24,-75.156 -2.42,75.156 h 19.62 V 266.621 h -17.51"
         style="fill:#ffffff;fill-opacity:1;fill-rule:nonzero;stroke:none"
         id="path40" /><path
         d="m 1625.92,266.621 -0.15,9.051 c -8.6,-7.996 -17.36,-11.766 -29.28,-11.766 -6.49,0 -21.28,0.907 -34.1,13.426 -6.19,6.191 -15.85,19.473 -15.85,41.504 0,13.586 4.07,27.766 12.53,38.477 4.83,6.035 17.5,18.566 39.08,18.566 3.02,0 9.81,-0.305 17.51,-3.164 6.94,-2.727 20.37,-9.817 27.31,-28.223 l -19.01,-7.551 c -1.81,5.137 -7.4,20.977 -25.96,20.977 -3.62,0 -12.07,-0.605 -19.16,-7.695 -5.14,-5.282 -10.57,-14.336 -10.57,-30.782 0,-4.382 0,-20.378 12.23,-30.632 5.28,-4.387 11.16,-6.047 17.95,-6.047 10.57,0 19.92,5.136 24,15.097 0.9,2.11 1.66,4.68 2.26,9.504 h -26.56 v 17.508 h 44.82 v -58.25 h -17.05"
         style="fill:#ffffff;fill-opacity:1;fill-rule:nonzero;stroke:none"
         id="path42" /><path
         d="m 1770.24,355.352 v -26.555 h 44.52 v -17.059 h -44.52 v -45.117 h -19.77 v 106.543 h 70.48 v -17.812 h -50.71"
         style="fill:#ffffff;fill-opacity:1;fill-rule:nonzero;stroke:none"
         id="path44" /><path
         d="m 1926.99,343.582 c -5.58,9.055 -14.04,14.035 -24.75,14.035 -6.64,0 -11.47,-2.109 -13.58,-3.164 -7.55,-4.082 -16.9,-14.035 -16.9,-33.957 0,-4.07 0.15,-23.691 15.08,-33.504 6.49,-4.23 12.98,-4.523 15.7,-4.523 2.11,0 6.94,0.148 12.22,2.558 7.85,3.625 18.11,12.676 18.57,32.754 0.15,8.75 -1.51,18.106 -6.34,25.801 z m 11.62,-64.434 c -2.41,-2.566 -8.6,-8.757 -18.11,-12.226 -3.32,-1.211 -9.51,-3.016 -18.56,-3.016 -15.1,0 -26.56,4.981 -36.52,16.446 -9.96,11.316 -14.19,24.597 -14.19,39.394 0,3.465 0.15,11.609 3.17,20.672 6.94,21.27 25.2,35.461 47.99,35.461 20.52,0 32.75,-11.164 37.73,-16.906 5.58,-6.336 13.43,-18.711 13.28,-39.082 0,-6.641 -0.75,-25.508 -14.79,-40.743"
         style="fill:#ffffff;fill-opacity:1;fill-rule:nonzero;stroke:none"
         id="path46" /><path
         d="m 2045.54,352.793 c -3.47,2.266 -7.54,3.164 -16,3.164 h -16.14 v -33.195 h 7.09 c 11.62,0 18.86,0 23.69,2.558 3.02,1.66 8,5.586 8,14.192 0,2.715 -0.3,9.051 -6.64,13.281 z m 6.79,-86.172 -20.97,39.539 h -17.96 v -39.539 h -19.77 v 106.543 h 43.61 c 4.83,0 19.17,-0.449 28.68,-12.98 6.18,-8.153 6.48,-17.352 6.48,-20.829 0,-1.66 -0.15,-6.933 -1.96,-11.914 -1.66,-4.386 -6.79,-13.586 -19.02,-17.363 l 23.7,-43.457 h -22.79"
         style="fill:#ffffff;fill-opacity:1;fill-rule:nonzero;stroke:none"
         id="path48" /><path
         d="m 2221.42,308.719 v -42.098 h -19.77 v 42.098 l -35.62,64.445 h 22.64 l 23.09,-44.062 23.24,44.062 h 22.33 l -35.91,-64.445"
         style="fill:#ffffff;fill-opacity:1;fill-rule:nonzero;stroke:none"
         id="path50" /><path
         d="m 2355.68,343.582 c -5.58,9.055 -14.04,14.035 -24.75,14.035 -6.64,0 -11.47,-2.109 -13.58,-3.164 -7.55,-4.082 -16.9,-14.035 -16.9,-33.957 0,-4.07 0.15,-23.691 15.09,-33.504 6.49,-4.23 12.97,-4.523 15.69,-4.523 2.11,0 6.94,0.148 12.23,2.558 7.84,3.625 18.11,12.676 18.56,32.754 0.15,8.75 -1.51,18.106 -6.34,25.801 z m 11.62,-64.434 c -2.41,-2.566 -8.6,-8.757 -18.11,-12.226 -3.32,-1.211 -9.51,-3.016 -18.56,-3.016 -15.09,0 -26.56,4.981 -36.52,16.446 -9.96,11.316 -14.19,24.597 -14.19,39.394 0,3.465 0.15,11.609 3.17,20.672 6.94,21.27 25.2,35.461 47.99,35.461 20.53,0 32.75,-11.164 37.73,-16.906 5.58,-6.336 13.43,-18.711 13.28,-39.082 0,-6.641 -0.75,-25.508 -14.79,-40.743"
         style="fill:#ffffff;fill-opacity:1;fill-rule:nonzero;stroke:none"
         id="path52" /><path
         d="m 2506.22,288.348 c -3.47,-10.711 -15.69,-24.442 -41.8,-24.442 -12.52,0 -25.05,3.016 -33.8,12.676 -1.36,1.356 -4.98,5.731 -6.79,11.465 -1.66,5.437 -1.66,10.418 -1.66,21.738 v 63.379 h 20.07 v -65.5 c 0,-6.336 0,-8.601 1.05,-11.766 1.97,-6.339 7.7,-12.675 21.89,-12.675 2.56,0 17.2,0 21.58,12.07 1.21,3.477 1.36,6.336 1.36,13.426 v 64.445 h 19.92 v -61.426 c 0,-12.218 0.15,-17.355 -1.82,-23.39"
         style="fill:#ffffff;fill-opacity:1;fill-rule:nonzero;stroke:none"
         id="path54" /><path
         d="m 2605.31,352.793 c -3.47,2.266 -7.54,3.164 -15.99,3.164 h -16.15 v -33.195 h 7.09 c 11.62,0 18.86,0 23.69,2.558 3.02,1.66 8,5.586 8,14.192 0,2.715 -0.3,9.051 -6.64,13.281 z m 6.79,-86.172 -20.97,39.539 h -17.96 v -39.539 h -19.77 v 106.543 h 43.61 c 4.83,0 19.17,-0.449 28.67,-12.98 6.19,-8.153 6.49,-17.352 6.49,-20.829 0,-1.66 -0.14,-6.933 -1.96,-11.914 -1.66,-4.386 -6.79,-13.586 -19.01,-17.363 l 23.69,-43.457 h -22.79"
         style="fill:#ffffff;fill-opacity:1;fill-rule:nonzero;stroke:none"
         id="path56" /><path
         d="m 2736.67,266.621 v 106.543 h 20.07 V 284.727 H 2799 v -18.106 h -62.33"
         style="fill:#ffffff;fill-opacity:1;fill-rule:nonzero;stroke:none"
         id="path58" /><path
         d="m 2836.07,266.621 v 106.543 h 19.62 V 266.621 h -19.62"
         style="fill:#ffffff;fill-opacity:1;fill-rule:nonzero;stroke:none"
         id="path60" /><path
         d="m 2921.15,355.352 v -26.555 h 44.52 v -17.059 h -44.52 v -45.117 h -19.77 v 106.543 h 70.48 v -17.812 h -50.71"
         style="fill:#ffffff;fill-opacity:1;fill-rule:nonzero;stroke:none"
         id="path62" /><path
         d="m 3006.67,266.621 v 106.543 h 75.76 v -17.812 h -56.14 v -25.051 h 51.46 v -17.196 h -51.46 v -28.527 h 59.91 v -17.957 h -79.53"
         style="fill:#ffffff;fill-opacity:1;fill-rule:nonzero;stroke:none"
         id="path64" /><path
         d="m 3195.25,274.922 c -12.83,-10.871 -30.03,-11.016 -34.86,-11.016 -6.34,0 -26.71,0.301 -41.5,15.84 -1.81,1.961 -3.77,4.531 -5.13,6.942 l 16.75,11.621 c 4.68,-6.942 13.43,-15.996 33.05,-15.996 0.9,0 4.68,0 7.85,0.753 2.26,0.457 12.67,3.321 12.67,13.282 0,1.054 -0.15,3.925 -1.96,6.336 -3.62,4.836 -13.28,6.191 -18.56,7.394 l -12.68,2.871 c -5.43,1.211 -11.32,2.41 -16.14,4.981 -4.99,2.566 -15.25,9.355 -15.25,24.746 0,2.422 0.3,9.355 4.08,15.703 4.83,8.144 16.45,17.5 38.03,17.5 9.5,0 28.22,-1.504 43,-21.582 l -16.44,-12.219 c -3.32,5.274 -10.87,15.84 -27.62,15.84 -1.06,0 -14.49,0.156 -18.86,-8.145 -0.91,-1.66 -1.21,-3.171 -1.21,-4.832 0,-1.808 0.45,-3.32 1.35,-4.824 2.57,-4.375 8.46,-5.742 18.27,-7.851 l 11.01,-2.414 c 10.11,-2.266 21.28,-5.282 28.38,-13.582 3.01,-3.321 6.18,-8.145 6.18,-17.961 0,-9.657 -3.01,-17.051 -10.41,-23.387"
         style="fill:#ffffff;fill-opacity:1;fill-rule:nonzero;stroke:none"
         id="path66" /><path
         d="m 3284.23,355.203 v -88.582 h -19.92 v 88.582 h -28.97 v 17.961 h 78.32 v -17.961 h -29.43"
         style="fill:#ffffff;fill-opacity:1;fill-rule:nonzero;stroke:none"
         id="path68" /><path
         d="m 3394.65,308.719 v -42.098 h -19.77 v 42.098 l -35.62,64.445 h 22.64 l 23.09,-44.062 23.24,44.062 h 22.33 l -35.91,-64.445"
         style="fill:#ffffff;fill-opacity:1;fill-rule:nonzero;stroke:none"
         id="path70" /><path
         d="m 3465.37,266.621 v 106.543 h 20.07 v -88.437 h 42.26 v -18.106 h -62.33"
         style="fill:#ffffff;fill-opacity:1;fill-rule:nonzero;stroke:none"
         id="path72" /><path
         d="m 3564.32,266.621 v 106.543 h 75.77 v -17.812 h -56.15 v -25.051 h 51.47 v -17.196 h -51.47 v -28.527 h 59.92 v -17.957 h -79.54"
         style="fill:#ffffff;fill-opacity:1;fill-rule:nonzero;stroke:none"
         id="path74" /><path
         d="m 596.52,297.641 c 0,2.937 -0.719,3.441 -2.028,4 1.571,0.55 2.457,2.05 2.457,3.789 0,1.371 -0.777,4.461 -5,4.461 h -8.008 v -15.832 h 3.258 v 6.203 h 3.403 c 2.461,0 2.597,-0.832 2.597,-3.012 0,-1.609 0.121,-2.441 0.364,-3.191 h 3.648 v 0.421 c -0.691,0.258 -0.691,0.86 -0.691,3.161 m -5.457,5.281 h -3.864 v 4.25 h 4.133 c 1.93,0 2.301,-1.223 2.301,-2.07 0,-1.582 -0.84,-2.18 -2.57,-2.18"
         style="fill:#ffffff;fill-opacity:1;fill-rule:nonzero;stroke:none"
         id="path76" /><path
         d="m 589.781,318.211 c -9.109,0 -16.488,-7.398 -16.488,-16.5 0,-9.121 7.379,-16.512 16.488,-16.512 9.129,0 16.52,7.391 16.52,16.512 0,9.102 -7.391,16.5 -16.52,16.5 m 0,-30.25 c -7.59,0 -13.738,6.148 -13.738,13.75 0,7.59 6.148,13.738 13.738,13.738 7.602,0 13.75,-6.148 13.75,-13.738 0,-7.602 -6.148,-13.75 -13.75,-13.75"
         style="fill:#ffffff;fill-opacity:1;fill-rule:nonzero;stroke:none"
         id="path78" /><path
         d="m 677.465,388.684 c -1.031,1.019 -1.969,1.961 -2.789,2.839 -7.789,8.399 -24.852,21.872 -35.039,29.918 l -2.403,1.903 c -3.5,2.769 -8.218,6.418 -13.359,10.41 -11.07,8.578 -23.609,18.309 -30.828,24.418 -1.133,0.961 -2.652,2.269 -4.301,3.711 v 341.66 l -0.34,5.41 c -2.601,21.262 -12.32,37.531 -29.722,50.988 -11.637,8.024 -23.18,11.872 -37.52,13.231 h -216.98 c -3.84,-0.117 -7.68,-0.348 -11.528,-0.578 -26.543,-2.711 -50.281,-8.121 -74.703,-18.082 -3.609,-1.578 -7.117,-3.16 -10.629,-4.739 -18.238,-9.179 -31.16,-17.648 -46.371,-30.109 -25.738,19.789 -56.047,43.008 -67.2694,51.258 l -0.418,0.32 c -9.9687,7.891 -20.7109,11.16 -31.2304,9.52 -2.6407,-0.399 -8.6016,-2.598 -17.711,-6.508 -4.1211,-1.77 -9.6601,-4.609 -13.1875,-6.531 -10.6406,-5.149 -20.6328,-11.45 -29.27342,-20.219 -2.527343,-3.141 -2.609374,-3.973 0.52344,-6.473 5.58984,-3.437 10.77738,-6.609 15.79688,-10.609 20.6016,-19.68 40.1719,-40.629 60.082,-60.91 0.0078,-0.059 0.211,-0.321 0.5782,-0.699 l 22.9802,-23.629 -0.871,-2.219 c -6.1874,-17.043 -9.7382,-33.531 -12.5077,-51.531 -1.0195,-9.161 -1.8203,-18.43 -2.4805,-27.602 -2.121,-58.777 -1.3906,-117.699 -1.4882,-176.59 -2.8399,1.473 -11.3203,5.449 -16.6719,4.332 -5.8906,-1.25 -18.4297,-13.672 -22.1289,-17.441 l -2.4219,-2.469 0.3594,-0.301 c -2.1602,-2.101 -2.668,-3.519 -2.5899,-4.871 0.0821,-1.269 1.5899,-2.008 5.043,-4.719 5.3086,-4.148 20.6172,-18.66 38.2188,-34.781 l -0.0313,-2.277 c 0.0313,-13.91 0.1328,-99.582 0.2227,-142.992 0.2382,-2.258 0.5703,-4.399 0.789,-6.649 2.3789,-12.89 6.9102,-22.601 14.711,-33.359 0.6604,-0.774 1.3594,-1.57 2.1484,-2.352 13.449,-15.289 30.148,-22.961 51.531,-24.64 234.489,0 234.489,0 240.028,0.218 11.531,0.891 22.152,2.383 33.55,4.411 26.911,6.101 49.5,16.601 72.36,31.293 l 9.929,7.238 c 14.231,11.879 26.09,23.84 37.524,38.09 5.18,7.218 5.18,7.218 10.289,14.91 8.25,13.492 14.34,27.019 19.93,41.5 l 0.73,2.469 c 0.449,-0.297 0.75,-0.45 0.801,-0.45 23.617,-15.82 47.816,-31.179 70.969,-47.8 4.859,-4.188 8.918,-8.707 13.339,-13.571 3.04,-2.597 3.84,-2.367 6.442,0.692 9.598,13.8 15.719,30.351 19.367,46.492 1.43,5.328 3.551,15.16 3.52,20.258 -0.11,13.441 -9.059,22.332 -14.969,28.211 M 565.016,843.215 c 0.57,-0.453 1.32,-1.203 1.539,-1.551 9.172,-11.07 12.242,-21.519 13.832,-35.422 v -11.398 c -3.864,-105.231 -7.731,-210.352 -11.692,-315.391 -9.441,8.059 -21.379,17.852 -34.011,28.199 -33.508,27.461 -75.219,61.641 -95.868,84.723 -0.679,0.77 -1.363,2.02 -1.519,2.637 2.09,3.812 9.816,14.09 12.75,17.883 0.156,0.218 16.656,22.339 24.199,33.488 0.449,0.68 0.918,1.379 1.391,2.082 0.41,0.59 0.797,1.199 1.199,1.797 1.328,1.98 2.68,4.043 4.078,6.203 0.383,0.59 0.77,1.16 1.141,1.758 3.308,5.14 6.871,10.851 10.781,17.468 8.848,14.973 13.109,24.661 16.527,32.454 0.84,1.91 1.621,3.687 2.41,5.41 5.672,12.328 11.411,27.359 15.231,37.789 2.672,7.281 7.512,22.16 9.34,29.168 1.551,5.922 2.793,14.062 2.07,18.551 0.383,3.242 0.539,6.789 1.172,10.019 0.719,3.801 2.25,6.672 4.398,9.711 6.911,8.031 14.121,16.512 21.032,24.422 m -11.2,9.738 c 0.188,-0.109 2.508,-1.39 2.379,-1.601 -7.101,-12.661 -15.922,-25.18 -28.699,-33.86 -18.871,-11.758 -39.769,-19.57 -60,-28.84 -14.941,-7.55 -29.402,-15.468 -43.73,-24.07 -20.231,-12.867 -39.332,-26.309 -57.879,-41.348 -13.153,-11.429 -25.66,-23.25 -37.774,-35.679 -7.457,5.918 -18,14.32 -29.879,23.789 15.731,13.328 28.45,23.949 45.469,36.078 25.762,17.16 51.992,32.312 80.113,45.871 7.137,3.27 14.137,6.449 21.137,9.602 17.301,7.117 34.801,13.789 51.883,21.707 18.418,9.492 36.98,21.73 52.648,30.402 1.032,0.559 2.52,-1.031 4.332,-2.051 m -20.89,9.82 c 0.969,0.309 3.25,-0.558 4.34,-1.011 3.097,-1.25 5.058,-1.688 3.757,-2.559 -10.839,-7.211 -20.789,-14.18 -32.839,-19.66 -20.219,-9.191 -37.739,-18.469 -59.778,-24.461 -34.801,-10.848 -67.461,-24.07 -99.222,-40.801 -5.649,-3.277 -11.289,-6.437 -16.848,-9.718 -20.172,-12.758 -34.199,-23.86 -51.109,-39.668 -9.383,7.468 -18.981,15.128 -28.051,22.359 -1.84,1.469 -3.66,2.918 -5.461,4.359 l 14.058,11.328 c 13.454,9.493 27.012,18.192 41.372,26.442 25.082,13.558 50.621,24.172 77.75,33.691 16.718,5.418 33.32,10.278 50.519,14.457 20.91,4.41 48.34,5.094 68.57,12.223 11.289,4.641 21.661,9.34 32.942,13.019 M 231.324,826.055 c 19.903,9.629 39.672,17.168 60.813,24.09 64.187,18.527 216.718,15.769 227.066,16.07 7.512,0.199 -26,-11 -33.207,-11.902 -30.883,-2.622 -61.18,-6.461 -91.449,-11.981 -24.192,-5.09 -46.922,-11.301 -70.172,-19.348 -37.25,-14.211 -66.961,-30.203 -97.41,-54.832 -14.399,11.481 -24.68,19.661 -25.981,20.661 -2.039,1.582 -6.738,5.21 -13.078,10.089 14.59,10.641 26.879,18.403 43.418,27.153 m -50.39,-161.942 c 8.793,-9.011 18.722,-19.179 29.941,-30.672 -14.23,-37.589 -32.949,-72.738 -45.93,-110.636 -8.961,-23.614 -18.949,-46.242 -30.082,-69.16 l -25.828,17.308 c -0.39,0.281 -5.73,4.012 -11.4491,7.891 9.9181,21.14 19.9301,42.269 29.8591,63.5 9.469,20.679 18.969,41.258 28.231,61.949 5.078,12.32 15.371,38.09 20.469,50.422 1.64,3.566 3.421,6.898 4.789,9.398 m 1.312,-147.191 c 13.66,30.871 30.508,67.902 46.188,98.543 2,-2.043 3.941,-4.031 6.011,-6.141 3.309,-3.402 12.789,-13.859 16.391,-18.312 l 1.43,-1.91 c 1.058,-1.68 1.961,-3.329 2.711,-5.008 0.687,-2.371 0.117,-3.84 -0.563,-5.571 -17.437,-44.609 -35.527,-89.25 -58.828,-131.57 -5.07,-8.578 -5.223,-8.828 -14.801,-24.512 -2.23,1.512 -4.519,3.043 -6.441,4.243 -11.321,8.16 -24.328,16.808 -24.449,16.89 l -6.141,4.117 c 13.941,22.782 27.191,45.301 38.492,69.231 m -87.8515,16.723 c 0.4688,57.828 4.1719,120.359 25.8595,175.628 0.973,2.442 2.851,7.692 4.871,12.071 7.781,-7.992 19.07,-19.582 36.211,-37.16 -10.902,-29.18 -20.902,-58.789 -29.063,-88.211 -8.828,-31.2 -28.918,-85.621 -36.7769,-101.098 -0.3594,-0.711 -1.3008,14.488 -1.1016,38.77 M 116.203,397.723 c 12.684,-11.66 23.621,-21.711 29.203,-27.149 -7.359,-12 -17.492,-27.672 -27.679,-42.929 -5.133,-7.5 -10.071,-14.801 -14.411,-21.231 -3.7691,-5.461 -7.3629,-10.582 -10.5816,-15.07 -0.0586,1.719 1.0117,44.289 1.4922,67.82 3.5703,6.211 14.3984,26.027 21.9764,38.559 M 94.4258,374.414 c -0.1094,12.418 0.6797,25.109 1.0195,37.578 v 4.789 l 14.5197,-13.328 z m 453.8402,-3.031 c -6.551,-14.051 -13.852,-27.09 -22.36,-40.27 -12.89,-18.179 -27.679,-33.8 -44.972,-48.601 -4.2,-3.168 -8.36,-6.438 -12.661,-9.578 -21.707,-14.832 -43.968,-25.782 -69.398,-33.692 -19.77,-5.539 -38.422,-8.488 -58.871,-9.617 -59.899,-2.25 -119.809,-4.402 -179.688,-6.66 h -7.793 c -13.238,1.258 -23.738,4.969 -34.367,12.539 -6.89,5.437 -12.09,11.32 -16.031,17.641 -4.9883,7.918 -7.6914,16.757 -8.9414,26.66 3.1328,2.879 24.6604,23.019 72.2224,74.968 59.86,-46.179 73.688,-56.71 101.848,-78.531 3.551,-2.758 15.98,-13.551 18.223,-13.82 4.429,-0.539 6.347,4.492 7.628,6.562 1.508,2.457 2.872,4.7 4.149,6.84 0.82,1.078 1.711,2.258 2.519,3.43 1.352,1.91 3.872,6.551 4.661,8.25 0.589,1.23 1.16,2.5 1.589,3.609 2.84,7.391 3.473,14 -14.386,31.852 -1.371,1.367 -34.262,33.09 -35.692,34.457 0,0 -19.148,18.051 -24.851,23.461 -5.867,5.539 -12.86,12.09 -16.418,15.43 5.328,5.539 18.949,19.628 25.847,25.921 11.883,10.821 20.852,17.938 28.782,24.008 8.172,6.27 24.109,18.102 34.269,25.262 1.231,0.738 2.41,1.5 3.66,2.238 11.969,6.789 23.981,14.93 37.192,19.223 13.879,3.5 21.57,1.707 34.121,-5.09 C 534.836,383.672 534.836,383.672 549.176,373.973 l 0.097,-0.078 z m 134.121,-31.07 c -1,-3.461 -2.953,-8.7 -4.703,-12.758 -2.387,-4.742 -5.129,-9.231 -8.25,-13.16 -1.231,-1.192 -2.719,-1.543 -4.309,-1.391 -10.078,4.57 -27.77,18.16 -40.789,28.16 -3.961,3.051 -7.473,5.75 -10.18,7.738 -8.929,6.539 -21.57,15.7 -33.609,24.411 -8.641,6.25 -16.961,12.269 -23.383,16.949 -14.98,10.89 -53.937,38.922 -70,50.179 -18.367,12.864 -67.719,49.172 -68.289,49.582 l -52.602,36.61 -1.859,-1.621 c -0.469,-0.41 -1.141,-0.981 -1.867,-1.61 -3.063,-2.269 -7.434,-5.738 -11.524,-9.05 -0.019,-0.008 -0.039,-0.02 -0.058,-0.028 -3.649,-2.179 -6.91,-4.929 -10.36,-7.851 -3.89,-3.282 -7.902,-6.668 -13.179,-9.918 -3.403,-2.102 -8.231,-5.774 -12.879,-9.321 -2.434,-1.851 -4.731,-3.601 -6.774,-5.082 -1.339,-0.937 -2.668,-1.879 -4.007,-2.808 -2.219,-1.531 -4.922,-3.43 -7.981,-5.621 -3.199,-2.25 -6.398,-4.489 -9.59,-6.739 -6.23,-4.562 -12.289,-9.179 -18.281,-13.839 -0.84,-0.641 -1.73,-1.321 -2.461,-1.883 -8.039,-6.16 -17.137,-13.379 -29.187,-24.36 -8.821,-8.027 -27.582,-27.699 -28.371,-28.539 l -2.211,-2.3 2.339,-2.18 c 0,0 10.473,-9.801 18.723,-17.602 5.699,-5.398 24.84,-23.429 24.84,-23.429 11.84,-11.418 34.508,-33.297 35.578,-34.368 16.332,-16.32 14.691,-20.589 12.961,-25.101 -0.379,-0.969 -0.879,-2.078 -1.398,-3.18 -0.75,-1.601 -3.114,-5.879 -4.122,-7.308 -1.121,-1.59 -2.421,-3.364 -3.359,-4.493 -0.23,-0.269 -0.441,-0.519 -0.652,-0.757 l -21.231,17.457 c -0.418,0.351 -42.687,35.293 -53.269,44.41 l -2.93,2.543 c -15.801,13.738 -32.5,28.07 -36.59,30.16 l -0.129,0.047 c 27.899,33.633 27.93,33.66 38.18,46.301 15.391,19.781 30.52,39.66 45.211,59.781 0.449,1.031 1.019,1.82 0.219,2.597 -1.239,0 -1.239,-0.218 -2.129,-0.898 -1.192,-1.281 -0.852,-1.66 -119.16,-144.75 -11.52,-12.289 -20.93,-22.078 -28.27,-29.57 5.438,8.058 11.668,17.23 17.949,26.34 5.559,7.46 10.602,14.25 14.02,18.968 3.07,4.344 7.988,11.621 12.551,18.41 1.847,2.454 3.531,4.622 4.968,6.383 0.68,0.821 1.012,1.77 1.172,2.75 0.758,1.117 1.457,2.16 2.078,3.059 -2.16,1.84 -3.32,2.992 -4.39,3.75 -17.629,14.961 -37.18,31.469 -56.719,47.898 -16.0898,13.512 -33.7383,27.223 -48.5586,39.75 6.2774,6.063 13.207,11.864 15.5469,12.352 0.2734,0.058 0.5898,0.082 0.9609,0.082 3.5625,0 9.2227,-2.512 12.1602,-4.192 5.9023,-3.398 22.9996,-15.378 23.2306,-15.539 l 40.922,-27.421 c 0.129,-0.09 13.039,-8.668 24.429,-16.879 5.887,-3.692 15.438,-10.469 15.528,-10.539 l 2.633,-1.883 1.82,2.672 c 0.219,0.32 22.098,32.429 29.5,44.14 5.859,9.239 18.758,34.289 22.808,42.34 5.27,10.41 14.93,30.258 19.309,39.309 6.633,13.73 24.461,51.402 24.461,51.402 l 1.012,2.137 -19.563,17.39 C 28.4961,837.504 28.3945,837.594 26.1641,839.875 c -3.1407,3.309 -6.3672,7.648 -3.961,11.316 5.3438,6.161 9.9727,9.684 15.1836,12.692 2.9688,1.539 6.5274,3.301 9.4375,4.558 12.0508,5.184 15.4219,5.954 16.1797,6.071 8.7695,1.363 17.7695,-1.449 26.3399,-8.231 l 0.5898,-0.457 c 19.5004,-14.34 96.8514,-74.019 107.1794,-82.011 1.961,-1.52 25.203,-20.051 52.121,-41.508 47.961,-38.231 84.782,-67.582 86.371,-68.723 5.68,-4.07 9.782,-5.117 12.75,-3.418 6.95,4.02 15.461,13.859 15.692,14.129 0.18,0.191 18.457,19.031 23.949,24.141 l 4.629,4.371 c 5.352,5.07 12,11.386 16.301,15.019 6.609,5.629 18.578,15.078 23.418,18.879 4.453,3.481 12.82,9.192 20.211,14.219 3.679,2.512 7.039,4.801 9.41,6.473 6.5,4.578 19.93,13.136 26.871,16.918 6.059,3.289 16.211,8.519 23.07,11.992 4.938,2.457 12.071,5.148 15.617,4.828 l 0.832,-0.059 c 2.442,-0.191 3.27,-0.25 3.801,-2.761 0.559,-2.688 -0.301,-9.961 -1.929,-16.2 -1.762,-6.73 -6.59,-21.59 -9.161,-28.59 -3.781,-10.332 -9.461,-25.191 -15.043,-37.332 -0.796,-1.75 -1.597,-3.558 -2.449,-5.5 -0.828,-1.898 -1.719,-3.918 -2.711,-6.089 -5.047,-10.161 -10.386,-20.098 -16.039,-29.938 -5.961,-9.883 -11.14,-17.781 -15.82,-24.742 -7.457,-11.02 -23.867,-33.02 -24,-33.207 -1.141,-1.473 -11.188,-14.543 -13.559,-19.231 -1.98,-4.043 2.45,-9.101 2.649,-9.32 20.98,-23.449 62.902,-57.801 96.582,-85.402 13.668,-11.207 26.59,-21.789 36.269,-30.137 2.121,-1.832 5.442,-4.762 8.961,-7.863 4.86,-4.297 10.09,-8.91 13.047,-11.418 7.332,-6.199 19.934,-15.961 31.043,-24.59 5.129,-3.973 9.828,-7.621 13.32,-10.379 l 2.399,-1.902 c 10.051,-7.93 26.859,-21.211 34.32,-29.25 0.86,-0.93 1.871,-1.942 2.969,-3.032 5.492,-5.457 13.012,-12.929 13.109,-23.757 0.032,-4.411 -2.187,-14.852 -3.726,-20.121"
         style="fill:#ffffff;fill-opacity:1;fill-rule:nonzero;stroke:none"
         id="path80" /><path
         d="m 434.93,627.504 c -7.16,0.867 -7.719,0.758 -8.797,7.816 -4.223,16.141 -23.293,32.313 -40.762,34.25 -8.461,0 -8.269,1.903 -9.531,9.434 -2.02,12.187 1.742,14.328 10.953,22.988 16.477,13.879 33.277,16.59 52.797,6.18 1.723,-1.192 3.582,-2.289 5.312,-3.449 18.098,-14.551 25.469,-32.77 17.02,-54.461 -3.25,-6.942 -7.063,-13.43 -12.262,-19.289 -4.019,-3.129 -9.859,-3.371 -14.73,-3.469 m -102.641,0.488 c -7.109,3.399 -1.746,9.942 0.723,13.379 9.699,13.641 21.558,26.16 32.64,38.731 0.321,0.359 0.828,0.75 0.86,0.308 0.07,-1.25 -0.949,-3.558 -1.18,-4.769 -1.32,-6.528 3.348,-10.399 -1.211,-16.25 -8.43,-10.84 -16.808,-20.118 -26.141,-29.938 -1.07,-1.121 -1.66,-1.851 -3.847,-1.93 -0.391,-0.011 -1.844,0.469 -1.844,0.469 m 16.121,-103.73 c -1.937,-0.071 -0.859,2.34 0.223,3.82 9.129,12.602 19.648,23.699 31.347,33.988 4.833,4.231 8.59,1.532 14.071,3.633 0.539,0.207 1.308,0.879 2.058,0.77 0,-0.77 -0.617,-1.52 -1.187,-2.082 -13.84,-13.598 -24.402,-25.887 -38.711,-36.637 -2.82,-1.852 -4.75,-3.383 -8.129,-3.582 z m -54.129,-22.891 c -8.332,2.301 -17.64,10.012 -18.949,18.813 -0.43,9.089 9.117,28.398 18.231,31.976 8.289,3.262 21.488,-8.226 27.41,-14.648 7.418,-8.039 7.968,-12.328 0.879,-20.282 -6.211,-6.968 -15.282,-17.218 -25.821,-16.238 -0.441,0.031 -1.75,0.379 -1.75,0.379"
         style="fill:#ffffff;fill-opacity:1;fill-rule:nonzero;stroke:none"
         id="path82" /><path
         d="m 289.617,573.227 c -0.387,3.351 0.781,5.523 2.113,8.632 8.098,15.95 18.379,28.481 29.368,44.469 0.453,0.66 1.082,1.399 1.851,1.531 0.231,-0.722 -0.301,-1.589 -0.41,-2.171 -1.109,-5.75 2.211,-8.981 -1.129,-14.469 -8.101,-13.313 -17.222,-25.59 -28.043,-36.781 -1.269,-1.309 -3.457,-2.79 -3.726,-0.872 l -0.024,-0.339"
         style="fill:#ffffff;fill-opacity:1;fill-rule:nonzero;stroke:none"
         id="path84" /><path
         d="m 394.242,578.273 c -0.32,2.153 0.289,2.879 1.199,4.122 7.993,10.949 15.61,20.847 24.762,31.089 4.938,5.539 9.578,1.629 15.777,4.102 1.133,0.449 3.231,1.867 4.473,2.019 0.438,0.059 0.149,-0.519 -0.152,-0.902 -10.379,-13.148 -20.571,-27.058 -32.238,-39.051 -2.95,-3.039 -8.411,-9.5 -13.04,-3.117 0,0 -0.73,1.34 -0.781,1.738"
         style="fill:#ffffff;fill-opacity:1;fill-rule:nonzero;stroke:none"
         id="path86" /><path
         d="m 3744.52,781.879 0.13,31.543 -8.17,-31.543 h -6.95 l -8.4,32.023 0.49,-32.023 h -8.16 l 0.12,39.824 h 12.72 l 6.83,-27.949 6.6,27.949 h 12.59 l 0.12,-39.824 z m -46.53,32.859 v -32.859 h -8.64 v 32.859 h -11.28 v 6.965 h 30.47 v -6.965 h -10.55"
         style="fill:#ffffff;fill-opacity:1;fill-rule:nonzero;stroke:none"
         id="path88" /></g></g></svg>
