<svg width="9" height="16" viewBox="0 0 9 16" fill="none" xmlns="http://www.w3.org/2000/svg">
  <path
    d="M1.01422 7.73102L0.66067 7.37747C0.465408 7.57273 0.465408 7.88931 0.66067 8.08457L1.01422 7.73102ZM8.22482 1.22753C8.42008 1.03227 8.42008 0.715685 8.22482 0.520423C8.02956 0.325161 7.71298 0.325161 7.51771 0.520423L8.22482 1.22753ZM7.7734 15.1973C7.96866 15.3926 8.28524 15.3926 8.48051 15.1973C8.67577 15.002 8.67577 14.6855 8.48051 14.4902L7.7734 15.1973ZM1.36778 8.08457L8.22482 1.22753L7.51771 0.520423L0.66067 7.37747L1.36778 8.08457ZM0.66067 8.08457L7.7734 15.1973L8.48051 14.4902L1.36778 7.37747L0.66067 8.08457Z"
    fill="white" />
</svg>