<svg width="9" height="16" viewBox="0 0 9 16" fill="none" xmlns="http://www.w3.org/2000/svg">
<path d="M7.96216 8.21113L8.30425 8.57579C8.50564 8.38686 8.51575 8.07044 8.32682 7.86904L7.96216 8.21113ZM0.547658 14.4812C0.346263 14.6701 0.336159 14.9865 0.525089 15.1879C0.714019 15.3893 1.03044 15.3994 1.23184 15.2105L0.547658 14.4812ZM1.44474 0.532911C1.25581 0.331516 0.939385 0.321412 0.73799 0.510342C0.536595 0.699272 0.52649 1.01569 0.71542 1.21709L1.44474 0.532911ZM7.62007 7.84647L0.547658 14.4812L1.23184 15.2105L8.30425 8.57579L7.62007 7.84647ZM8.32682 7.86904L1.44474 0.532911L0.71542 1.21709L7.5975 8.55322L8.32682 7.86904Z" fill="white"/>
</svg>
