<svg width="28" height="28" viewBox="0 0 28 28" fill="none" xmlns="http://www.w3.org/2000/svg">
<g clip-path="url(#clip0_1639_1675)">
<path fill-rule="evenodd" clip-rule="evenodd" d="M8.95773 10.2123C8.95773 8.93503 9.39893 7.75918 10.1388 6.82715L10.7991 7.35133C10.173 8.14013 9.80082 9.13273 9.80082 10.2123C9.80082 12.7712 11.8996 14.8536 14.4988 14.8536C17.098 14.8536 19.1968 12.7712 19.1968 10.2123C19.1968 9.13534 18.8259 8.14457 18.2022 7.35627L18.8633 6.83312C19.6001 7.76429 20.0399 8.93788 20.0399 10.2123C20.0399 13.2457 17.5548 15.6967 14.4988 15.6967C11.4428 15.6967 8.95773 13.2457 8.95773 10.2123Z" fill="white"/>
<path fill-rule="evenodd" clip-rule="evenodd" d="M14.4966 18.9359C8.96369 18.9359 4.67976 22.5089 4.67976 26.7992H3.83667C3.83667 21.8848 8.67414 18.0928 14.4966 18.0928C20.319 18.0928 25.1565 21.8841 25.1565 26.7992H24.3134C24.3134 22.5082 20.0295 18.9359 14.4966 18.9359Z" fill="white"/>
<path fill-rule="evenodd" clip-rule="evenodd" d="M14.4256 1.50391H14.5718L24.6108 5.02146L24.6193 5.02486C24.976 5.16755 24.976 5.67247 24.6193 5.81516L24.6078 5.81978L14.5684 9.1628H14.429L4.38891 5.81978L4.37735 5.81516C4.02062 5.67247 4.02062 5.16755 4.37735 5.02486L4.38586 5.02146L14.4256 1.50391ZM14.4987 2.37164L5.82678 5.40995L14.4987 8.29741L23.17 5.40995L14.4987 2.37164Z" fill="white"/>
<path fill-rule="evenodd" clip-rule="evenodd" d="M4.10947 12.4757V5.33301H4.95255V12.4757H4.10947Z" fill="white"/>
</g>
<defs>
<clipPath id="clip0_1639_1675">
<rect width="21.9936" height="25.6318" fill="white" transform="translate(3.5 1.16699)"/>
</clipPath>
</defs>
</svg>
