<svg width="40" height="38" viewBox="0 0 40 38" fill="none" xmlns="http://www.w3.org/2000/svg">
<path fill-rule="evenodd" clip-rule="evenodd" d="M11.7808 19.2699L16.7955 17.9844C17.2619 17.8648 17.8431 17.8859 18.3411 18.3132L27.0592 24.4077L35.199 22.321C35.9292 22.1338 36.7224 22.2422 37.4299 22.6599L38.297 23.1717C39.1809 23.6936 39.3861 24.7299 38.9744 25.6398L38.961 25.6694L38.3449 26.7075C37.9256 27.4141 37.2824 27.8907 36.5522 28.0779L10.4304 34.7744C9.15065 35.1025 7.77464 34.5491 7.14392 33.3284L3.29506 26.8291L6.65635 25.9674L9.84083 28.8218L18.9071 26.4976L11.7808 19.2699ZM14.046 19.8987L21.1723 27.1263L9.52517 30.1122L6.34069 27.2578L5.09902 27.5761L8.17073 32.7631L8.17929 32.78C8.54289 33.4956 9.35413 33.8409 10.1395 33.6396L36.2613 26.943C36.6818 26.8352 37.0716 26.5575 37.3374 26.1096L37.919 25.1297C38.1158 24.6697 37.9683 24.3382 37.7014 24.1806L36.8343 23.6687C36.3858 23.4039 35.9105 23.348 35.49 23.4559L26.829 25.6762L17.6147 19.2349L17.5883 19.2113C17.4559 19.0925 17.3014 19.0642 17.0865 19.1192L14.046 19.8987Z" fill="#C4C4C4"/>
<mask id="path-2-inside-1_5287_19860" fill="white">
<path fill-rule="evenodd" clip-rule="evenodd" d="M27.7726 1.64414C27.0436 1.5991 26.2942 1.68403 25.5557 1.91528C22.3126 2.93073 20.5068 6.38293 21.5222 9.62601C22.5377 12.8691 25.9899 14.6749 29.2329 13.6595C29.9723 13.428 30.6369 13.0699 31.2104 12.6164C28.7383 12.4637 26.5008 10.8163 25.7167 8.31183C24.9327 5.80808 25.8303 3.17968 27.7726 1.64414Z"/>
</mask>
<path d="M27.7726 1.64414L28.3928 2.42861L30.4437 0.80727L27.8343 0.646048L27.7726 1.64414ZM31.2104 12.6164L31.8306 13.4009L33.8815 11.7796L31.2721 11.6183L31.2104 12.6164ZM25.8545 2.8696C26.4748 2.67538 27.1019 2.60461 27.711 2.64224L27.8343 0.646048C26.9854 0.593597 26.1137 0.692681 25.2569 0.96097L25.8545 2.8696ZM22.4765 9.3272C21.6261 6.61118 23.1385 3.72001 25.8545 2.8696L25.2569 0.96097C21.4868 2.14144 19.3874 6.15469 20.5679 9.92481L22.4765 9.3272ZM28.9341 12.7052C26.2181 13.5556 23.3269 12.0432 22.4765 9.3272L20.5679 9.92481C21.7484 13.6949 25.7616 15.7943 29.5317 14.6138L28.9341 12.7052ZM30.5902 11.832C30.1111 12.2108 29.555 12.5108 28.9341 12.7052L29.5317 14.6138C30.3895 14.3452 31.1627 13.9289 31.8306 13.4009L30.5902 11.832ZM31.2721 11.6183C29.2 11.4903 27.3272 10.109 26.671 8.01302L24.7623 8.61064C25.6745 11.5237 28.2766 13.4371 31.1488 13.6145L31.2721 11.6183ZM26.671 8.01302C26.0149 5.91768 26.7648 3.71568 28.3928 2.42861L27.1525 0.859678C24.8959 2.64367 23.8505 5.69848 24.7623 8.61064L26.671 8.01302Z" fill="#C4C4C4" mask="url(#path-2-inside-1_5287_19860)"/>
<circle cx="14" cy="7" r="1" fill="#C4C4C4"/>
<circle cx="33" cy="6" r="1" fill="#C4C4C4"/>
<circle cx="5" cy="15" r="1" fill="#C4C4C4"/>
<circle cx="1" cy="4" r="1" fill="#C4C4C4"/>
</svg>
