<?xml version="1.0" encoding="UTF-8"?><svg id="Layer_2" xmlns="http://www.w3.org/2000/svg" viewBox="0 0 33.77 29.64"><defs><style>.cls-1{fill:#c4c4c4;stroke-width:0px;}</style></defs><g id="Layer_1-2"><path class="cls-1" d="m10.18,17.32c.77,0,1.36.5,2.16,1.09.26.19,1.74,1.24,3.16,2.31.02.02.05.03.07.03.02,0,.04,0,.05-.01.12-.05.23-.11.35-.16,2.62-1.22,4.5-1.49,5.64-1.49.36,0,.64.03.85.06.81.13,2.75.83,3.02.93.01,0,.03,0,.04,0,0,0,.02,0,.03,0,1.09-.24,2.26-.31,3.33-.31,1.13,0,2.14.09,2.78.16.31.03.43.43.19.64-.62.53-1.39,1.01-1.5,1.08-.01,0-.02.01-.03.02l-.41.47c-.31.36-1.28.87-1.75,1.1-.1.05-.09.19.01.23.65.25,1.91.94,2.31,1.02.65.12,1.11.25,1.29.81.14.42-.28.86-.39.97-.02.01-.03.03-.03.05-.15.45-.47.6-.79.6-.27,0-.53-.11-.67-.26-.02-.03-.05-.04-.09-.04-.35,0-1.13-.01-1.36-.04-.08-.01-.12-.09-.1-.16l.09-.35s.03-.06.05-.07l1.18-.63c.09-.06.07-.19-.03-.23l-2.95-1.31s-.03,0-.04,0c-.01,0-.02,0-.03,0l-4.93,1.36c-.06.02-.1.08-.09.14l.27,1.58c0,.06.06.1.11.11.17.01.54.08.7.42.28.59-.29.96-.43,1.04-.02.01-.03.03-.04.05-.22.39-.49.5-.72.5-.28,0-.51-.15-.59-.21-.02-.01-.04-.02-.06-.02l-1.23-.14c-.05,0-.1-.05-.11-.1l-.08-.35c-.01-.06.01-.11.06-.14l1.41-.78s.07-.08.06-.13l-.28-1.56c-.01-.06-.06-.11-.12-.11,0,0,0,0-.01,0-1.27.15-12.15,1.56-15.04,1.87-.17.02-.32.03-.47.03-1.31,0-1.88-.68-2.36-1.53-.34-.6-1.75-3.17-2.02-3.9-.03-.07.02-.15.1-.17.7-.17,1.16-.27,1.51-.27.57,0,.86.25,1.41.83.43.46,1.84,1.77,2.6,2.1.17.07.38.11.62.11.86,0,2.11-.39,3.24-.7.38-.1.73-.2,1.09-.36.07-.03.1-.13.05-.19-1.12-1.55-3.47-4.5-3.98-5.15-.06-.07-.02-.18.07-.2.48-.13,1.79-.47,2.52-.58.1-.02.2-.02.29-.02m0-.64c-.13,0-.26.01-.39.03-.76.12-2.06.46-2.59.6-.25.07-.45.25-.53.5-.08.25-.04.52.13.72l.42.54c.74.93,2.17,2.74,3.13,4.03-.12.04-.25.07-.38.11l-.54.15c-.93.26-1.9.53-2.54.53-.21,0-.32-.03-.36-.05-.6-.27-1.9-1.43-2.39-1.96-.59-.63-1.04-1.04-1.88-1.04-.42,0-.93.1-1.66.28-.22.05-.4.2-.5.39-.1.19-.12.42-.04.62.32.89,2.05,3.97,2.06,4,.52.92,1.27,1.85,2.92,1.85.17,0,.35,0,.54-.03,1.94-.21,7.33-.89,11.26-1.4,1.43-.18,2.62-.33,3.3-.42l.13.72-1.09.6c-.29.16-.45.5-.38.83l.08.36c.07.32.34.56.67.6l1.1.12c.2.12.49.25.85.25.29,0,.81-.09,1.21-.71.55-.37.93-1.05.56-1.8-.16-.34-.45-.58-.82-.7l-.13-.77,4.3-1.18,1.82.81-.25.13c-.2.12-.32.28-.37.46l-.1.35c-.06.21-.02.44.1.63.12.19.32.31.54.34.19.03.56.03,1.06.04h.18c.27.2.62.31.96.31.62,0,1.11-.34,1.35-.92.23-.25.7-.85.47-1.54-.32-.98-1.2-1.14-1.78-1.25-.16-.03-.74-.31-1.12-.49-.03-.02-.07-.03-.1-.05.49-.29.83-.54,1.02-.75l.36-.41c.25-.16.93-.6,1.51-1.1.3-.26.42-.68.31-1.06-.12-.38-.45-.66-.85-.7-.66-.07-1.7-.16-2.85-.16-1.24,0-2.36.1-3.32.3-.57-.21-2.22-.79-3-.91-.29-.05-.61-.07-.95-.07-1.17,0-3.14.27-5.91,1.55l-.07.03c-1.07-.8-2.12-1.55-2.65-1.93l-.27-.2-.24-.17c-.72-.53-1.4-1.04-2.3-1.04h0Z"/><circle class="cls-1" cx="32.96" cy="5.79" r=".8"/><circle class="cls-1" cx="16.46" cy="2.94" r=".8"/><circle class="cls-1" cx="9.28" cy="8.05" r=".8"/><circle class="cls-1" cx="2.94" cy=".8" r=".8"/><path class="cls-1" d="m28.2,13.89c-3.26,0-5.92-2.66-5.92-5.92,0-2.52,1.61-4.76,4.02-5.58.14-.05.29,0,.37.12.08.12.07.28-.02.39-.84.98-1.28,2.16-1.28,3.41,0,2.91,2.37,5.28,5.28,5.28.54,0,1.09-.1,1.7-.31.14-.05.29,0,.37.12.08.12.07.28-.02.39-1.14,1.33-2.77,2.1-4.49,2.1Zm-2.74-10.41c-1.55.94-2.54,2.63-2.54,4.48,0,2.91,2.37,5.28,5.28,5.28,1.14,0,2.24-.38,3.15-1.07-.24.03-.47.05-.71.05-3.27,0-5.92-2.66-5.92-5.92,0-1,.25-1.96.73-2.82Z"/></g></svg>