<svg width="42" height="38" viewBox="0 0 42 38" fill="none" xmlns="http://www.w3.org/2000/svg">
<mask id="path-1-inside-1_5287_19861" fill="white">
<path fill-rule="evenodd" clip-rule="evenodd" d="M40.3508 0.400718C39.6471 0.205311 38.8963 0.132809 38.1259 0.205691C34.7426 0.525721 32.2594 3.5278 32.5795 6.91103C32.8995 10.2943 35.9016 12.7775 39.2848 12.4574C40.0561 12.3845 40.7806 12.1721 41.4357 11.8477C39.0492 11.185 37.2025 9.10904 36.9554 6.49629C36.7083 3.88433 38.132 1.49955 40.3508 0.400718Z"/>
</mask>
<path d="M40.3508 0.400718L40.7946 1.29685L43.1374 0.136607L40.6184 -0.562829L40.3508 0.400718ZM41.4357 11.8477L41.8795 12.7438L44.2223 11.5836L41.7033 10.8841L41.4357 11.8477ZM38.22 1.20125C38.8671 1.14004 39.4953 1.201 40.0833 1.36427L40.6184 -0.562829C39.7988 -0.79038 38.9256 -0.874419 38.0317 -0.789865L38.22 1.20125ZM33.575 6.81686C33.307 3.98346 35.3866 1.46927 38.22 1.20125L38.0317 -0.789865C34.0986 -0.417825 31.2119 3.07214 31.5839 7.0052L33.575 6.81686ZM39.1906 11.4619C36.3572 11.7299 33.843 9.65025 33.575 6.81686L31.5839 7.0052C31.9559 10.9383 35.4459 13.825 39.379 13.453L39.1906 11.4619ZM40.9919 10.9515C40.4445 11.2226 39.8384 11.4006 39.1906 11.4619L39.379 13.453C40.2738 13.3683 41.1166 13.1216 41.8795 12.7438L40.9919 10.9515ZM41.7033 10.8841C39.7029 10.3287 38.1577 8.58868 37.9509 6.40211L35.9598 6.59046C36.2473 9.6294 38.3955 12.0413 41.1682 12.8112L41.7033 10.8841ZM37.9509 6.40211C37.7441 4.21621 38.9348 2.21788 40.7946 1.29685L39.907 -0.495409C37.3292 0.781222 35.6724 3.55245 35.9598 6.59046L37.9509 6.40211Z" fill="#C4C4C4" mask="url(#path-1-inside-1_5287_19861)"/>
<path fill-rule="evenodd" clip-rule="evenodd" d="M16.9771 7L22.0123 8.75368C22.6494 8.94487 22.9913 9.45419 23.1422 9.84053C23.1425 9.84147 23.1429 9.84241 23.1433 9.84334L26.821 18.9869L35.1083 21.8079C35.8971 22.0784 36.527 22.6184 36.8425 23.2947L36.845 23.3001L37.2226 24.1634C37.589 24.9573 37.2108 25.8771 36.3305 26.33L36.2975 26.347L35.1193 26.7959L35.1083 26.7997C34.3299 27.0666 33.5341 27.0668 32.7557 26.8002C32.7552 26.8 32.7547 26.7998 32.7542 26.7997L6.20151 17.8451L6.18903 17.8403C4.84239 17.3272 4.02692 16.2609 4.18313 15.0297L4.88342 8.18551L8.36549 9.28534L9.37379 13.0672L18.6147 16.1796L16.9771 7ZM18.5554 8.71379L20.1886 17.8684L8.29548 13.8628L7.29102 10.0953L5.99278 9.68525L5.43506 15.1361L5.43425 15.1423C5.34298 15.8465 5.78078 16.5003 6.68807 16.8502L33.2214 25.7983C33.6969 25.9614 34.1554 25.9626 34.6307 25.8019L35.7118 25.39C36.065 25.1931 36.1807 24.834 36.0519 24.558L36.0493 24.5525L35.6721 23.6902C35.4838 23.2905 35.1088 22.9699 34.642 22.8096C34.6417 22.8095 34.6414 22.8094 34.6411 22.8093L25.82 19.8065L21.9509 10.187L21.9499 10.1844C21.8503 9.92832 21.6951 9.79971 21.5929 9.7705L21.5737 9.76503L18.5554 8.71379Z" fill="#C4C4C4"/>
<path fill-rule="evenodd" clip-rule="evenodd" d="M2.36141e-05 31.2759C-0.00036724 31.2757 -0.000705683 31.2756 0.422123 30.884C0.844951 30.4924 0.844717 30.4923 0.844536 30.4922L0.845168 30.4924L0.850393 30.4946C0.855546 30.4967 0.864038 30.5001 0.875868 30.5048C0.899529 30.5142 0.936544 30.5288 0.986912 30.5483C1.08765 30.5872 1.2418 30.6453 1.44937 30.7201C1.8645 30.8696 2.49326 31.0854 3.33566 31.3455C5.02043 31.8656 7.55977 32.5628 10.9538 33.2613C17.7406 34.6581 27.9499 36.061 41.5844 36.061V37.0023C27.7774 37.0023 17.4055 35.5813 10.4717 34.1543C7.00525 33.4409 4.3993 32.7262 2.65387 32.1874C1.78118 31.9179 1.12362 31.6925 0.681201 31.5332C0.459991 31.4535 0.292563 31.3903 0.178914 31.3465C0.122089 31.3246 0.0787086 31.3075 0.0487723 31.2955C0.0338042 31.2895 0.022197 31.2849 0.0139507 31.2815L0.00410186 31.2775L0.00106793 31.2763L2.36141e-05 31.2759Z" fill="#C4C4C4"/>
</svg>
