<?xml version="1.0" encoding="UTF-8"?><svg id="Layer_2" xmlns="http://www.w3.org/2000/svg" viewBox="0 0 32.22 34.62"><defs><style>.cls-1{fill:#c4c4c4;stroke-width:0px;}</style></defs><g id="Layer_1-2"><path class="cls-1" d="m8.69,11.02s.01,0,.02,0c.49.07,1.82.28,2.55.47.9.23,1.26.99,1.82,1.95.16.28,1.1,1.83,1.98,3.38.02.04.06.06.11.06h0c.13,0,.25,0,.39-.01.18,0,.36,0,.54,0,3.45,0,5.27.83,5.98,1.28.69.45,2.19,1.86,2.4,2.06.02.02.04.03.06.03,2.24.45,4.58,1.67,5.67,2.3.27.16.22.57-.08.66-.78.24-1.67.37-1.81.39-.01,0-.02,0-.04.01l-.56.27c-.43.21-1.52.28-2.05.31-.11,0-.16.14-.08.22.49.49,1.38,1.63,1.71,1.86.55.37.91.67.86,1.26-.04.44-.6.68-.75.73-.02,0-.04.02-.05.03-.2.22-.42.31-.63.31-.4,0-.75-.31-.85-.58-.01-.03-.03-.06-.07-.07-.31-.15-1.03-.46-1.23-.58-.07-.04-.08-.13-.03-.19l.22-.28s.05-.04.08-.05l1.33-.11c.11-.02.15-.15.07-.22l-2.18-2.38s-.04-.03-.07-.03l-5.06-.72s-.01,0-.02,0c-.06,0-.11.04-.12.1l-.38,1.55c-.01.06.01.12.06.14.15.08.46.29.48.66.03.65-.65.76-.8.78-.02,0-.04.01-.06.02-.22.17-.42.23-.59.23-.42,0-.67-.38-.73-.49-.01-.02-.03-.04-.05-.05l-1.07-.61s-.07-.08-.06-.13l.07-.35c.01-.06.06-.1.11-.1l1.6-.15c.05,0,.1-.04.11-.1l.37-1.55c.02-.07-.02-.13-.08-.15-1.22-.37-11.76-3.41-14.54-4.28-1.58-.49-1.89-1.43-2-2.51-.07-.69-.34-3.6-.3-4.38,0-.07.06-.12.13-.12,0,0,.02,0,.02,0,1.86.32,2.01.47,2.45,1.69.21.59.98,2.36,1.55,2.97.56.61,2.3.78,3.78.99.39.06.75.11,1.15.11h0c.08,0,.14-.08.12-.16-.41-1.87-1.39-5.51-1.6-6.31-.02-.08.04-.16.12-.16m0-.64c-.24,0-.46.11-.61.3-.15.19-.2.43-.13.67l.17.64c.31,1.16.9,3.39,1.27,4.96-.13-.02-.26-.03-.39-.05l-.55-.08c-1.06-.15-2.51-.35-2.85-.72-.45-.48-1.17-2.07-1.41-2.75-.54-1.48-.92-1.75-2.95-2.1h-.05s-.08-.01-.08-.01c-.41,0-.75.32-.77.72-.06.95.3,4.46.3,4.49.12,1.17.51,2.45,2.45,3.05,1.87.58,7.3,2.17,10.9,3.22,1.38.4,2.52.74,3.17.93l-.17.71-1.24.12c-.33.03-.61.28-.68.61l-.07.36c-.06.32.08.65.37.82l.96.55c.17.25.57.68,1.21.68.29,0,.58-.09.86-.28.66-.12,1.26-.59,1.23-1.42-.01-.37-.18-.71-.47-.97l.19-.76,4.41.63,1.35,1.47-.28.02c-.24.03-.41.14-.53.29l-.22.27c-.14.17-.2.4-.16.62.04.22.17.41.36.52.16.1.5.25.95.46l.17.08c.25.41.75.79,1.35.79.27,0,.65-.08,1.02-.43.31-.13.98-.5,1.05-1.23.1-1.02-.64-1.52-1.14-1.86-.13-.09-.55-.58-.83-.9-.02-.03-.05-.06-.07-.08.56-.07.97-.16,1.23-.29l.49-.23c.29-.04,1.09-.18,1.83-.4.38-.12.66-.45.7-.85.04-.4-.15-.78-.5-.98-1.17-.67-3.46-1.86-5.72-2.34-.5-.48-1.73-1.61-2.39-2.03-.65-.42-2.56-1.38-6.33-1.38-.18,0-.37,0-.56,0h-.08c-.64-1.12-1.3-2.23-1.63-2.78l-.2-.34-.15-.26c-.51-.88-.99-1.71-2.07-1.99-.75-.19-2.08-.4-2.61-.48h-.05s-.07,0-.07,0h0Z"/><path class="cls-1" d="m26.65,11.52c-3.26,0-5.92-2.66-5.92-5.92,0-2.52,1.61-4.76,4.02-5.58.14-.05.29,0,.37.12.08.12.07.28-.02.39-.84.98-1.28,2.16-1.28,3.41,0,2.91,2.37,5.28,5.28,5.28.54,0,1.09-.1,1.7-.31.14-.04.29,0,.37.12.08.12.07.28-.02.39-1.14,1.33-2.77,2.1-4.49,2.1Zm-2.74-10.41c-1.55.94-2.54,2.63-2.54,4.48,0,2.91,2.37,5.28,5.28,5.28,1.14,0,2.24-.38,3.15-1.07-.24.03-.47.05-.71.05-3.27,0-5.92-2.66-5.92-5.92,0-1,.25-1.95.73-2.82Z"/><path class="cls-1" d="m31.9,34.62C9.23,34.62.28,30.88.19,30.84c-.16-.07-.24-.26-.17-.42.07-.16.26-.24.42-.17.09.04,8.94,3.73,31.45,3.73.18,0,.32.14.32.32s-.14.32-.32.32Z"/></g></svg>