<svg width="35" height="16" viewBox="0 0 35 16" fill="none" xmlns="http://www.w3.org/2000/svg">
<path fill-rule="evenodd" clip-rule="evenodd" d="M9.99934 0.46875H15.1261C15.6029 0.46875 16.1552 0.631845 16.5279 1.16432L23.3924 9.15472H31.714C32.4605 9.15472 33.1948 9.45373 33.7708 10.0284L34.4767 10.7327C35.1963 11.4507 35.1383 12.4953 34.5195 13.2669L34.4994 13.292L33.6531 14.1363C33.0771 14.711 32.3429 15.0101 31.5964 15.0101H4.89098C3.58262 15.0101 2.39872 14.1407 2.09386 12.8147L0 5.63338H3.43638L5.78928 9.15472H15.0581L9.99934 0.46875ZM12.0177 1.62897L17.0764 10.3149H5.16913L2.81624 6.7936H1.54682L3.2179 12.5249L3.22197 12.5432C3.39478 13.3191 4.08807 13.8498 4.89098 13.8498H31.5964C32.0263 13.8498 32.4685 13.6793 32.8337 13.315L33.6325 12.518C33.9345 12.1251 33.8745 11.7708 33.6572 11.554L32.9513 10.8498C32.5862 10.4854 32.144 10.3149 31.714 10.3149H22.8595L15.6044 1.86981L15.5849 1.84067C15.487 1.69418 15.3458 1.62897 15.1261 1.62897H12.0177Z" fill="#C4C4C4"/>
</svg>
