<svg width="35" height="35" viewBox="0 0 35 35" fill="none" xmlns="http://www.w3.org/2000/svg">
<g id="Frame" clip-path="url(#clip0_11240_32473)">
<path id="Vector" d="M32.1341 8.61191C30.4312 5.66242 27.892 3.28414 24.8375 1.77781C21.7831 0.271473 18.3505 -0.295256 14.974 0.149283C11.5974 0.593823 8.42853 2.02966 5.86798 4.27524C3.30744 6.52082 1.47025 9.47528 0.588754 12.765C-0.292744 16.0547 -0.178966 19.532 0.915696 22.7571C2.01036 25.9821 4.03674 28.8102 6.73861 30.8835C9.44047 32.9569 12.6965 34.1825 16.0948 34.4054C19.4932 34.6282 22.8814 33.8383 25.8309 32.1355C27.7893 31.0049 29.5059 29.4995 30.8826 27.7054C32.2592 25.9113 33.2691 23.8636 33.8544 21.6792C34.4397 19.4949 34.589 17.2166 34.2939 14.9745C33.9987 12.7324 33.2648 10.5704 32.1341 8.61191ZM24.1089 29.1522C21.7491 30.5141 19.0385 31.1456 16.3198 30.9669C13.6012 30.7883 10.9965 29.8074 8.83525 28.1484C6.67399 26.4894 5.05321 24.2268 4.17784 21.6466C3.30247 19.0664 3.21183 16.2846 3.9174 13.6529C4.62296 11.0212 6.09304 8.65788 8.14172 6.8617C10.1904 5.06552 12.7257 3.9172 15.427 3.56194C18.1283 3.20669 20.8742 3.66045 23.3176 4.86585C25.761 6.07125 27.7922 7.97415 29.1541 10.3339C30.0586 11.9008 30.6456 13.6305 30.8816 15.4242C31.1175 17.218 30.9979 19.0406 30.5293 20.7881C30.0608 22.5356 29.2527 24.1737 28.1511 25.6088C27.0494 27.0439 25.6759 28.248 24.1089 29.1522ZM23.4201 16.5222L14.4034 11.2629C13.5819 10.7836 12.9194 11.1675 12.9238 12.1174L12.9699 22.5569C12.9699 23.5068 13.6444 23.894 14.4692 23.418L23.4168 18.2508C24.2372 17.7759 24.2372 16.9993 23.4201 16.5222Z" fill="#C4C4C4"/>
</g>
<defs>
<clipPath id="clip0_11240_32473">
<rect width="34.4469" height="34.4469" fill="white"/>
</clipPath>
</defs>
</svg>
