<svg width="45" height="45" viewBox="0 0 45 45" fill="none" xmlns="http://www.w3.org/2000/svg">
<path d="M41.9811 11.2516C39.7566 7.3985 36.4394 4.29162 32.4492 2.32381C28.459 0.355996 23.9748 -0.384356 19.5638 0.196372C15.1529 0.7771 11.0131 2.65282 7.66814 5.58635C4.32315 8.51988 1.92313 12.3795 0.771578 16.677C-0.379975 20.9746 -0.23134 25.5171 1.19868 29.7302C2.6287 33.9433 5.27589 37.6378 8.80549 40.3463C12.3351 43.0549 16.5886 44.656 21.0281 44.9471C25.4676 45.2382 29.8937 44.2063 33.7468 41.9819C36.3052 40.5048 38.5477 38.5383 40.3461 36.1946C42.1446 33.8508 43.4638 31.1758 44.2284 28.3222C44.993 25.4686 45.1881 22.4924 44.8025 19.5634C44.4169 16.6344 43.4582 13.81 41.9811 11.2516ZM31.4973 38.0845C28.4146 39.8636 24.8736 40.6887 21.322 40.4553C17.7704 40.2219 14.3678 38.9405 11.5445 36.7733C8.72108 34.606 6.60375 31.6502 5.4602 28.2796C4.31666 24.9089 4.19826 21.2749 5.11998 17.837C6.0417 14.399 7.96214 11.3116 10.6385 8.96519C13.3148 6.61874 16.6268 5.11862 20.1556 4.65453C23.6845 4.19044 27.2717 4.78321 30.4636 6.35789C33.6556 7.93258 36.309 10.4185 38.0882 13.5012C39.2698 15.548 40.0366 17.8076 40.3449 20.1509C40.6531 22.4942 40.4967 24.8753 39.8847 27.1581C39.2727 29.4409 38.2169 31.5809 36.7778 33.4556C35.3387 35.3304 33.5444 36.9033 31.4973 38.0845ZM30.5975 21.5853L18.8184 14.7148C17.7453 14.0886 16.8799 14.5901 16.8856 15.831L16.9458 29.4688C16.9458 30.7097 17.8269 31.2155 18.9044 30.5936L30.5932 23.8435C31.6649 23.223 31.6649 22.2086 30.5975 21.5853Z" fill="white"/>
</svg>
