<svg width="31" height="24" viewBox="0 0 31 24" fill="none" xmlns="http://www.w3.org/2000/svg">
<path d="M29.6958 9.72028L29.0874 9.11189C28.6818 8.70629 28.1748 8.5035 27.6678 8.5035H20.2657L14.1818 1.4056C13.979 1.1014 13.6748 1 13.3706 1H9.82168L14.1818 8.5035H5.05594L3.02797 5.46154H1L2.62238 11.0385C2.82518 11.9511 3.63636 12.5594 4.54895 12.5594H27.5664C28.0734 12.5594 28.5804 12.3566 28.986 11.951L29.6958 11.2413C30.1014 10.7343 30.1014 10.1259 29.6958 9.72028Z" stroke="#C4C4C4" stroke-miterlimit="10"/>
<path d="M2.01367 23.6117C5.35983 20.2655 10.0242 18.2375 15.1955 18.2375C20.3668 18.2375 25.0312 20.2655 28.3773 23.6117" stroke="#C4C4C4" stroke-miterlimit="10"/>
</svg>
