<svg width="31" height="25" viewBox="0 0 31 25" fill="none" xmlns="http://www.w3.org/2000/svg">
<path d="M30.2228 18L29.8895 17.1111C29.6672 16.5556 29.2228 16.1111 28.6672 15.8889L21.1117 12.8889L17.7783 3.22222C17.6672 2.88889 17.445 2.55555 17.1117 2.44444L13.5561 1L15.0006 10.4444L5.66724 6.77778L4.77834 2.88889L2.66723 2.11111L2.11168 8.44444C2.00057 9.44444 2.55612 10.3333 3.55612 10.7778L27.0006 20C27.5561 20.2222 28.1117 20.2222 28.6672 20L29.6672 19.5556C30.2228 19.2222 30.445 18.5555 30.2228 18Z" stroke="#C4C4C4" stroke-miterlimit="10"/>
<path d="M1 17.7778C1 17.7778 11 24.4444 31 24.4444" stroke="#C4C4C4" stroke-miterlimit="10"/>
</svg>
