          <svg width="122" height="144" viewBox="0 0 122 144" fill="none" xmlns="http://www.w3.org/2000/svg">
            <g opacity="0.2">
              <path
                d="M111.187 143.767H18.9735C13.1619 143.767 8.37891 139.036 8.37891 133.173V80.5602C8.37891 79.6344 9.09892 78.9144 10.0247 78.9144C10.9504 78.9144 11.6704 79.6344 11.6704 80.5602V133.173C11.6704 137.184 14.9619 140.425 18.9735 140.425H111.136C115.147 140.425 118.387 137.184 118.387 133.173V47.1308C118.387 46.4107 118.182 45.6907 117.873 45.0221H74.9292C74.0034 45.0221 73.2834 44.3021 73.2834 43.3764V3.10678C73.2834 1.82103 74.0549 0.689577 75.2378 0.226708C76.4206 -0.236161 77.7578 0.0209887 78.6321 0.895297L119.467 41.7306C120.907 43.1707 121.73 45.125 121.73 47.1822V133.224C121.73 139.036 116.999 143.819 111.136 143.819L111.187 143.767ZM76.6264 41.7306H114.839L76.3178 3.20964L76.6264 41.7306Z"
                fill="white"
              />
              <path
                d="M10.0251 21.9801C9.09934 21.9801 8.37932 21.2601 8.37932 20.3343V10.6655C8.32789 4.8025 13.0594 0.0709522 18.871 0.0709522H76.4725C77.3982 0.0195223 78.1182 0.739541 78.1182 1.66528C78.1182 2.59102 77.3982 3.31103 76.4725 3.31103H18.9224C14.9109 3.41389 11.6708 6.65398 11.6708 10.6655V20.3343C11.7223 21.2601 11.0022 21.9801 10.0765 21.9801H10.0251Z"
                fill="white"
              />
              <path
                d="M76.3745 112.963C76.3745 112.963 76.1688 112.963 76.0659 112.963L64.8542 110.751C64.5457 110.7 64.2371 110.545 63.9799 110.288L11.2129 57.5212C10.5957 56.904 10.5957 55.824 11.2129 55.2068L20.316 46.0009C20.6245 45.6923 21.036 45.4866 21.4988 45.4866C21.9103 45.4866 22.3732 45.6409 22.6817 45.9494L75.2945 98.6136C75.2945 98.6136 75.7059 99.1279 75.7574 99.4879L78.0203 111.008C78.1231 111.574 77.9688 112.088 77.5574 112.5C77.2488 112.808 76.8374 112.963 76.3745 112.963ZM65.9857 107.562L74.3173 109.208L72.6201 100.619L21.4988 49.4467L14.7101 56.3383L65.9343 107.562H65.9857Z"
                fill="white"
              />
              <path
                d="M5.29728 50.6702C4.88584 50.773 4.42297 50.4645 4.11439 50.1559L1.13146 47.0701L2.26291 45.8358L1.08003 47.0187C0.360009 46.2986 0 45.3729 0 44.3443C0 43.3157 0.411439 42.39 1.08003 41.7214L6.99446 35.3955C8.64022 33.904 10.8517 34.0583 12.2403 35.3955L15.5833 38.7385C15.8918 39.047 16.0461 39.4585 16.0461 39.9213C16.0461 40.3842 15.8918 40.7957 15.5833 41.1042L6.48016 50.2073C6.17159 50.5159 5.76015 50.6702 5.29728 50.6702ZM8.17735 36.5784L9.36024 37.7099L3.29151 44.3957L3.4458 44.7558L5.29728 46.6587L12.0346 39.9213L9.87454 37.8127L8.12592 36.5784H8.17735Z"
                fill="white"
              />
            </g>
          </svg>
