          <svg width="10" height="18" viewBox="0 0 10 18" fill="none" xmlns="http://www.w3.org/2000/svg">
            <path
              d="M7.55558e-07 8.65234C7.70356e-07 8.48307 0.0325525 8.32682 0.097657 8.18359C0.162762 8.04036 0.260418 7.90364 0.390626 7.77344L7.99805 0.332031C8.21289 0.110678 8.47982 -1.27776e-07 8.79883 -9.98874e-08C9.00716 -8.16743e-08 9.19922 0.0520839 9.375 0.15625C9.55078 0.253906 9.69076 0.390625 9.79492 0.566406C9.89258 0.735678 9.94141 0.924479 9.94141 1.13281C9.94141 1.44531 9.82422 1.722 9.58985 1.96289L2.73438 8.65234L9.58984 15.3418C9.82422 15.5827 9.94141 15.8561 9.94141 16.1621C9.94141 16.377 9.89258 16.569 9.79492 16.7383C9.69076 16.9076 9.55078 17.041 9.375 17.1387C9.19922 17.2428 9.00716 17.2949 8.79883 17.2949C8.47982 17.2949 8.21289 17.1875 7.99805 16.9727L0.390626 9.53125C0.260418 9.40104 0.162761 9.26432 0.097657 9.12109C0.0325525 8.97786 7.4076e-07 8.82161 7.55558e-07 8.65234Z"
              fill="#14A0FF"
            />
          </svg>
