<svg width="22" height="22" viewBox="0 0 22 22" fill="none" xmlns="http://www.w3.org/2000/svg">
<circle cx="11" cy="11" r="11" fill="#2E2E2E"/>
<path d="M7 11.9V15.0909C7 15.5909 7.4 16 7.88889 16H14.1111C14.6 16 15 15.5909 15 15.0909V9.18182L11.8889 6H7.88889C7.4 6 7 6.40909 7 6.90909V7.5" stroke="#C4C4C4" stroke-miterlimit="10"/>
<path d="M11.0001 6L11.0002 9.54545C11.0002 9.81818 11.178 10 11.4447 10H15.0001" stroke="#C4C4C4" stroke-miterlimit="10"/>
<path d="M6.95581 10.2812L10.2552 13.5806L11.4945 13.8251L11.25 12.569L7.95399 9.26965L6.95581 10.2812Z" fill="#C4C4C4"/>
<path d="M6.13513 9.44374L6.54712 9.86913L7.552 8.86426L7.1199 8.43216C7.03296 8.34745 6.91638 8.30005 6.79499 8.30005C6.67361 8.30005 6.55703 8.34745 6.47008 8.43216L6.13513 8.79057C6.0486 8.87723 6.00001 8.99469 6.00001 9.11715C6.00001 9.23961 6.0486 9.35707 6.13513 9.44374Z" fill="#C4C4C4"/>
</svg>
