<svg width="22" height="22" viewBox="0 0 22 22" fill="none" xmlns="http://www.w3.org/2000/svg">
<circle cx="11" cy="11" r="11" fill="#2E2E2E"/>
<path d="M7.00002 11.9V15.0909C7.00002 15.5909 7.40001 16 7.8889 16H14.1111C14.6 16 15 15.5909 15 15.0909V9.18182L11.8889 6H7.8889C7.40001 6 7.00002 6.40909 7.00002 6.90909V7.5" stroke="#C4C4C4" stroke-miterlimit="10"/>
<path d="M11.0001 6L11.0002 9.54545C11.0002 9.81818 11.178 10 11.4447 10H15.0001" stroke="#C4C4C4" stroke-miterlimit="10"/>
<path d="M7.95616 9.97918L7.66055 10.2788L10.5011 13.1194L10.8616 13.1905L10.7884 12.8143L7.95616 9.97918Z" fill="#C4C4C4" stroke="#C4C4C4"/>
<path d="M6.79617 8.81626L6.51457 9.11756L6.55283 9.15706L6.8449 8.86499L6.79617 8.81626Z" fill="#C4C4C4" stroke="#C4C4C4"/>
</svg>
