<svg width="22" height="23" viewBox="0 0 22 23" fill="none" xmlns="http://www.w3.org/2000/svg">
<path d="M21.3125 10.3508C20.9344 10.3508 20.625 10.6602 20.625 11.0383C20.625 14.4505 17.8496 17.2258 14.4375 17.2258H8.25V14.4758C8.25 14.2086 8.09557 13.9671 7.85387 13.8528C7.76016 13.8098 7.66133 13.7883 7.5625 13.7883C7.40472 13.7883 7.24831 13.8421 7.12207 13.9481L2.99707 17.3856C2.84066 17.518 2.75 17.7114 2.75 17.9133C2.75 18.1153 2.84062 18.311 2.99707 18.4414L7.12207 21.8789C7.3275 22.0508 7.61406 22.0857 7.85383 21.9743C8.09531 21.8622 8.25 21.6172 8.25 21.3508V18.6008H14.4375C18.6076 18.6008 22 15.2076 22 11.0383C22 10.6602 21.6906 10.3508 21.3125 10.3508ZM6.875 19.8813L4.51172 17.9133L6.875 15.9454V19.8813ZM7.5625 4.85084L13.7113 4.85075L13.75 7.60084C13.75 7.86806 13.9044 8.10959 14.1461 8.22388C14.2398 8.26685 14.3387 8.28834 14.4375 8.28834C14.5953 8.28834 14.7517 8.23463 14.8779 8.12854L19.0029 4.69104C19.1598 4.55865 19.25 4.36529 19.25 4.12467C19.25 3.88404 19.1594 3.72708 19.0029 3.59701L14.8779 0.159508C14.6725 -0.0123672 14.3859 -0.0472578 14.1462 0.0641602C13.9047 0.21657 13.75 0.45827 13.75 0.725406L13.7113 3.47584H7.5625C3.39238 3.47584 0 6.8317 0 11.0383C0 11.4184 0.307484 11.7258 0.6875 11.7258C1.06752 11.7258 1.375 11.4165 1.375 11.0383C1.375 7.62662 4.15035 4.85084 7.5625 4.85084ZM15.125 2.19322L17.4883 4.16334L15.125 6.13131V2.19322Z" fill="white"/>
<path d="M18 4.03833L15 6.63641L15 1.44025L18 4.03833Z" fill="white"/>
<path d="M4 18.0383L7 15.4403L7 20.6364L4 18.0383Z" fill="white"/>
</svg>
