<svg width="29" height="28" viewBox="0 0 29 28" fill="none" xmlns="http://www.w3.org/2000/svg">
<path fill-rule="evenodd" clip-rule="evenodd" d="M14.8403 2.87021C8.2519 2.87021 2.91092 8.21119 2.91092 14.7996C2.91092 18.9482 5.02809 22.6025 8.24339 24.7406L7.64904 25.6344C4.14729 23.3057 1.83759 19.3225 1.83759 14.7996C1.83759 7.61841 7.65912 1.79688 14.8403 1.79688C22.0216 1.79688 27.8431 7.61841 27.8431 14.7996C27.8431 21.9809 22.0216 27.8024 14.8403 27.8024V26.7291C21.4288 26.7291 26.7698 21.3881 26.7698 14.7996C26.7698 8.21119 21.4288 2.87021 14.8403 2.87021Z" fill="#C4C4C4"/>
<path fill-rule="evenodd" clip-rule="evenodd" d="M14.3042 8.3252H15.3775V15.1329H20.639V16.2062H14.3042V8.3252Z" fill="#C4C4C4"/>
<path fill-rule="evenodd" clip-rule="evenodd" d="M1.698 26.1328L1.698 24.9206L7.66315 24.9206L7.66315 18.9554L8.87539 18.9554L8.87539 26.1328L1.698 26.1328Z" fill="#C4C4C4"/>
</svg>
