<svg width="20" height="19" viewBox="0 0 20 19" fill="none" xmlns="http://www.w3.org/2000/svg">
<path d="M18.6305 17.6561L18.6305 17.6561L18.6334 17.6589C18.6457 17.6707 18.65 17.6832 18.65 17.6955C18.65 17.7078 18.6457 17.7207 18.6331 17.7327L18.6306 17.7351C18.6164 17.749 18.5965 17.7578 18.5719 17.7578C18.5581 17.7578 18.5196 17.7539 18.4532 17.7094L13.3764 12.7617L13.0531 12.4465L12.7067 12.7362C11.4824 13.76 9.89346 14.3828 8.15039 14.3828C4.30418 14.3828 1.17969 11.3219 1.17969 7.57031C1.17969 3.81732 4.27349 0.757812 8.15039 0.757812C12.0302 0.757812 15.1536 3.8191 15.1536 7.57031C15.1536 9.26499 14.5458 10.8038 13.4997 11.9932L13.186 12.3499L13.5262 12.6815L18.6305 17.6561ZM1.33403 7.57031C1.33403 11.267 4.3857 14.2578 8.18286 14.2578C11.9442 14.2578 15.0317 11.3019 15.0317 7.57031C15.0317 3.84032 11.9783 0.882812 8.18286 0.882812C4.3857 0.882812 1.33403 3.87361 1.33403 7.57031Z" fill="#969696" stroke="#969696"/>
</svg>
