<?xml version="1.0" encoding="UTF-8"?><svg id="Layer_2" xmlns="http://www.w3.org/2000/svg" viewBox="0 0 22.86 27.96"><defs><style>.cls-1{fill:#c4c4c4;stroke-width:0px;}</style></defs><g id="Layer_1-2"><path class="cls-1" d="m20.3,3.14H4.34c-.18,0-.32-.14-.32-.32s.14-.32.32-.32h15.96c.18,0,.32.14.32.32s-.14.32-.32.32Z"/><path class="cls-1" d="m11.98,16.23c-1.72,0-3.12-1.4-3.12-3.12s1.4-3.12,3.12-3.12,3.12,1.4,3.12,3.12-1.4,3.12-3.12,3.12Zm0-5.59c-1.36,0-2.47,1.11-2.47,2.47s1.11,2.47,2.47,2.47,2.47-1.11,2.47-2.47-1.11-2.47-2.47-2.47Z"/><path class="cls-1" d="m22.54,27.96H5.99C2.7,27.96.01,25.94.01,23.45V2.79c0-.18.14-.32.32-.32s.32.14.32.32v20.66c0,2.14,2.39,3.87,5.34,3.87h16.22V6.15h-13.51c-.18,0-.32-.14-.32-.32s.14-.32.32-.32h13.83c.18,0,.32.14.32.32v21.81c0,.18-.14.32-.32.32Z"/><path class="cls-1" d="m20.35,6.15H3.08c-1.7,0-3.08-1.38-3.08-3.08S1.38,0,3.08,0h17.28c.18,0,.32.14.32.32v5.51c0,.18-.14.32-.32.32ZM3.08.64C1.73.64.64,1.73.64,3.08s1.09,2.43,2.43,2.43h16.96V.64H3.08Z"/><path class="cls-1" d="m16.31,22.01H7.04c-.18,0-.32-.14-.32-.32,0-2.73,2.22-4.96,4.96-4.96s4.96,2.22,4.96,4.96c0,.18-.14.32-.32.32Zm-8.94-.64h8.6c-.17-2.23-2.03-3.99-4.3-3.99s-4.14,1.76-4.3,3.99Z"/></g></svg>