<svg width="35" height="40" viewBox="0 0 35 40" fill="none" xmlns="http://www.w3.org/2000/svg">
<g clip-path="url(#clip0_3684_16310)">
<path d="M4.49447 1.05505C3.9932 1.04774 3.49648 1.151 3.03965 1.35748C2.58282 1.56396 2.17711 1.86859 1.85138 2.24968C1.52566 2.63078 1.28793 3.07898 1.15511 3.56239C1.02229 4.0458 0.997645 4.55254 1.08292 5.04656C1.2485 5.86925 1.70168 6.60608 2.36122 7.12496C3.02077 7.64385 3.84356 7.91086 4.68211 7.87815H31.7869C32.2393 7.87815 32.6731 8.05786 32.993 8.37776C33.3129 8.69765 33.4926 9.13152 33.4926 9.58392V36.8763C33.4926 37.3287 33.3129 37.7626 32.993 38.0825C32.6731 38.4024 32.2393 38.5821 31.7869 38.5821H4.49447C3.58967 38.5821 2.72193 38.2227 2.08214 37.5829C1.44235 36.9431 1.08292 36.0753 1.08292 35.1705V4.4666C1.08292 3.5618 1.44235 2.69406 2.08214 2.05427C2.72193 1.41448 3.58967 1.05505 4.49447 1.05505H28.3753C28.8277 1.05505 29.2616 1.23477 29.5815 1.55466C29.9014 1.87455 30.0811 2.30842 30.0811 2.76082V7.87815" stroke="#CCCCCC" stroke-miterlimit="10" stroke-linecap="square"/>
<path d="M17.2914 22.8562C19.7596 22.8562 21.7605 20.8553 21.7605 18.3871C21.7605 15.9189 19.7596 13.918 17.2914 13.918C14.8232 13.918 12.8223 15.9189 12.8223 18.3871C12.8223 20.8553 14.8232 22.8562 17.2914 22.8562Z" stroke="#CCCCCC" stroke-miterlimit="10"/>
<path d="M26.2271 33.4701C26.2271 29.4274 22.2356 26.1523 17.2888 26.1523C12.3421 26.1523 8.35059 29.4274 8.35059 33.4701H26.2271Z" stroke="#CCCCCC" stroke-miterlimit="10"/>
<path d="M6.20215 4.47266H30.083" stroke="#CCCCCC" stroke-miterlimit="10"/>
</g>
<defs>
<clipPath id="clip0_3684_16310">
<rect width="34.1155" height="39.2328" fill="white" transform="translate(0.231445 0.207031)"/>
</clipPath>
</defs>
</svg>
