<svg width="20" height="23" viewBox="0 0 20 23" fill="none" xmlns="http://www.w3.org/2000/svg">
<g clip-path="url(#clip0_1004_522)">
<path d="M2.5 0.50009C2.20614 0.495807 1.91494 0.556343 1.64712 0.67739C1.37931 0.798438 1.14146 0.977022 0.95051 1.20044C0.759557 1.42385 0.62019 1.6866 0.542325 1.97C0.46446 2.2534 0.45001 2.55047 0.500004 2.84009C0.597074 3.32239 0.862746 3.75435 1.2494 4.05854C1.63605 4.36273 2.11841 4.51927 2.61 4.50009H18.5C18.7652 4.50009 19.0196 4.60545 19.2071 4.79298C19.3946 4.98052 19.5 5.23487 19.5 5.50009V21.5001C19.5 21.7653 19.3946 22.0197 19.2071 22.2072C19.0196 22.3947 18.7652 22.5001 18.5 22.5001H2.5C1.96957 22.5001 1.46086 22.2894 1.08579 21.9143C0.710718 21.5392 0.500004 21.0305 0.500004 20.5001V2.50009C0.500004 1.96966 0.710718 1.46095 1.08579 1.08588C1.46086 0.710804 1.96957 0.50009 2.5 0.50009H16.5C16.7652 0.50009 17.0196 0.605447 17.2071 0.792984C17.3946 0.98052 17.5 1.23487 17.5 1.50009V4.50009" stroke="#CCCCCC" stroke-miterlimit="10" stroke-linecap="square"/>
<path d="M10 13.2802C11.447 13.2802 12.62 12.1071 12.62 10.6602C12.62 9.21317 11.447 8.04016 10 8.04016C8.55302 8.04016 7.38 9.21317 7.38 10.6602C7.38 12.1071 8.55302 13.2802 10 13.2802Z" stroke="#CCCCCC" stroke-miterlimit="10"/>
<path d="M15.24 19.5001C15.24 17.1301 12.9 15.2101 9.99999 15.2101C7.09999 15.2101 4.75999 17.1301 4.75999 19.5001H15.24Z" stroke="#CCCCCC" stroke-miterlimit="10"/>
<path d="M3.5 2.50012H17.5" stroke="#CCCCCC" stroke-miterlimit="10"/>
</g>
<defs>
<clipPath id="clip0_1004_522">
<rect width="20" height="23" fill="white" transform="translate(0 0.00012207)"/>
</clipPath>
</defs>
</svg>
