<?xml version="1.0" encoding="UTF-8"?><svg id="Layer_2" xmlns="http://www.w3.org/2000/svg" viewBox="0 0 23.34 27.48"><defs><style>.cls-1{fill:#c4c4c4;stroke-width:0px;}</style></defs><g id="Layer_1-2"><path class="cls-1" d="m11.67.64c2.44,0,4.42,1.98,4.42,4.42s-1.98,4.42-4.42,4.42-4.42-1.98-4.42-4.42S9.23.64,11.67.64m0-.64c-2.79,0-5.06,2.27-5.06,5.06s2.27,5.06,5.06,5.06,5.06-2.27,5.06-5.06S14.46,0,11.67,0h0Z"/><path class="cls-1" d="m23.01,27.48H.32c-.1,0-.2-.05-.26-.14-.06-.09-.07-.2-.04-.29l3.66-10.07c.05-.13.17-.21.3-.21h15.37c.13,0,.26.08.3.21l3.66,10.07c.04.1.02.21-.04.29-.06.09-.16.14-.26.14Zm-22.23-.64h21.78l-3.43-9.43H4.21L.78,26.84Z"/><polygon class="cls-1" points="6.95 24.62 4.38 24.62 4.79 23.48 6.98 23.48 6.95 24.62"/><path class="cls-1" d="m6.95,24.78h-2.57c-.05,0-.1-.03-.13-.07-.03-.04-.04-.1-.02-.15l.41-1.14c.02-.06.08-.11.15-.11h2.19s.08.02.12.05.05.07.05.12l-.03,1.14c0,.09-.07.16-.16.16Zm-2.34-.32h2.19l.02-.82h-1.91l-.3.82Z"/><rect class="cls-1" x="11.35" y="9.48" width=".64" height="11.78"/><path class="cls-1" d="m14.09,21.58h-4.85c-.18,0-.32-.14-.32-.32s.14-.32.32-.32h4.85c.18,0,.32.14.32.32s-.14.32-.32.32Z"/></g></svg>