<svg width="29" height="26" viewBox="0 0 29 26" fill="none" xmlns="http://www.w3.org/2000/svg">
<path fill-rule="evenodd" clip-rule="evenodd" d="M9.74091 4.10844C8.08074 4.10844 6.73491 5.45427 6.73491 7.11444C6.73491 8.77461 8.08074 10.1204 9.74091 10.1204C11.4011 10.1204 12.7469 8.77461 12.7469 7.11444C12.7469 5.45427 11.4011 4.10844 9.74091 4.10844ZM5.73291 7.11444C5.73291 4.90089 7.52735 3.10645 9.74091 3.10645C11.9545 3.10645 13.7489 4.90089 13.7489 7.11444C13.7489 9.32799 11.9545 11.1224 9.74091 11.1224C7.52735 11.1224 5.73291 9.32799 5.73291 7.11444Z" fill="#C4C4C4"/>
<path fill-rule="evenodd" clip-rule="evenodd" d="M9.23987 19.6396V10.6216H10.2419V19.6396H9.23987Z" fill="#C4C4C4"/>
<path fill-rule="evenodd" clip-rule="evenodd" d="M3.38175 16.1328H16.1001L19.4819 25.1508H0L3.38175 16.1328ZM4.07613 17.1348L1.44588 24.1488H18.036L15.4057 17.1348H4.07613Z" fill="#C4C4C4"/>
<path fill-rule="evenodd" clip-rule="evenodd" d="M11.7448 20.1407H7.73682V19.1387H11.7448V20.1407Z" fill="#C4C4C4"/>
<path fill-rule="evenodd" clip-rule="evenodd" d="M5.733 23.1465H3.729V22.1445H5.733V23.1465Z" fill="#C4C4C4"/>
<path fill-rule="evenodd" clip-rule="evenodd" d="M22.6872 5.8092C21.034 4.33394 18.9362 3.88332 16.9297 4.25085C16.6712 4.29819 16.4234 4.12705 16.376 3.86861C16.3287 3.61016 16.4998 3.36228 16.7583 3.31494C19.0202 2.90063 21.4243 3.40699 23.3207 5.0993C26.4274 7.87164 26.7042 12.74 23.9319 15.8467C23.0601 16.8236 22.0161 17.5394 20.8621 17.8987C20.6112 17.9767 20.3446 17.8367 20.2665 17.5858C20.1884 17.3349 20.3284 17.0683 20.5793 16.9902C21.5442 16.6898 22.4466 16.082 23.222 15.2131C25.6444 12.4986 25.4018 8.23167 22.6872 5.8092Z" fill="#C4C4C4"/>
<path fill-rule="evenodd" clip-rule="evenodd" d="M18.4375 7.04348C18.7003 7.04511 18.9119 7.25942 18.9103 7.52216L18.8883 11.0734L21.5198 12.8515C21.7376 12.9986 21.7948 13.2943 21.6477 13.512C21.5006 13.7297 21.2049 13.787 20.9872 13.6399L18.1446 11.7192C18.0128 11.6302 17.9342 11.4812 17.9352 11.3221L17.9588 7.51626C17.9605 7.25352 18.1748 7.04185 18.4375 7.04348Z" fill="#C4C4C4"/>
</svg>
