<svg width="38" height="36" viewBox="0 0 38 36" fill="none" xmlns="http://www.w3.org/2000/svg">
<path fill-rule="evenodd" clip-rule="evenodd" d="M9.83739 11.1484H14.3684C14.7898 11.1484 15.2779 11.2926 15.6073 11.7632L21.6741 18.8251H29.0288C29.6885 18.8251 30.3375 19.0893 30.8466 19.5973L31.4704 20.2197C32.1064 20.8542 32.0551 21.7774 31.5083 22.4594L31.4905 22.4816L30.7426 23.2278C30.2335 23.7357 29.5846 24 28.9248 24H5.32264C4.16631 24 3.11998 23.2317 2.85055 22.0597L1 15.7129H4.03707L6.11655 18.8251H14.3083L9.83739 11.1484ZM11.6212 12.1738L16.0921 19.8505H5.56847L3.48898 16.7383H2.36708L3.84397 21.8036L3.84757 21.8198C4.0003 22.5055 4.61303 22.9746 5.32264 22.9746H28.9248C29.3048 22.9746 29.6956 22.8239 30.0183 22.5019L30.7243 21.7975C30.9912 21.4503 30.9382 21.1372 30.7461 20.9456L30.1223 20.3231C29.7996 20.0012 29.4088 19.8505 29.0288 19.8505H21.2032L14.7911 12.3867L14.7739 12.3609C14.6874 12.2315 14.5626 12.1738 14.3684 12.1738H11.6212Z" fill="#C4C4C4"/>
<path d="M24.2598 13.9027C24.9944 12.4544 26.2896 11.3451 28.018 11.0097C30.8567 10.4589 33.6732 12.36 34.224 15.1988C34.2653 15.4117 34.2942 15.6221 34.3107 15.8289C34.3303 16.0747 34.5298 16.2786 34.7831 16.2786C35.0362 16.2786 35.2474 16.0715 35.2291 15.8126C35.2107 15.5516 35.1755 15.2883 35.1243 15.0241C34.477 11.6881 31.1793 9.46215 27.8433 10.1094C25.8065 10.5047 24.2897 11.8163 23.4419 13.4879C23.3273 13.7138 23.4175 13.9897 23.6434 14.1043C23.8693 14.2188 24.1452 14.1286 24.2598 13.9027Z" fill="#C4C4C4" stroke="#C4C4C4" stroke-width="0.15" stroke-miterlimit="10" stroke-linecap="round" stroke-linejoin="round"/>
<circle cx="29.2665" cy="4.73328" r="3.73328" stroke="#C4C4C4"/>
</svg>
