<?xml version="1.0" encoding="UTF-8"?><svg id="Layer_2" xmlns="http://www.w3.org/2000/svg" viewBox="0 0 37.86 28.22"><defs><style>.cls-1{fill:#c4c4c4;stroke-width:0px;}</style></defs><g id="Layer_1-2"><path class="cls-1" d="m10.24,13.15c.29,0,.56,0,.79.02.96.06,1.48.76,2.25,1.62.22.25,1.49,1.65,2.69,3.05.02.03.06.05.1.05,0,0,.02,0,.03,0,.13-.03.26-.06.39-.09,1.56-.34,2.84-.46,3.88-.46,1.52,0,2.51.26,3.02.46.79.32,2.6,1.46,2.86,1.62.02.01.04.02.07.02,2.37,0,4.99.79,6.24,1.21.31.1.34.53.05.69-.75.4-1.63.71-1.76.76-.01,0-.02.01-.03.02l-.52.38c-.4.3-1.5.59-2.02.72-.11.03-.13.18-.04.24.6.4,1.73,1.39,2.12,1.55.63.27,1.06.5,1.12,1.11.04.46-.48.81-.61.89-.02.01-.03.03-.05.05-.2.33-.47.45-.74.45-.35,0-.69-.21-.82-.43-.02-.03-.05-.05-.08-.06-.35-.09-1.14-.27-1.37-.35-.08-.03-.11-.12-.07-.19l.17-.33s.04-.05.07-.06l1.34-.38c.1-.04.12-.18.02-.24l-2.7-1.99s-.04-.02-.07-.02c0,0,0,0,0,0l-5.3.27c-.07,0-.12.06-.12.13l-.08,1.66c0,.06.04.12.09.13.17.05.53.2.62.58.16.66-.51.91-.66.95-.02,0-.04.02-.06.04-.24.27-.48.36-.69.36-.36,0-.63-.28-.71-.36-.02-.02-.04-.03-.06-.04l-1.21-.41c-.05-.02-.09-.07-.09-.13v-.37c0-.06.04-.11.1-.13l1.6-.48c.05-.02.09-.06.09-.12l.06-1.65c0-.07-.05-.13-.12-.14-1.32-.13-12.66-1.13-15.66-1.46-1.71-.19-2.21-1.08-2.54-2.15-.21-.69-1.07-3.6-1.18-4.41-.01-.08.05-.15.13-.15.21,0,.39,0,.56,0,1.44,0,1.65.21,2.27,1.24.33.56,1.47,2.2,2.17,2.71.37.27,1.07.35,1.87.35.69,0,1.46-.06,2.18-.09.4-.02.79-.04,1.19-.12.08-.02.13-.11.1-.18-.79-1.82-2.51-5.33-2.89-6.11-.04-.09.02-.19.11-.19.37-.02,1.19-.05,1.9-.05m0-.64c-.71,0-1.52.03-1.93.05-.26.01-.5.15-.63.38-.13.23-.14.5-.03.74l.32.67c.54,1.11,1.59,3.27,2.27,4.79-.14.01-.29.02-.45.03l-.58.03c-.53.03-1.08.06-1.57.06-1.03,0-1.38-.14-1.49-.23-.55-.41-1.61-1.88-1.99-2.53-.73-1.22-1.17-1.55-2.82-1.55-.17,0-.37,0-.58,0-.22,0-.43.1-.58.27-.14.17-.21.39-.18.6.13.99,1.19,4.48,1.2,4.51.35,1.16,1,2.37,3.08,2.6,2.01.22,7.63.73,11.72,1.1,1.51.14,2.76.25,3.46.32l-.03.8-1.25.37c-.32.09-.56.4-.56.74v.37c0,.33.21.63.52.73l1.1.37c.2.19.58.48,1.09.48.27,0,.67-.09,1.07-.48.64-.25,1.16-.84.96-1.67-.09-.38-.33-.69-.68-.89l.04-.85,4.66-.24,1.71,1.26-.33.09c-.22.08-.37.21-.46.38l-.17.33c-.1.2-.12.43-.04.64.08.21.25.37.46.45.18.07.56.16,1.07.28l.19.05c.3.34.78.56,1.23.56.49,0,.92-.23,1.22-.66.28-.19.89-.69.82-1.44-.1-1.05-.95-1.41-1.51-1.64-.15-.07-.68-.48-1.03-.75-.04-.03-.09-.07-.13-.1.58-.18.99-.37,1.24-.55l.46-.34c.27-.1,1.07-.39,1.78-.77.36-.19.57-.58.53-.98-.03-.41-.3-.75-.68-.88-1.33-.45-3.9-1.2-6.29-1.24-.53-.33-2.08-1.3-2.84-1.6-.48-.19-1.54-.51-3.25-.51-1.22,0-2.58.16-4.02.48l-.09.02c-.91-1.05-1.8-2.05-2.25-2.55l-.24-.27-.2-.23c-.69-.79-1.34-1.54-2.49-1.61-.23-.01-.52-.02-.82-.02h0Z"/><path class="cls-1" d="m32.5,7.76c-2.14,0-3.88-1.74-3.88-3.88s1.74-3.88,3.88-3.88,3.88,1.74,3.88,3.88-1.74,3.88-3.88,3.88Zm0-7.12c-1.79,0-3.24,1.45-3.24,3.24s1.45,3.24,3.24,3.24,3.24-1.45,3.24-3.24-1.45-3.24-3.24-3.24Z"/><path class="cls-1" d="m37.54,15.44c-.18,0-.32-.14-.32-.32,0-3.07-2.45-5.56-5.47-5.56-2.08,0-3.96,1.18-4.89,3.08-.08.16-.28.22-.43.15-.16-.08-.23-.27-.15-.43,1.04-2.12,3.14-3.43,5.47-3.43,3.37,0,6.11,2.78,6.11,6.2,0,.18-.14.32-.32.32Z"/></g></svg>