<svg width="18" height="20" viewBox="0 0 18 20" fill="none" xmlns="http://www.w3.org/2000/svg">
<g clip-path="url(#clip0_5718_20928)">
<path d="M17.5477 2.04628H11.9853C11.9937 2.00611 11.9937 1.96466 11.9853 1.92448V0.406009C11.9853 0.298329 11.9426 0.195059 11.8664 0.118917C11.7903 0.0427758 11.687 0 11.5793 0L6.34994 0C6.24226 0 6.13899 0.0427758 6.06285 0.118917C5.98671 0.195059 5.94393 0.298329 5.94393 0.406009V1.92448C5.9393 1.96495 5.9393 2.00582 5.94393 2.04628H0.405968C0.301043 2.0462 0.20016 2.08674 0.124469 2.1594C0.0487777 2.23207 0.0041561 2.33121 -4.08545e-05 2.43605V4.45798C-0.00112102 4.51198 0.00858285 4.56565 0.0285026 4.61585C0.0484223 4.66605 0.0781574 4.71177 0.115967 4.75033C0.153776 4.7889 0.1989 4.81953 0.248696 4.84044C0.298493 4.86135 0.35196 4.87212 0.405968 4.87211H1.80264L2.56594 19.6265C2.57215 19.7299 2.61766 19.827 2.69313 19.8979C2.76861 19.9689 2.86836 20.0083 2.97194 20.0081H14.9817C15.0853 20.0083 15.185 19.9689 15.2605 19.8979C15.336 19.827 15.3815 19.7299 15.3877 19.6265L16.1591 4.87211H17.5477C17.6553 4.87211 17.7586 4.82933 17.8348 4.75319C17.9109 4.67705 17.9537 4.57378 17.9537 4.4661V2.43605C17.9495 2.33121 17.9049 2.23207 17.8292 2.1594C17.7535 2.08674 17.6526 2.0462 17.5477 2.04628V2.04628ZM6.75595 1.92448V0.812018H11.1977V1.92448C11.1931 1.96495 11.1931 2.00582 11.1977 2.04628H6.73159C6.7481 2.00782 6.7564 1.96634 6.75595 1.92448V1.92448ZM14.6163 19.188H3.35359L2.61466 4.87211H15.339L14.6163 19.188ZM17.1417 4.06009H0.811977V2.8583H17.1417V4.06009Z" fill="#969696"/>
<path d="M7.365 7.74609H6.55298V15.4603H7.365V7.74609Z" fill="#969696"/>
<path d="M11.4007 7.74609H10.5887V15.4603H11.4007V7.74609Z" fill="#969696"/>
</g>
<defs>
<clipPath id="clip0_5718_20928">
<rect width="17.9537" height="20" fill="white"/>
</clipPath>
</defs>
</svg>
