<svg width="12" height="11" viewBox="0 0 12 11" fill="none" xmlns="http://www.w3.org/2000/svg">
<path d="M5.43324 7.12618H6.45313V8.14379H5.43324V7.12618ZM5.43324 3.05574H6.45313V6.10857H5.43324V3.05574ZM5.93809 0.511719C3.1232 0.511719 0.84375 2.79116 0.84375 5.59977C0.84375 8.40837 3.1232 10.6878 5.93809 10.6878C8.75807 10.6878 11.0426 8.40837 11.0426 5.59977C11.0426 2.79116 8.75807 0.511719 5.93809 0.511719ZM5.94319 9.67021C3.68924 9.67021 1.86364 7.84869 1.86364 5.59977C1.86364 3.35085 3.68924 1.52933 5.94319 1.52933C8.19714 1.52933 10.0227 3.35085 10.0227 5.59977C10.0227 7.84869 8.19714 9.67021 5.94319 9.67021Z" fill="#FFFF00"/>
</svg>
