<svg width="24" height="22" viewBox="0 0 24 22" fill="none" xmlns="http://www.w3.org/2000/svg">
<path d="M20.3978 18.9176V19.6007H20.2493V18.9176H20.0117V18.7988H20.6057V18.9176H20.3978ZM21.3185 19.6007C21.3185 19.5116 21.3185 18.977 21.3185 18.977L21.1403 19.6007H21.0215L20.8136 19.0067C20.8136 19.0067 20.8136 19.5413 20.8136 19.6304H20.6651V18.8285H20.8433L21.0512 19.4819L21.2294 18.8285H21.4075V19.6304H21.3185V19.6007Z" fill="black"/>
<path d="M12.1409 0.653367H17.8133C18.8527 0.653367 19.6843 1.48493 19.6843 2.52437V12.2061C19.6843 12.2358 19.6843 12.2358 19.6843 12.2655L20.3377 12.8595V2.52437C20.3377 1.12854 19.2091 0 17.8133 0H9.08191C7.62669 0 6.26055 0.504875 5.19141 1.36613L6.85452 2.43528C8.33945 1.33643 10.1511 0.653367 12.1409 0.653367Z" fill="black"/>
<path d="M23.5156 16.4532L15.3782 8.85034C16.6553 7.18723 17.6353 5.40531 18.2887 3.53431C18.5857 2.67305 18.6451 2.04938 18.3778 1.84149C18.1105 1.6336 17.5165 1.87119 16.7444 2.34636C15.111 3.44521 13.5963 4.84104 12.3193 6.47446L2.99395 0.475358C2.45938 0.148674 1.80601 0.148673 1.30113 0.534754L0.618068 1.00993L0.0537955 1.42571C-0.0353001 1.48511 -0.00560142 1.6039 0.0834942 1.6336L0.439876 1.81179C0.55867 1.87119 0.647766 1.93059 0.76656 2.01968L3.29094 4.15798C3.08305 4.78164 2.96425 5.46471 2.96425 6.14778V13.8397L3.61762 13.0081V9.20673C3.61762 7.7812 3.974 6.41506 4.59767 5.22712L9.52763 9.38492C9.91371 9.7116 10.0028 10.2462 9.76521 10.6917L7.27054 15.2355L4.15219 13.7803C3.88491 13.6615 3.58792 13.7209 3.40973 13.9585L2.93455 14.5822V18.8884C2.93455 20.2843 4.0631 21.4128 5.45893 21.4128H14.1606C16.8929 21.4128 19.2093 19.6309 20.0112 17.1659L22.595 19.0072C22.6841 19.0666 22.8029 19.1557 22.8623 19.2745L23.1296 19.5715C23.189 19.6309 23.3077 19.6309 23.3374 19.5418L23.9017 18.1163C24.1096 17.5223 23.9908 16.8689 23.5156 16.4532ZM14.3685 7.03873C13.8636 6.65265 13.1805 6.74175 12.7945 7.24662L10.8047 9.91949C10.775 9.97889 10.6859 9.97889 10.6265 9.94919C10.5671 9.91949 10.5671 9.83039 10.5968 9.80069L12.6163 6.80114C13.2993 5.79139 14.4873 4.87074 15.4673 5.6429C16.4474 6.41506 15.8534 7.7812 15.0219 8.70185L12.5866 11.4044C12.5569 11.4638 12.4678 11.4638 12.4381 11.4044C12.3787 11.3747 12.3787 11.2856 12.4084 11.2262L14.4873 8.67215C14.9328 8.13758 14.8437 7.42481 14.3685 7.03873ZM11.1313 20.7595H5.45893C4.41948 20.7595 3.58792 19.9279 3.58792 18.8884V15.2355L6.1123 17.1956L4.71646 19.2745C4.68677 19.3339 4.68677 19.423 4.74616 19.4527C4.80556 19.5121 4.89466 19.4824 4.92435 19.423L6.58747 17.552L9.64642 19.9279C9.73552 20.017 9.88401 19.9873 9.9731 19.8982L10.3889 19.3636C10.5671 19.126 10.5671 18.829 10.3889 18.5915L8.22089 15.978L11.9926 12.4439C12.349 12.0875 12.9133 12.0578 13.329 12.3548L18.7342 16.2156C17.2492 18.9181 14.3982 20.7595 11.1313 20.7595Z" fill="black"/>
</svg>
