<svg width="22" height="26" viewBox="0 0 22 26" fill="none" xmlns="http://www.w3.org/2000/svg">
<path d="M11.189 1.68399C13.2511 1.68399 14.9245 3.35739 14.9245 5.4195C14.9245 7.48161 13.2511 9.15501 11.189 9.15501C9.12692 9.15501 7.45352 7.48161 7.45352 5.4195C7.45352 3.35739 9.12692 1.68399 11.189 1.68399ZM11.189 0.875C8.68316 0.875 6.64453 2.91363 6.64453 5.4195C6.64453 7.92537 8.68316 9.964 11.189 9.964C13.6949 9.964 15.7335 7.92537 15.7335 5.4195C15.7335 2.91363 13.6949 0.875 11.189 0.875Z" fill="white" stroke="white" stroke-width="0.25"/>
<path d="M0.896827 24.5816L0.896785 24.5815L0.895723 24.5847C0.857841 24.6984 0.870542 24.8348 0.945239 24.9469C1.02143 25.0612 1.1483 25.1248 1.27633 25.1248H21.0942C21.2212 25.1248 21.347 25.0622 21.4234 24.9497C21.4979 24.8484 21.5239 24.709 21.4731 24.5798L18.278 15.7889C18.2233 15.6167 18.0558 15.5205 17.8975 15.5205H4.47305C4.30728 15.5205 4.15641 15.6227 4.09435 15.7841L4.09433 15.784L4.09354 15.7862L0.896827 24.5816ZM20.5227 24.3158H1.85658L4.76148 16.3295H17.6178L20.5227 24.3158Z" fill="white" stroke="white" stroke-width="0.25"/>
<path d="M7.06793 22.6285H7.18968L7.19289 22.5068L7.21909 21.5111L7.22246 21.3828H7.09413H5.18134H5.09346L5.06372 21.4655L4.70562 22.4612L4.64545 22.6285H4.82324H7.06793Z" fill="white" stroke="white" stroke-width="0.25"/>
<path d="M7.09263 21.3574L7.12295 21.2362L7.10802 21.2324H7.09263H5.17984C5.06021 21.2324 4.96404 21.3149 4.9308 21.4123L4.57372 22.4052C4.54058 22.4906 4.5575 22.5876 4.6082 22.6552C4.65294 22.7149 4.73098 22.7663 4.82174 22.7663H7.06643H7.07516C7.22217 22.7663 7.33891 22.6502 7.3399 22.5035L7.36607 21.5092L7.36611 21.5092V21.5059C7.36611 21.4444 7.35282 21.3614 7.27244 21.3011C7.23859 21.2757 7.19676 21.2597 7.17323 21.2515C7.15961 21.2467 7.1475 21.243 7.13874 21.2405L7.12798 21.2375L7.12468 21.2366L7.12361 21.2363L7.12323 21.2362L7.12307 21.2362L7.12301 21.2362L7.12298 21.2362L7.09263 21.3574ZM6.8248 21.7707L6.81343 22.2369H5.20146L5.37202 21.7707H6.8248Z" fill="white" stroke="white" stroke-width="0.25"/>
<path d="M11.5941 9.28125V9.15625H11.4691H10.9102H10.7852V9.28125V19.5701V19.6951H10.9102H11.4691H11.5941V19.5701V9.28125Z" fill="white" stroke="white" stroke-width="0.25"/>
<path d="M9.06758 19.975H13.3037C13.5299 19.975 13.7082 19.7968 13.7082 19.5705C13.7082 19.3443 13.5299 19.166 13.3037 19.166H9.06758C8.84133 19.166 8.66309 19.3443 8.66309 19.5705C8.66309 19.7968 8.84133 19.975 9.06758 19.975Z" fill="white" stroke="white" stroke-width="0.25"/>
</svg>
