<svg width="19" height="19" viewBox="0 0 19 19" fill="none" xmlns="http://www.w3.org/2000/svg">
<path d="M9.5 0C4.25125 0 0 4.25125 0 9.5C0 14.7487 4.25125 19 9.5 19C14.7487 19 19 14.7487 19 9.5C19 4.25125 14.7487 0 9.5 0ZM9.5 2.85C11.0794 2.85 12.35 4.12063 12.35 5.7C12.35 7.27938 11.0794 8.55 9.5 8.55C7.92062 8.55 6.65 7.27938 6.65 5.7C6.65 4.12063 7.92062 2.85 9.5 2.85ZM9.5 16.34C7.125 16.34 5.02313 15.1287 3.8 13.2763C3.82375 11.3881 7.6 10.355 9.5 10.355C11.4 10.355 15.1763 11.3881 15.2 13.2763C13.9769 15.1169 11.875 16.34 9.5 16.34Z" fill="black"/>
</svg>
