<svg width="18" height="21" viewBox="0 0 18 21" fill="none" xmlns="http://www.w3.org/2000/svg">
<path d="M4.5 14.0029L4.71094 12.8428L5.34375 9.50293L13.5352 1.31152L14.3438 0.50293L15.1172 1.31152L17.1914 3.38574L18 4.15918L17.1914 4.96777L9 13.1592L5.66016 13.792L4.5 14.0029ZM8.4375 12.1396L14.4141 6.16309L12.3398 4.08887L6.36328 10.0654L5.90625 12.5967L8.4375 12.1396ZM15.1875 5.38965L16.3828 4.15918L14.3438 2.12012L13.1133 3.31543L15.1875 5.35449V5.38965ZM0 2.75293H0.5625H7.3125H7.875V3.87793H7.3125H1.125V17.3779H14.625V11.1904V10.6279H15.75V11.1904V17.9404V18.5029H15.1875H0.5625H0V17.9404V3.31543V2.75293Z" fill="black"/>
</svg>
